<?xml version="1.0" standalone="no"?>
<!DOCTYPE svg PUBLIC "-//W3C//DTD SVG 20010904//EN"
 "http://www.w3.org/TR/2001/REC-SVG-20010904/DTD/svg10.dtd">
<svg version="1.0" xmlns="http://www.w3.org/2000/svg"
 width="300.000000pt" height="51.000000pt" viewBox="0 0 300.000000 51.000000"
 preserveAspectRatio="xMidYMid meet">
<metadata>
Created by potrace 1.10, written by Peter Selinger 2001-2011
</metadata>
<g transform="translate(0.000000,51.000000) scale(0.100000,-0.100000)"
fill="#000000" stroke="none">
<path d="M1100 465 c0 -38 -3 -45 -20 -45 -13 0 -20 -7 -20 -20 0 -13 7 -20
20 -20 18 0 20 -8 22 -101 3 -98 4 -103 30 -122 18 -14 48 -22 88 -25 56 -4
60 -3 60 17 0 19 -6 21 -50 21 -77 0 -90 19 -90 128 l0 87 60 -3 c55 -4 60 -2
60 17 0 19 -6 21 -60 21 l-60 0 0 45 c0 38 -3 45 -20 45 -17 0 -20 -7 -20 -45z"/>
<path d="M81 410 c-52 -12 -70 -37 -77 -105 -5 -44 -2 -70 10 -98 13 -33 14
-42 2 -60 -7 -12 -14 -50 -15 -84 -2 -58 -1 -63 18 -63 20 0 21 6 21 80 0 74
2 80 18 72 29 -16 121 -24 180 -17 42 5 62 14 84 35 26 26 28 35 28 103 0 87
-19 120 -78 137 -43 11 -141 12 -191 0z m209 -50 c16 -16 20 -33 20 -85 0 -92
-16 -105 -131 -105 -118 0 -134 13 -134 103 0 97 13 107 132 107 80 0 96 -3
113 -20z"/>
<path d="M463 409 c-54 -16 -73 -51 -73 -136 0 -68 2 -77 28 -103 33 -32 109
-47 193 -37 106 13 131 44 127 154 -4 82 -19 107 -77 123 -44 12 -154 12 -198
-1z m203 -37 c22 -14 34 -51 34 -102 0 -41 -5 -56 -25 -75 -22 -23 -32 -25
-114 -25 -85 0 -91 1 -110 26 -29 37 -30 135 -1 164 17 17 33 20 113 20 50 0
97 -4 103 -8z"/>
<path d="M780 275 l0 -145 25 0 25 0 0 108 c0 140 6 147 115 139 73 -5 105 5
74 23 -24 16 -107 22 -145 11 -26 -7 -40 -7 -42 -1 -2 6 -15 10 -28 10 l-24 0
0 -145z"/>
<path d="M1320 415 c0 -3 -1 -67 -1 -142 0 -132 1 -138 20 -141 20 -3 21 1 21
106 0 135 5 142 103 142 99 0 107 -11 107 -146 0 -102 1 -105 21 -102 21 3 22
8 20 95 -2 89 7 128 33 145 6 4 43 8 82 8 101 0 109 -10 109 -146 -1 -102 -1
-104 22 -104 22 0 23 2 22 98 -1 118 -7 139 -42 166 -42 31 -158 35 -211 7
-25 -13 -42 -17 -46 -11 -4 6 -32 16 -63 22 -55 12 -93 7 -150 -17 -13 -6 -16
-4 -11 9 4 12 0 16 -15 16 -12 0 -21 -2 -21 -5z"/>
<path d="M1987 406 c-21 -8 -40 -16 -41 -18 -30 -35 -36 -169 -10 -207 9 -13
32 -29 50 -37 39 -16 144 -18 194 -4 23 7 36 7 38 0 2 -5 12 -10 23 -10 17 0
19 8 19 105 0 115 -9 147 -49 165 -40 19 -179 23 -224 6z m213 -46 c16 -16 20
-33 20 -85 0 -94 -13 -105 -130 -105 -117 0 -130 11 -130 105 0 94 13 105 130
105 77 0 93 -3 110 -20z"/>
<path d="M2385 405 c-48 -18 -48 -18 -40 -5 4 6 -5 10 -20 10 l-26 0 3 -137
c3 -135 4 -138 26 -141 22 -3 22 -2 22 107 0 137 4 141 126 141 112 0 118 -8
121 -144 2 -94 3 -101 22 -104 20 -3 21 1 21 97 0 112 -8 143 -44 166 -36 24
-160 30 -211 10z"/>
<path d="M2710 402 c-31 -15 -35 -22 -38 -59 -2 -32 2 -47 17 -62 19 -19 33
-21 134 -21 119 0 137 -6 137 -46 0 -40 -21 -46 -147 -43 -120 4 -149 -4 -102
-28 30 -16 194 -17 237 -2 51 18 66 115 21 139 -10 6 -63 10 -119 10 -56 0
-110 5 -121 10 -24 13 -26 65 -3 74 26 10 202 7 209 -4 4 -7 13 -6 27 1 19 10
19 12 4 27 -25 25 -209 28 -256 4z"/>
</g>
</svg>
