<svg width="114" height="12" viewBox="0 0 114 12" fill="none" xmlns="http://www.w3.org/2000/svg">
<g clip-path="url(#clip0_1_3339)">
<path d="M82.8383 0.955078H81.6794V7.22323C81.6794 9.10757 81.4586 9.94761 80.1472 9.94761C79.3466 9.94761 78.7752 9.33547 78.725 8.42413L78.7199 8.33011H77.5667V8.42956C77.5667 10.0306 78.5818 11.1064 80.0929 11.1064C81.0915 11.1064 81.9633 10.6369 82.4267 9.85168C82.7706 9.27352 82.8383 8.59571 82.8383 7.62101V0.955078Z" fill="black"/>
<path d="M84.0221 10.9008H89.2793V9.75622H85.1805V6.48704H89.2793V5.32802H85.1805V2.11326H89.2793V0.955078H84.0221V10.9008Z" fill="black"/>
<path d="M92.5424 6.76789L94.2226 2.25587L95.9292 6.76789H92.5424ZM93.6062 0.955078L89.798 10.7649L89.7452 10.9008H90.9734L92.1385 7.84411H96.333L97.4987 10.9008H98.7403L94.8933 0.955078H93.6062Z" fill="black"/>
<path d="M105.734 9.28169L100.576 1.0022L100.547 0.955078H99.2408V10.9006H100.386L100.281 2.5611L105.439 10.8535L105.468 10.9006H106.773V0.955078H105.629L105.734 9.28169Z" fill="black"/>
<path d="M111.524 5.30693C111.256 5.20309 111.001 5.12199 110.755 5.04297C110.294 4.89578 109.895 4.7686 109.602 4.55343C109.226 4.26759 109.065 3.94213 109.065 3.46718C109.065 2.54105 109.702 1.8941 110.611 1.8941C111.456 1.8941 111.971 2.45078 112.062 3.46176L112.069 3.55266H113.17L113.164 3.44758C113.066 1.74961 112.136 0.776367 110.611 0.776367C109.019 0.776367 107.908 1.90536 107.908 3.5216C107.908 4.79925 108.511 5.52522 109.991 6.02851L110.226 6.10608C111.464 6.51492 112.211 6.76056 112.211 8.01798C112.211 9.17425 111.54 9.89255 110.461 9.89255C109.464 9.89255 108.804 9.15635 108.778 8.01524L108.776 7.91833H107.645L107.647 8.01922C107.675 9.85749 108.801 11.0924 110.447 11.0924C112.196 11.0924 113.371 9.78493 113.371 7.84014C113.37 6.56788 112.818 5.81023 111.524 5.30693Z" fill="black"/>
<path d="M5.128 1.90809C6.48133 1.90809 7.5096 2.45726 8.36546 3.63587L8.39489 3.67674H9.7609L9.68525 3.53163C8.77121 1.77257 7.11575 0.763672 5.14175 0.763672C3.76737 0.763672 2.58667 1.24863 1.63156 2.20415C0.616826 3.20492 0.0799561 4.4711 0.0799561 5.86613C0.0799561 8.84569 2.27998 11.0924 5.19659 11.0924C7.08989 11.0924 8.69529 10.1246 9.60245 8.4358L9.68085 8.28945H8.32626L8.29648 8.33072C7.51043 9.4224 6.44523 9.97532 5.12821 9.97532C2.97822 9.97532 1.2936 8.17646 1.2936 5.88051C1.29339 3.72719 3.04952 1.90809 5.128 1.90809Z" fill="black"/>
<path d="M12.0558 6.76796L13.7371 2.25615L15.4432 6.76796H12.0558ZM14.4076 0.955566H13.1199L9.25928 10.9007H10.4877L11.6527 7.84438H15.8474L17.0129 10.9007H18.2543L14.432 1.01937L14.4076 0.955566Z" fill="black"/>
<path d="M18.9005 0.955566V10.9005H23.4861V9.75587H20.0587V0.955566H18.9005Z" fill="black"/>
<path d="M26.3909 10.9007L30.1394 0.955566H28.9668L25.9381 9.07723L22.9226 0.955566H21.7502L25.499 10.9007H26.3909Z" fill="black"/>
<path d="M31.9756 0.955078H30.817V10.9002H31.9756V0.955078Z" fill="black"/>
<path d="M34.4672 0.955566H33.1608V10.9005H34.3066L34.2005 2.56138L39.3875 10.9005H40.694V0.955566H39.548L39.6537 9.28197L34.4962 1.00248L34.4672 0.955566Z" fill="black"/>
<path d="M65.7361 0.955078H64.5778V10.9002H65.7361V0.955078Z" fill="black"/>
<path d="M68.2276 0.955566H66.9219V10.9005H68.0679L67.9613 2.56138L73.1482 10.9005H74.4545V0.955566H73.309L73.415 9.28197L68.2566 1.00248L68.2276 0.955566Z" fill="black"/>
<path d="M45.1227 0.955566V10.9005H46.2673V7.83543L47.2608 6.64225L50.5193 10.9005H51.9488L48.0089 5.77322L52.0279 0.955566H50.6311L46.2673 6.19482V0.955566H45.1227Z" fill="black"/>
<path d="M57.2928 9.75587H53.8658V0.955566H52.7074V10.9005H57.2928V9.75587Z" fill="black"/>
<path d="M63.394 2.11354V0.955566H58.1362V10.9005H63.394V9.75588H59.2951V6.48711H63.394V5.32809H59.2951V2.11354H63.394Z" fill="black"/>
</g>
<defs>
<clipPath id="clip0_1_3339">
<rect width="113.77" height="10.3427" fill="white" transform="translate(0.0799561 0.763672)"/>
</clipPath>
</defs>
</svg>
