<svg width="71" height="24" viewBox="0 0 71 24" fill="none" xmlns="http://www.w3.org/2000/svg">
<g clip-path="url(#clip0_1_3296)">
<path d="M9.52332 10.7677C9.30526 12.5121 8.14232 13.5297 6.39791 13.5297C3.92667 13.5297 2.18225 10.9858 2.18225 7.42428C2.18225 3.42667 3.63593 1.17348 6.10718 1.17348C8.43306 1.17348 9.08721 2.91789 9.52332 4.80767V4.88034H9.74136V0.810059H9.45063V0.955427C9.45063 1.31884 9.23257 1.5369 8.94184 1.5369C8.57843 1.5369 8.28768 1.39153 7.99695 1.24616C7.48817 1.02811 6.97938 0.810059 6.03449 0.810059C2.76372 0.810059 0.29248 3.71741 0.29248 7.49696C0.29248 11.2038 2.61836 14.0385 5.67107 14.0385C8.06964 14.0385 9.59599 12.8028 9.81405 10.7677V10.6224H9.52332V10.7677Z" fill="black"/>
<path d="M23.1879 1.2463H23.4059C23.9874 1.2463 24.7143 1.46435 24.7143 3.13608V9.45956C24.7143 11.5674 23.3332 12.9483 21.2254 12.9483C19.1175 12.9483 17.6639 11.5674 17.6639 9.53224V1.2463H18.7542V0.955566H14.7566V1.2463H15.9195V9.60493C15.9195 12.1489 17.8093 14.0386 20.3532 14.0386C22.9698 14.0386 24.9323 12.0762 24.9323 9.45956V3.13608C24.9323 1.90045 25.3684 1.2463 26.2406 1.2463H26.4586V0.955566H23.1879V1.2463Z" fill="black"/>
<path d="M41.2863 12.2942C41.2863 12.7304 41.0682 13.0938 40.7775 13.0938C40.414 13.0938 40.196 12.8757 40.196 11.5675C40.196 9.31426 39.2512 8.00596 37.5067 7.56985C39.3965 7.13376 40.7048 5.82545 40.7048 4.29908C40.7048 2.26395 38.9604 1.02832 36.3437 1.02832H31.0378V1.31906H32.2008V13.6026H31.0378V13.8933H35.0355V13.6026H33.9452V7.71522H35.9077C38.0882 7.71522 38.5243 9.16889 38.5243 11.5675C38.5243 12.8757 38.7424 14.0387 40.0506 14.0387C41.1409 14.0387 41.5043 13.0938 41.5043 12.2942V11.7855H41.2136V12.2942H41.2863ZM33.8725 7.42449V1.24637H35.9077C37.7974 1.24637 38.8877 2.40931 38.8877 4.29908C38.8877 5.46203 38.5243 7.42449 35.835 7.42449H33.8725Z" fill="black"/>
<path d="M69.8508 10.5498C69.4874 12.8757 68.7605 13.5298 66.798 13.5298H64.036V7.56978H65.6351C67.0887 7.56978 67.7429 8.07857 67.9609 9.38688V9.45956H68.2517V5.31659H67.8883V5.38927C67.7429 6.69758 67.016 7.20636 65.5624 7.20636H63.9633V1.2463H66.58C68.5424 1.2463 69.2693 1.97313 69.6327 4.22633V4.29901H69.8508V0.955566H61.1287V1.2463H62.2916V13.5298H61.1287V13.8933H70.0687V10.5498H69.8508Z" fill="black"/>
<path d="M53.4969 1.2463H53.715C54.2238 1.2463 54.5872 1.39167 54.7326 1.6824C54.9506 1.97313 54.9506 2.48193 54.7326 3.06339L51.6072 12.0762L47.6096 1.2463H48.7724V0.955566H44.7749V1.2463H45.7924L50.5169 13.8933H51.3164L55.0233 3.20877C55.4593 1.90045 55.8954 1.31898 56.5496 1.31898H56.7677V0.955566H53.4969V1.2463Z" fill="black"/>
<path d="M47.3914 18.9082H46.8099V19.1989V19.2716V21.5249C46.8099 22.2517 46.2284 22.4697 45.3561 22.4697C44.484 22.4697 43.9025 22.2517 43.9025 21.5249V19.2716V19.1989V18.9082H43.321V19.1989V19.2716V21.6703C43.321 22.6878 44.4113 23.0512 45.3561 23.0512C46.3011 23.0512 47.3914 22.7605 47.3914 21.6703V19.2716V19.1989V18.9082Z" fill="black"/>
<path d="M49.4993 18.9082H48.918V19.1989V19.2716V22.6151C48.918 22.6878 48.918 22.6878 48.918 22.6878V22.9785H49.4993V18.9082Z" fill="black"/>
<path d="M56.5499 22.4697H53.4972V21.1615H55.8957V20.6527H55.6049H53.5698V19.417H56.4772H56.5499H56.8406V18.9082H56.5499H53.061V19.1989V19.2716V22.6151C53.061 22.6878 53.061 22.6878 53.061 22.6878V22.9785H57.0587V22.4697H56.5499Z" fill="black"/>
<path d="M25.8771 18.9082V19.2716C25.8771 19.2716 25.8771 19.2716 25.8771 19.3443V21.743C25.8771 22.397 25.6591 22.5424 24.9322 22.5424C24.5688 22.5424 24.278 22.4697 24.0601 22.3243L23.6966 22.179L23.5513 22.6151L23.9874 22.8331C24.06 22.8331 24.1326 22.9058 24.2053 22.9058C24.4234 22.9785 24.6415 23.0512 25.0049 23.0512C25.8771 23.0512 26.5313 22.8331 26.5313 21.8883V19.2716C26.5313 19.2716 26.5313 19.2716 26.5313 19.1989V18.9082H25.8771Z" fill="black"/>
<path d="M28.5665 21.2342L29.4387 19.2716L30.3835 21.2342H28.5665ZM30.965 22.5424C30.965 22.6151 31.0377 22.6151 31.0377 22.6878L31.1831 22.9785H31.7646L29.8747 18.9082H29.0753L27.3308 22.9785H27.8396L27.9123 22.7605C27.9123 22.7605 27.9123 22.6878 27.985 22.6151L28.3484 21.8157H30.6016L30.965 22.5424Z" fill="black"/>
<path d="M36.6345 22.2518L36.271 21.7431L35.8349 22.0338C35.617 22.2518 35.1808 22.3972 34.5267 22.3972C33.5817 22.3972 32.9276 21.7431 32.9276 20.8709C32.9276 19.9987 33.5817 19.2718 34.5993 19.2718C35.0355 19.2718 35.5443 19.4899 35.8349 19.6352L36.1983 19.8533L36.4891 19.2718L36.1256 19.0537C36.053 19.0537 35.9803 18.9811 35.8349 18.9084C35.4716 18.763 35.1808 18.6904 34.672 18.6904C33.4364 18.6904 32.3462 19.4899 32.3462 20.7982C32.3462 22.1065 33.3637 22.906 34.5993 22.906C35.617 22.906 36.1256 22.4699 36.3437 22.3245L36.6345 22.2518Z" fill="black"/>
<path d="M39.7599 22.5423C38.6696 22.5423 38.0155 21.8155 38.0155 20.9433C38.0155 20.071 38.6696 19.3442 39.7599 19.3442C40.8502 19.3442 41.5043 20.071 41.5043 20.9433C41.5043 21.4521 41.2862 21.8882 40.9229 22.1788C40.7049 22.3242 40.4868 22.3969 40.2687 22.4696C40.1234 22.5423 39.978 22.5423 39.7599 22.5423ZM41.1409 23.3418L41.3589 23.5599L41.795 23.1238L41.5043 22.833C41.4316 22.7603 41.3589 22.6876 41.2135 22.5423C41.795 22.1788 42.0858 21.5248 42.0858 20.8706C42.0858 19.7076 41.1409 18.7627 39.7599 18.7627C38.3789 18.7627 37.4341 19.7076 37.4341 20.8706C37.4341 22.0335 38.3062 22.9784 39.7599 22.9784C40.0507 22.9784 40.3414 22.9057 40.6322 22.833C40.9228 23.1238 41.0682 23.2691 41.1409 23.3418Z" fill="black"/>
<path d="M51.4619 20.5801H50.8804V21.1616H51.4619V20.5801Z" fill="black"/>
<path d="M18.8997 20.2892L17.8095 18.9082H17.0826L18.6089 20.798V22.9785H19.1904V20.798L20.7168 18.9082H19.99L18.8997 20.2892ZM15.2656 21.2342C15.4108 21.3068 15.4835 21.3795 15.5562 21.4522C15.6289 21.5249 15.7016 21.6703 15.7016 21.8157C15.7016 21.9609 15.7016 22.0336 15.6289 22.179C15.5562 22.2517 15.4835 22.397 15.3381 22.397C15.1929 22.4697 14.9748 22.4697 14.6841 22.4697H14.1026V21.1615H14.6114C14.9021 21.1615 15.1202 21.1615 15.2656 21.2342ZM15.3381 19.9985C15.3381 20.2166 15.2656 20.3619 15.1202 20.4346C14.9748 20.58 14.7568 20.58 14.466 20.58H14.1026V19.3443H14.6114C15.0475 19.417 15.3381 19.6351 15.3381 19.9985ZM15.6289 22.8331C15.847 22.7605 15.9923 22.6151 16.065 22.4697C16.1377 22.3243 16.2104 22.1063 16.2104 21.8883C16.2104 21.5976 16.1377 21.3795 15.9196 21.2342C15.7743 21.0161 15.4835 20.9434 15.1929 20.8707C15.6289 20.7254 15.847 20.4346 15.847 19.9985C15.847 19.7804 15.7743 19.6351 15.7016 19.417C15.6289 19.2716 15.4835 19.1263 15.2656 19.0536C15.0475 18.9809 14.8295 18.9082 14.466 18.9082H13.3757V22.9785H14.7568C15.1929 22.9785 15.4108 22.9058 15.6289 22.8331Z" fill="black"/>
</g>
<defs>
<clipPath id="clip0_1_3296">
<rect width="70.525" height="22.75" fill="white" transform="translate(0.29248 0.810059)"/>
</clipPath>
</defs>
</svg>
