<svg width="21" height="21" viewBox="0 0 21 21" fill="none" xmlns="http://www.w3.org/2000/svg">
<g clip-path="url(#clip0_1_3220)">
<path d="M0.159912 0.310059H20.1599V20.3101H0.159912V0.310059Z" fill="#0052B4"/>
<path d="M6.17554 12.0288L6.72241 13.2007L7.97241 12.8882L7.42554 14.0601L8.4021 14.8413L7.1521 15.1147L7.19116 16.4038L6.17554 15.5835L5.15991 16.4038L5.19897 15.1147L3.90991 14.8413L4.92554 14.0601L4.37866 12.8882L5.62866 13.2007L6.17554 12.0288ZM14.8474 10.9741H16.6833L15.199 12.0288L15.7849 10.3101L16.3318 12.0288L14.8474 10.9741ZM15.1208 4.646L15.3943 5.23193L16.0193 5.07568L15.7458 5.66162L16.2146 6.05225L15.6287 6.16943V6.8335L15.1208 6.40381L14.613 6.8335V6.16943L14.0271 6.05225L14.4958 5.66162L14.2224 5.07568L14.8474 5.23193L15.1208 4.646ZM17.3474 7.26318L17.6208 7.84912L18.2458 7.69287L17.9724 8.27881L18.4412 8.66943L17.8552 8.78662V9.41162L17.3474 9.021L16.8396 9.45068V8.78662L16.2537 8.66943L16.7224 8.27881L16.449 7.69287L17.074 7.84912L17.3474 7.26318ZM12.5818 8.12256L12.8552 8.7085L13.4802 8.55225L13.2068 9.13818L13.6755 9.52881L13.0896 9.646V10.271L12.5818 9.88037L12.074 10.3101V9.646L11.488 9.52881L11.9568 9.13818L11.6833 8.55225L12.3083 8.7085L12.5818 8.12256ZM15.1208 14.2163L15.3943 14.8022L16.0193 14.646L15.7458 15.2319L16.2146 15.6226L15.6287 15.7397V16.4038L15.1208 15.9741L14.613 16.4038V15.7397L14.0271 15.6226L14.4958 15.2319L14.2224 14.646L14.8474 14.8022L15.1208 14.2163ZM0.159912 0.310059V1.56006L1.40991 2.81006L0.159912 4.06006V10.3101H1.40991L2.65991 9.06006L3.90991 10.3101H5.15991V7.06787L8.4021 10.3101H10.1599L9.84741 9.68506L10.1599 9.09912V8.55225L6.91772 5.31006H10.1599V4.06006L8.90991 2.81006L10.1599 1.56006V0.310059H3.90991L2.65991 1.56006L1.40991 0.310059H0.159912Z" fill="#EEEEEE"/>
<path d="M1.40991 0.310059V1.56006H0.159912V4.06006H1.40991V10.3101H3.90991V4.06006H10.1599V1.56006H3.90991V0.310059H1.40991ZM5.15991 5.31006L10.1599 10.3101V9.09912L6.37085 5.31006H5.15991Z" fill="#D80027"/>
</g>
<defs>
<clipPath id="clip0_1_3220">
<rect width="20" height="20" fill="white" transform="translate(0.159912 0.310059)"/>
</clipPath>
</defs>
</svg>
