<svg width="32" height="24" viewBox="0 0 32 24" fill="none" xmlns="http://www.w3.org/2000/svg">
<g clip-path="url(#clip0_1_3372)">
<path d="M27.8014 0.772258H23.7448V1.12809H24.8171V22.025C24.7963 22.4719 24.624 22.6352 23.965 22.6575H23.7448V23.0369H28.3108V22.6561H27.8279C27.0682 22.6352 26.7853 22.3198 26.7735 21.665V13.2522H28.0988C30.0337 13.2522 31.1325 12.3278 31.1325 11.0908V3.12966C31.1325 1.88841 30.1839 0.773648 27.8014 0.773648V0.772258ZM29.1927 11.4911C29.1942 12.1792 28.75 12.8282 27.8883 12.815H26.7749V1.12879H27.7861C28.7522 1.12879 29.1927 1.94193 29.1927 2.56047V11.4911ZM19.1578 21.6462V21.6601L16.585 0.770173H14.8524L12.3469 21.437C12.1996 22.1848 12.1259 22.6367 10.9479 22.6568V23.0369H13.9962V22.6561C13.1343 22.6561 12.7423 22.1585 12.8306 21.6254L13.8412 13.2417H16.211L17.2841 21.9041C17.2806 22.4253 17.2216 22.6144 16.5913 22.6561H16.2924V23.0363H20.3581V22.6554H20.2525C19.4705 22.6137 19.2099 22.141 19.1578 21.6449V21.6462ZM13.8926 12.8532L14.9559 3.88581L16.1652 12.8532H13.8926ZM6.37838 1.0579C6.37559 1.41582 6.14903 1.39149 5.96277 1.27613C5.30671 0.854266 4.49774 0.550556 3.77495 0.560286C2.6032 0.561676 0.913678 1.07875 0.908813 3.32843V19.8809C0.931053 22.7603 2.45516 23.2886 3.95287 23.3101C5.12044 23.3114 5.68131 22.761 6.15251 22.5734C6.4027 22.4691 6.67792 22.7006 6.67792 23.1224H7.16163V13.2535H8.13948V12.8352H4.02098V13.2542H5.21358V21.6498C5.21358 22.385 4.66453 22.9368 3.97441 22.9368C3.30445 22.9368 2.79084 22.367 2.79084 21.6498V2.67653C2.79084 2.16085 2.89509 0.957126 3.77356 0.964076C4.49774 0.972415 4.99882 1.62987 5.23303 2.63622C5.47837 3.68843 5.62918 6.23626 5.62918 7.30655C5.62918 7.66794 5.76123 7.79026 6.16015 7.79026H6.91908V0.759748H6.37699V1.05859L6.37838 1.0579Z" fill="black"/>
</g>
<defs>
<clipPath id="clip0_1_3372">
<rect width="30.7125" height="22.75" fill="white" transform="translate(0.908813 0.560059)"/>
</clipPath>
</defs>
</svg>
