<svg width="113" height="24" viewBox="0 0 113 24" fill="none" xmlns="http://www.w3.org/2000/svg">
<g clip-path="url(#clip0_1_3404)">
<path d="M5.88459 5.31057H9.10648V8.97368C8.93187 9.12945 8.73263 9.28086 8.50731 9.42867C8.28271 9.57502 8.02044 9.70544 7.72267 9.82063C7.42418 9.93583 7.09163 10.0271 6.7243 10.0952C6.35697 10.1648 5.944 10.1988 5.48467 10.1988C4.76885 10.1988 4.12404 10.0771 3.55023 9.83439C2.97641 9.59096 2.48592 9.25551 2.07657 8.82878C1.66868 8.40276 1.35642 7.89706 1.14051 7.31456C0.92461 6.73133 0.817383 6.09593 0.817383 5.40765C0.817383 4.73747 0.928957 4.10861 1.15428 3.5203C1.37888 2.93346 1.69404 2.42196 2.09759 1.98508C2.50114 1.54964 2.98583 1.20478 3.55023 0.952648C4.11535 0.70052 4.74131 0.57373 5.43033 0.57373C5.91648 0.57373 6.35263 0.631691 6.73806 0.746888C7.1235 0.86136 7.46112 1.00771 7.75021 1.18666C8.04001 1.36562 8.28489 1.56051 8.48702 1.77134C8.68844 1.9829 8.8587 2.18504 8.99636 2.37775L8.06029 3.17689C7.95017 3.02039 7.81685 2.85738 7.66037 2.68785C7.5046 2.51831 7.32057 2.36399 7.10974 2.22633C6.89818 2.08868 6.65765 1.9742 6.38667 1.88219C6.11571 1.7909 5.80634 1.74454 5.45713 1.74454C4.95288 1.74454 4.49789 1.8409 4.09434 2.03361C3.69079 2.22633 3.34809 2.48788 3.06843 2.81898C2.78877 3.14935 2.57286 3.53697 2.42144 3.98182C2.27003 4.42739 2.19395 4.8976 2.19395 5.39316C2.19395 5.9264 2.27726 6.41254 2.44173 6.85304C2.60764 7.29354 2.83877 7.67246 3.13726 7.98907C3.43576 8.30569 3.78642 8.55418 4.1907 8.73314C4.59496 8.9121 5.03982 9.00121 5.52669 9.00121C6.05847 9.00121 6.51057 8.9418 6.88296 8.82226C7.25464 8.70344 7.57343 8.53752 7.83932 8.3267V6.45384H5.88459V5.31057Z" fill="black"/>
<path d="M13.8823 0.794434H15.2046V8.80821H19.9827V9.9783H13.8823V0.794434Z" fill="black"/>
<path d="M28.826 6.30214L27.3393 2.26736L25.8382 6.30214H28.826ZM26.7054 0.794434H28.0558L31.6486 9.9783H30.1758L29.2259 7.41716H25.4527L24.5022 9.9783H23.1118L26.7054 0.794434Z" fill="black"/>
<path d="M35.7203 7.74718C35.8485 7.89426 35.9927 8.0435 36.1542 8.19492C36.3136 8.34635 36.4955 8.48184 36.6976 8.60138C36.8998 8.72092 37.1244 8.81727 37.3722 8.88973C37.6199 8.96362 37.8909 8.99985 38.1843 8.99985C38.7907 8.99985 39.2638 8.86292 39.6029 8.58688C39.9427 8.31158 40.1123 7.94063 40.1123 7.47186C40.1123 6.96688 39.9203 6.58797 39.5348 6.33584C39.1486 6.08371 38.5929 5.8794 37.8685 5.72291C37.4736 5.64032 37.1157 5.52584 36.794 5.37876C36.4723 5.23169 36.1949 5.04838 35.9608 4.82814C35.7268 4.60789 35.5457 4.35286 35.4167 4.06377C35.2885 3.7747 35.224 3.44577 35.224 3.07918C35.224 2.7401 35.2885 2.41843 35.4167 2.11558C35.5457 1.81273 35.7377 1.54611 35.9956 1.31717C36.2521 1.0875 36.5738 0.903476 36.9591 0.766543C37.3446 0.628162 37.7895 0.560059 38.2951 0.560059C38.7451 0.560059 39.1327 0.607876 39.4587 0.704236C39.784 0.800595 40.0622 0.917965 40.2919 1.0549C40.5209 1.19328 40.7049 1.33528 40.8426 1.48236C40.9802 1.62871 41.0852 1.74826 41.1591 1.84027L40.2781 2.65243C40.2231 2.58796 40.1405 2.50319 40.0296 2.39742C39.9203 2.29236 39.7804 2.18875 39.6102 2.08732C39.4399 1.98662 39.2428 1.90184 39.0182 1.83302C38.7929 1.76419 38.5336 1.72942 38.2401 1.72942C37.9459 1.72942 37.6939 1.76854 37.483 1.84679C37.2714 1.92504 37.0968 2.02647 36.9591 2.14964C36.8223 2.27352 36.7208 2.41407 36.6563 2.56984C36.5918 2.72561 36.56 2.88211 36.56 3.03787C36.56 3.26682 36.6086 3.46244 36.7041 3.62328C36.8005 3.78339 36.9411 3.92613 37.1244 4.04929C37.3077 4.17391 37.5352 4.27968 37.8061 4.36662C38.0771 4.45429 38.3872 4.53833 38.7357 4.62165C39.0755 4.70424 39.4081 4.81219 39.7341 4.94551C40.0594 5.0781 40.3513 5.25705 40.6085 5.48236C40.8658 5.70769 41.0701 5.98228 41.2215 6.3083C41.3729 6.63433 41.4483 7.03136 41.4483 7.4994C41.4483 7.89426 41.3656 8.25651 41.2004 8.58688C41.0353 8.91726 40.8078 9.20489 40.5187 9.44832C40.2296 9.69176 39.8876 9.8794 39.4928 10.0127C39.0979 10.146 38.6712 10.212 38.2119 10.212C37.7808 10.212 37.3888 10.1612 37.0346 10.0605C36.6817 9.95982 36.3607 9.83159 36.071 9.6751C35.7818 9.5186 35.529 9.34689 35.3131 9.15852C35.098 8.97015 34.9211 8.78467 34.7834 8.60138L35.7203 7.74718Z" fill="black"/>
<path d="M46.357 7.74718C46.4852 7.89426 46.6293 8.0435 46.791 8.19492C46.9503 8.34635 47.1322 8.48184 47.3344 8.60138C47.5365 8.72092 47.761 8.81727 48.0089 8.88973C48.2566 8.96362 48.5276 8.99985 48.8211 8.99985C49.4275 8.99985 49.9006 8.86292 50.2396 8.58688C50.5794 8.31158 50.7489 7.94063 50.7489 7.47186C50.7489 6.96688 50.5569 6.58797 50.1715 6.33584C49.7853 6.08371 49.2297 5.8794 48.5052 5.72291C48.1102 5.64032 47.7524 5.52584 47.4307 5.37876C47.109 5.23169 46.8315 5.04838 46.5975 4.82814C46.3635 4.60789 46.1824 4.35286 46.0534 4.06377C45.9251 3.7747 45.8607 3.44577 45.8607 3.07918C45.8607 2.7401 45.9251 2.41843 46.0534 2.11558C46.1824 1.81273 46.3743 1.54611 46.6323 1.31717C46.8888 1.0875 47.2105 0.903476 47.5959 0.766543C47.9814 0.628162 48.4261 0.560059 48.9319 0.560059C49.3817 0.560059 49.7694 0.607876 50.0954 0.704236C50.4207 0.800595 50.699 0.917965 50.9286 1.0549C51.1576 1.19328 51.3415 1.33528 51.4793 1.48236C51.6169 1.62871 51.7219 1.74826 51.7959 1.84027L50.9149 2.65243C50.8598 2.58796 50.7772 2.50319 50.6663 2.39742C50.5569 2.29236 50.4171 2.18875 50.2468 2.08732C50.0766 1.98662 49.8795 1.90184 49.655 1.83302C49.4296 1.76419 49.1703 1.72942 48.8768 1.72942C48.5826 1.72942 48.3306 1.76854 48.1197 1.84679C47.9081 1.92504 47.7335 2.02647 47.5959 2.14964C47.4589 2.27352 47.3576 2.41407 47.2931 2.56984C47.2286 2.72561 47.1967 2.88211 47.1967 3.03787C47.1967 3.26682 47.2452 3.46244 47.3408 3.62328C47.4372 3.78339 47.5778 3.92613 47.761 4.04929C47.9444 4.17391 48.1719 4.27968 48.4428 4.36662C48.7138 4.45429 49.0239 4.53833 49.3724 4.62165C49.7122 4.70424 50.0447 4.81219 50.3707 4.94551C50.696 5.0781 50.988 5.25705 51.2452 5.48236C51.5024 5.70769 51.7067 5.98228 51.8582 6.3083C52.0096 6.63433 52.0849 7.03136 52.0849 7.4994C52.0849 7.89426 52.0023 8.25651 51.8371 8.58688C51.672 8.91726 51.4445 9.20489 51.1553 9.44832C50.8663 9.69176 50.5244 9.8794 50.1295 10.0127C49.7346 10.146 49.3079 10.212 48.8486 10.212C48.4175 10.212 48.0255 10.1612 47.6712 10.0605C47.3184 9.95982 46.9974 9.83159 46.7076 9.6751C46.4186 9.5186 46.1657 9.34689 45.9498 9.15852C45.7346 8.97015 45.5578 8.78467 45.4202 8.60138L46.357 7.74718Z" fill="black"/>
<path d="M56.7192 0.794434H58.0415V4.63577H63.0674V0.794434H64.3896V9.9783H63.0674V5.81963H58.0415V9.9783H56.7192V0.794434Z" fill="black"/>
<path d="M73.5553 8.97304C74.0595 8.97304 74.5167 8.87669 74.9254 8.6847C75.3333 8.49125 75.6832 8.2297 75.9715 7.89932C76.2606 7.56895 76.4837 7.18569 76.6395 6.74953C76.796 6.31337 76.8736 5.85187 76.8736 5.36572C76.8736 4.86943 76.796 4.40357 76.6395 3.96815C76.4837 3.53199 76.2606 3.14872 75.9715 2.81835C75.6832 2.48797 75.3333 2.22787 74.9254 2.04023C74.5167 1.85186 74.0595 1.75768 73.5553 1.75768C73.0503 1.75768 72.596 1.85186 72.1917 2.04023C71.7883 2.22787 71.4412 2.48797 71.1529 2.81835C70.863 3.14872 70.6406 3.53199 70.4848 3.96815C70.3283 4.40357 70.2501 4.86943 70.2501 5.36572C70.2501 5.85187 70.3283 6.31337 70.4848 6.74953C70.6406 7.18569 70.863 7.56895 71.1529 7.89932C71.4412 8.2297 71.7883 8.49125 72.1917 8.6847C72.596 8.87669 73.0503 8.97304 73.5553 8.97304ZM73.5553 10.2127C72.8946 10.2127 72.2788 10.0859 71.71 9.83377C71.1405 9.58163 70.645 9.23677 70.2226 8.80134C69.8001 8.36519 69.4698 7.85296 69.2314 7.26611C68.9923 6.67853 68.8735 6.04966 68.8735 5.37949C68.8735 4.70932 68.9923 4.08261 69.2314 3.49939C69.4698 2.91688 69.798 2.40684 70.216 1.9714C70.6334 1.53597 71.129 1.1911 71.7027 0.938977C72.2766 0.686123 72.8946 0.560059 73.5553 0.560059C74.216 0.560059 74.8334 0.686123 75.4071 0.938977C75.981 1.1911 76.4786 1.53597 76.9011 1.9714C77.3235 2.40684 77.6538 2.91688 77.8922 3.49939C78.1313 4.08261 78.2501 4.70932 78.2501 5.37949C78.2501 6.04966 78.1313 6.67853 77.8922 7.26611C77.6538 7.85296 77.3235 8.36519 76.9011 8.80134C76.4786 9.23677 75.981 9.58163 75.4071 9.83377C74.8334 10.0859 74.216 10.2127 73.5553 10.2127Z" fill="black"/>
<path d="M82.6558 0.794434H83.9773V6.16449C83.9773 6.57746 84.0143 6.95565 84.0881 7.30051C84.1614 7.64465 84.2874 7.94098 84.4663 8.18877C84.6452 8.43582 84.8837 8.62709 85.1822 8.76041C85.4806 8.89298 85.8595 8.95964 86.3189 8.95964C86.7681 8.95964 87.1419 8.89298 87.4404 8.76041C87.7389 8.62709 87.978 8.43582 88.1569 8.18877C88.336 7.94098 88.462 7.64465 88.5352 7.30051C88.6091 6.95565 88.6461 6.57746 88.6461 6.16449V0.794434H89.9675V6.48109C89.9675 7.0042 89.8937 7.49324 89.7473 7.9475C89.6002 8.40177 89.377 8.79662 89.0792 9.13134C88.7807 9.46679 88.4026 9.73052 87.9432 9.92324C87.4839 10.1167 86.9427 10.213 86.3189 10.213C85.6937 10.213 85.1525 10.1167 84.6938 9.92324C84.2345 9.73052 83.8534 9.46679 83.5505 9.13134C83.2477 8.79662 83.0231 8.40177 82.876 7.9475C82.7297 7.49324 82.6558 7.0042 82.6558 6.48109V0.794434Z" fill="black"/>
<path d="M95.1402 7.74718C95.2684 7.89426 95.4126 8.0435 95.5742 8.19492C95.7335 8.34635 95.9154 8.48184 96.1175 8.60138C96.3197 8.72092 96.5443 8.81727 96.7921 8.88973C97.0398 8.96362 97.3108 8.99985 97.6043 8.99985C98.2107 8.99985 98.6837 8.86292 99.0228 8.58688C99.3626 8.31158 99.5322 7.94063 99.5322 7.47186C99.5322 6.96688 99.3402 6.58797 98.9547 6.33584C98.5685 6.08371 98.0129 5.8794 97.2884 5.72291C96.8936 5.64032 96.5356 5.52584 96.2139 5.37876C95.8922 5.23169 95.6148 5.04838 95.3807 4.82814C95.1467 4.60789 94.9656 4.35286 94.8366 4.06377C94.7084 3.7747 94.6439 3.44577 94.6439 3.07918C94.6439 2.7401 94.7084 2.41843 94.8366 2.11558C94.9656 1.81273 95.1576 1.54611 95.4155 1.31717C95.672 1.0875 95.9937 0.903476 96.3791 0.766543C96.7646 0.628162 97.2094 0.560059 97.7151 0.560059C98.165 0.560059 98.5526 0.607876 98.8786 0.704236C99.2039 0.800595 99.4822 0.917965 99.7118 1.0549C99.9408 1.19328 100.125 1.33528 100.262 1.48236C100.4 1.62871 100.505 1.74826 100.579 1.84027L99.6981 2.65243C99.643 2.58796 99.5604 2.50319 99.4495 2.39742C99.3402 2.29236 99.2003 2.18875 99.0301 2.08732C98.8598 1.98662 98.6627 1.90184 98.4382 1.83302C98.2128 1.76419 97.9535 1.72942 97.66 1.72942C97.3658 1.72942 97.1138 1.76854 96.9029 1.84679C96.6914 1.92504 96.5168 2.02647 96.3791 2.14964C96.2422 2.27352 96.1408 2.41407 96.0763 2.56984C96.0118 2.72561 95.9799 2.88211 95.9799 3.03787C95.9799 3.26682 96.0285 3.46244 96.124 3.62328C96.2204 3.78339 96.361 3.92613 96.5443 4.04929C96.7276 4.17391 96.9551 4.27968 97.226 4.36662C97.497 4.45429 97.8071 4.53833 98.1556 4.62165C98.4954 4.70424 98.828 4.81219 99.154 4.94551C99.4793 5.0781 99.7712 5.25705 100.029 5.48236C100.286 5.70769 100.49 5.98228 100.641 6.3083C100.793 6.63433 100.868 7.03136 100.868 7.4994C100.868 7.89426 100.786 8.25651 100.62 8.58688C100.455 8.91726 100.228 9.20489 99.9386 9.44832C99.6495 9.69176 99.3076 9.8794 98.9127 10.0127C98.5179 10.146 98.0911 10.212 97.6318 10.212C97.2007 10.212 96.8087 10.1612 96.4545 10.0605C96.1016 9.95982 95.7806 9.83159 95.4909 9.6751C95.2017 9.5186 94.9489 9.34689 94.733 9.15852C94.5179 8.97015 94.3411 8.78467 94.2034 8.60138L95.1402 7.74718Z" fill="black"/>
<path d="M105.516 0.794434H111.299V1.96451H106.838V4.63577H110.198V5.81963H106.838V8.79445H111.63V9.9783H105.516V0.794434Z" fill="black"/>
<path d="M24.533 18.8467H27.3433V19.5705H25.3545V20.6985H26.842V21.4281H25.3545V23.1959H24.533V18.8467Z" fill="black"/>
<path d="M32.0645 20.8028C32.2731 20.8028 32.4355 20.742 32.5507 20.6203C32.6651 20.4986 32.723 20.3508 32.723 20.1769C32.723 19.99 32.6622 19.8378 32.5405 19.7204C32.4187 19.603 32.2609 19.5444 32.0645 19.5444H31.4059V20.8028H32.0645ZM30.6169 18.8467H32.0579C32.3318 18.8467 32.5645 18.8873 32.7557 18.9706C32.947 19.0531 33.1012 19.1582 33.2186 19.2864C33.336 19.4146 33.4214 19.5545 33.4758 19.7066C33.5302 19.8595 33.5584 20.0044 33.5584 20.1442C33.5584 20.4181 33.4983 20.6609 33.378 20.871C33.2584 21.0825 33.0759 21.2506 32.8274 21.3767L33.8315 23.1959H32.9057L32.0254 21.481H31.4059V23.1959H30.6169V18.8467Z" fill="black"/>
<path d="M39.2394 21.4124L38.6656 19.7236L38.0853 21.4124H39.2394ZM38.2679 18.8433H39.1155L40.7645 23.1925H39.8523L39.4741 22.0905H37.857L37.4788 23.1925H36.6182L38.2679 18.8433Z" fill="black"/>
<path d="M46.0298 20.8922H47.5882V22.6912C47.4187 22.8527 47.194 22.9933 46.9166 23.115C46.6383 23.2367 46.2819 23.2976 45.8472 23.2976C45.4907 23.2976 45.1719 23.2396 44.8923 23.1223C44.6112 23.0049 44.3735 22.8448 44.1779 22.6426C43.9823 22.4412 43.8324 22.2029 43.7279 21.929C43.6236 21.6552 43.5715 21.3595 43.5715 21.0422C43.5715 20.7248 43.6258 20.4263 43.7345 20.1489C43.8425 19.8706 43.996 19.6272 44.1945 19.4186C44.3917 19.2099 44.6271 19.0447 44.9017 18.923C45.1755 18.8013 45.4776 18.7397 45.8081 18.7397C46.021 18.7397 46.2167 18.7636 46.3949 18.8086C46.5732 18.8542 46.7354 18.9157 46.8811 18.9948C47.0259 19.0722 47.1557 19.1649 47.2686 19.2722C47.3817 19.378 47.4817 19.4917 47.5686 19.6135L46.9882 20.1286C46.8491 19.9293 46.6869 19.7685 46.5021 19.6461C46.3173 19.5251 46.0862 19.4635 45.8081 19.4635C45.5943 19.4635 45.4038 19.5062 45.2342 19.5911C45.0647 19.6758 44.9205 19.7895 44.8009 19.93C44.6814 20.0713 44.5902 20.2373 44.5271 20.4256C44.4641 20.6147 44.4322 20.814 44.4322 21.0226C44.4322 21.2574 44.4706 21.4682 44.5459 21.6552C44.6227 21.842 44.7263 22.0029 44.8596 22.1377C44.9915 22.2724 45.1458 22.3753 45.3219 22.447C45.4987 22.5187 45.6834 22.5549 45.8797 22.5549C46.2797 22.5549 46.5883 22.4594 46.8057 22.2674V21.5899H46.0298V20.8922Z" fill="black"/>
<path d="M52.5102 20.8028C52.7189 20.8028 52.8812 20.742 52.9964 20.6203C53.1109 20.4986 53.1688 20.3508 53.1688 20.1769C53.1688 19.99 53.108 19.8378 52.9863 19.7204C52.8645 19.603 52.7065 19.5444 52.5102 19.5444H51.8517V20.8028H52.5102ZM51.0627 18.8467H52.5037C52.7776 18.8467 53.0101 18.8873 53.2015 18.9706C53.3927 19.0531 53.547 19.1582 53.6644 19.2864C53.7818 19.4146 53.8673 19.5545 53.9216 19.7066C53.9759 19.8595 54.0042 20.0044 54.0042 20.1442C54.0042 20.4181 53.944 20.6609 53.8238 20.871C53.7042 21.0825 53.5217 21.2506 53.2731 21.3767L54.2773 23.1959H53.3514L52.4711 21.481H51.8517V23.1959H51.0627V18.8467Z" fill="black"/>
<path d="M59.6852 21.4124L59.1115 19.7236L58.5311 21.4124H59.6852ZM58.7137 18.8433H59.5613L61.2104 23.1925H60.2982L59.92 22.0905H58.3029L57.9247 23.1925H57.064L58.7137 18.8433Z" fill="black"/>
<path d="M64.3071 18.8467H65.1359L67.2414 21.9374V18.8467H68.0434V23.1959H67.2348L65.1092 20.066V23.1959H64.3071V18.8467Z" fill="black"/>
<path d="M75.3953 22.3985C75.3301 22.4985 75.2395 22.5999 75.1243 22.705C75.0099 22.8086 74.8736 22.9056 74.7164 22.9948C74.5607 23.0839 74.3882 23.157 74.202 23.2135C74.0151 23.2693 73.8173 23.2976 73.6086 23.2976C73.2826 23.2976 72.9848 23.2417 72.7153 23.1288C72.4458 23.0157 72.2132 22.8578 72.0176 22.6557C71.822 22.4536 71.6691 22.2159 71.5612 21.942C71.4525 21.6674 71.3982 21.3682 71.3982 21.0422C71.3982 20.7241 71.4525 20.4263 71.5612 20.1489C71.6691 19.8706 71.8227 19.6272 72.0212 19.4186C72.2183 19.2099 72.4538 19.0447 72.7284 18.923C73.0022 18.8013 73.3043 18.7397 73.6347 18.7397C73.8477 18.7397 74.0433 18.7628 74.2216 18.8086C74.3998 18.8542 74.562 18.9157 74.7078 18.9948C74.8527 19.0722 74.9823 19.1649 75.0953 19.2722C75.2084 19.378 75.3084 19.4917 75.3953 19.6135L74.8149 20.1286C74.6758 19.9293 74.5136 19.7685 74.3289 19.6461C74.144 19.5251 73.913 19.4635 73.6347 19.4635C73.421 19.4635 73.2305 19.5062 73.0609 19.5911C72.8914 19.6758 72.7472 19.7887 72.6276 19.93C72.5081 20.0713 72.4168 20.2373 72.3538 20.4256C72.2908 20.6147 72.2588 20.8133 72.2588 21.0226C72.2588 21.2313 72.2908 21.4262 72.3538 21.6094C72.4168 21.792 72.5067 21.9507 72.6241 22.0848C72.7414 22.2203 72.8813 22.3261 73.045 22.405C73.2073 22.4825 73.3905 22.5224 73.5956 22.5224C73.7818 22.5224 73.9419 22.5007 74.0752 22.4571C74.2071 22.4136 74.3208 22.3586 74.4143 22.2934C74.507 22.2289 74.586 22.1601 74.6491 22.0884C74.7121 22.0173 74.7693 21.9551 74.8215 21.9022L75.3953 22.3985Z" fill="black"/>
<path d="M78.6135 18.8467H81.4304V19.5705H79.4351V20.5942H80.9023V21.3245H79.4351V22.459H81.5805V23.1959H78.6135V18.8467Z" fill="black"/>
<path d="M85.2439 21.9668C85.2953 22.0285 85.3577 22.0922 85.4295 22.1595C85.5011 22.227 85.5815 22.29 85.6707 22.3487C85.7598 22.4066 85.8606 22.4566 85.9707 22.495C86.0815 22.5341 86.2068 22.5544 86.3459 22.5544C86.6024 22.5544 86.793 22.495 86.9168 22.3777C87.04 22.2603 87.1016 22.1197 87.1016 21.9538C87.1016 21.8625 87.085 21.7814 87.0502 21.7096C87.0147 21.6378 86.956 21.5748 86.8741 21.5206C86.7915 21.4662 86.6835 21.4169 86.5517 21.3742C86.4184 21.33 86.2546 21.2886 86.0591 21.2503C85.8591 21.2105 85.686 21.1496 85.5402 21.0677C85.3946 20.9851 85.2744 20.8873 85.1787 20.7743C85.0824 20.6605 85.0114 20.5352 84.9628 20.399C84.9158 20.2614 84.8919 20.1216 84.8919 19.9788C84.8919 19.8128 84.9222 19.6556 84.9831 19.5057C85.0439 19.3557 85.1375 19.2232 85.2628 19.1079C85.3888 18.9927 85.5468 18.9007 85.7366 18.8304C85.9249 18.7609 86.1481 18.7261 86.4046 18.7261C86.635 18.7261 86.8321 18.7522 86.9979 18.8051C87.1624 18.8565 87.3009 18.9174 87.4117 18.9877C87.5232 19.0565 87.6088 19.1253 87.6696 19.1927C87.7305 19.26 87.7739 19.3086 87.7993 19.3391L87.2581 19.8476C87.237 19.8309 87.2022 19.7991 87.1545 19.7535C87.1059 19.7079 87.0465 19.6629 86.9755 19.6201C86.9031 19.5759 86.8175 19.5369 86.7176 19.5028C86.6176 19.468 86.5038 19.4499 86.3778 19.4499C86.2648 19.4499 86.167 19.4658 86.0851 19.4963C86.0025 19.5266 85.9337 19.5658 85.8793 19.6129C85.825 19.6608 85.7852 19.7143 85.7591 19.773C85.7331 19.8317 85.7192 19.8868 85.7192 19.9389C85.7192 20.0179 85.7337 20.0868 85.7619 20.1476C85.7903 20.2085 85.838 20.265 85.9054 20.3179C85.9728 20.3693 86.0655 20.4164 86.1829 20.4577C86.3003 20.499 86.4474 20.5366 86.6255 20.5714C86.7958 20.6062 86.9588 20.6583 87.1153 20.728C87.2719 20.7981 87.4095 20.888 87.5291 20.9989C87.6486 21.109 87.7443 21.2445 87.8159 21.4032C87.8877 21.5619 87.9232 21.7516 87.9232 21.9741C87.9232 22.1646 87.8847 22.3414 87.8065 22.5015C87.7283 22.6624 87.6189 22.8037 87.4805 22.9254C87.3414 23.0471 87.1762 23.142 86.9842 23.2094C86.7937 23.2768 86.585 23.3101 86.359 23.3101C86.1408 23.3101 85.9445 23.284 85.7692 23.2318C85.5925 23.1804 85.4338 23.1138 85.2925 23.0333C85.1512 22.9529 85.0295 22.8645 84.9274 22.7689C84.8252 22.674 84.7397 22.5827 84.6702 22.495L85.2439 21.9668Z" fill="black"/>
</g>
<defs>
<clipPath id="clip0_1_3404">
<rect width="111.475" height="22.75" fill="white" transform="translate(0.817383 0.560059)"/>
</clipPath>
</defs>
</svg>
