<svg width="98" height="18" viewBox="0 0 98 18" fill="none" xmlns="http://www.w3.org/2000/svg">
<g clip-path="url(#clip0_1_3360)">
<path d="M1.1145 8.80677C1.11532 11.355 2.02439 13.4162 3.81561 14.9333C5.43472 16.3038 7.44781 16.9991 9.79856 16.9991C11.069 16.9991 12.4088 16.7634 13.7803 16.2993C15.6189 15.6759 15.9953 15.3028 15.9953 14.9358V10.3329C15.9953 9.67731 16.1234 9.23347 16.3705 9.04535C16.4513 8.98072 16.6886 8.86605 17.3705 8.82101L17.6348 8.80388V7.82406H11.0862V8.80473L11.3512 8.82135C12.3944 8.88598 12.7457 9.0652 12.8623 9.16647C12.9479 9.24162 13.149 9.53465 13.149 10.6417V14.3681C13.149 14.5465 13.1086 14.6757 13.029 14.7529C12.9809 14.7988 12.7942 14.9313 12.0939 15.1606C11.7664 15.269 11.4173 15.3495 11.0551 15.3995C10.6889 15.4511 10.3667 15.4768 10.0967 15.4768C8.51267 15.4768 7.16274 14.8952 6.08563 13.7499C5.00323 12.599 4.45388 10.9648 4.45388 8.89413C4.45388 6.37277 5.00323 4.54718 6.08523 3.46857C7.16682 2.39037 8.43518 1.84375 9.85607 1.84375C11.2705 1.84375 12.3843 2.29323 13.2583 3.21416C13.7461 3.74412 14.2298 4.56995 14.6959 5.66887L14.7693 5.84119H15.7885L15.5842 0.354667H14.6053L14.5336 0.530235C14.4499 0.733847 14.3525 0.888278 14.2432 0.988666C14.1942 1.03337 14.0609 1.10815 13.7191 1.10815C13.6775 1.10734 13.45 1.07564 12.2832 0.742788C11.3827 0.484718 10.4544 0.354667 9.52291 0.354667C6.93598 0.354667 4.82868 1.25121 3.26013 3.01909C1.83719 4.61668 1.11532 6.56134 1.1145 8.79744V8.80677ZM37.3794 14.3514C37.8969 13.4077 38.1588 12.0902 38.1588 10.4357V4.34804C38.1588 2.83661 38.3806 2.34079 38.5128 2.18066C38.6702 1.98925 39.0752 1.73767 40.1071 1.62469L40.3595 1.59787V0.628587H34.361V1.60031L34.6163 1.6251C35.3867 1.7011 35.9275 1.88155 36.18 2.14896C36.3231 2.30015 36.5617 2.78662 36.5617 4.34845V10.4361C36.5617 11.8768 36.3868 12.9476 36.0425 13.6195C35.432 14.8074 34.2513 15.3849 32.4319 15.3849C30.7831 15.3849 29.6998 14.8228 29.1216 13.6694C28.8059 13.0269 28.646 12.1043 28.646 10.927V3.44581C28.646 2.43182 28.8381 2.10791 28.9535 2.0055C29.0758 1.89536 29.4445 1.70029 30.5367 1.62591L30.8006 1.60763V0.628587H23.5761V1.60559L23.8372 1.62551C24.9086 1.70801 25.2719 1.90512 25.3931 2.01525C25.506 2.11807 25.6965 2.44076 25.6965 3.44581V10.7555C25.6965 12.2446 25.9592 13.4675 26.4767 14.3871C27.4429 16.1197 29.2696 16.9988 31.905 16.9988C34.5715 16.9988 36.4133 16.1079 37.3794 14.3514ZM60.7053 12.1523H59.5014L59.4255 12.3189C58.8542 13.5809 58.2134 14.3815 57.5233 14.6969C56.8072 15.0244 55.6619 15.191 54.1179 15.191C52.3275 15.191 51.7328 15.1284 51.549 15.076C51.4906 15.059 51.3128 15.0082 51.3128 14.5245V9.01567H54.6518C55.8414 9.01567 56.2244 9.23508 56.3479 9.36638C56.5107 9.53949 56.7477 9.96823 56.9523 11.0257L56.9964 11.2541H58.0633V5.28847H56.9948L56.9523 5.51891C56.757 6.56988 56.5209 6.99904 56.3581 7.17421C56.2354 7.3067 55.8504 7.52697 54.6514 7.52697H51.3124V2.58992C51.3124 2.23553 51.372 2.14286 51.3703 2.14286C51.3703 2.14286 51.451 2.08353 51.7879 2.08353H54.9833C56.609 2.08353 57.2337 2.29974 57.4703 2.48019C57.7036 2.6582 58.0295 3.12028 58.2595 4.31025L58.3031 4.53865H59.4222L59.3284 0.628587H46.2996V1.60722L46.5623 1.62551C47.6076 1.69907 47.953 1.90146 48.066 2.01647C48.1765 2.12823 48.3633 2.46352 48.3633 3.44581V13.8503C48.3633 14.9216 48.1646 15.2048 48.0791 15.2768C47.9608 15.3768 47.6044 15.5612 46.5529 15.6723L46.3001 15.6982V16.6679H59.4875L60.7053 12.1523ZM76.4384 0.51276C76.3874 0.721654 76.3193 0.881374 76.2354 0.985418C76.1835 1.04882 76.0445 1.08539 75.8626 1.08539C75.8234 1.08214 75.6236 1.04475 74.6582 0.707836C73.8805 0.436355 73.2002 0.298176 72.6362 0.29777H72.6276C71.2597 0.298582 70.1414 0.72206 69.3046 1.55682C68.4661 2.3924 68.0411 3.45069 68.0411 4.70243C68.0411 5.66074 68.4008 6.54631 69.1133 7.33759C69.4873 7.74278 69.9917 8.14634 70.6141 8.53934L72.6153 9.78376C73.7447 10.4856 74.4894 11.0136 74.8275 11.3517C75.3287 11.8658 75.571 12.4518 75.571 13.1431C75.571 13.9096 75.3356 14.4863 74.8503 14.9054C74.3531 15.3361 73.7785 15.545 73.095 15.545C71.7895 15.545 70.7258 15.0431 69.8433 14.0112C69.3331 13.4138 68.8796 12.5965 68.4966 11.5821L68.4273 11.3992H67.3677L68.1455 16.9431H69.1492L69.1867 16.7053C69.2119 16.5472 69.2629 16.4025 69.3429 16.2632C69.384 16.1908 69.4873 16.1542 69.6463 16.1534C69.6867 16.1575 69.8955 16.1957 70.9179 16.5497C71.7353 16.8337 72.5314 16.9772 73.2871 16.9772C74.7949 16.9772 76.0559 16.5379 77.0326 15.6718C78.0201 14.7976 78.5209 13.693 78.5209 12.3889C78.5209 11.4163 78.2374 10.5588 77.6766 9.83745C77.1293 9.15264 76.1856 8.39791 74.8736 7.59241L72.8111 6.3236C72.0709 5.87004 71.52 5.43275 71.1729 5.02105C70.8491 4.6439 70.692 4.1997 70.692 3.66243C70.692 3.07801 70.891 2.63625 71.3013 2.31315C71.7304 1.9738 72.2231 1.80921 72.8046 1.80921C73.5669 1.80921 74.3548 2.09125 75.1451 2.64763C75.9287 3.19913 76.511 4.20173 76.874 5.62783L76.9275 5.84038H78.0233L77.4498 0.297363H76.4907L76.4384 0.51276ZM92.6884 7.59241L90.6274 6.32319C89.8853 5.87004 89.3348 5.43194 88.9879 5.02105C88.6639 4.6439 88.5062 4.1997 88.5062 3.66243C88.5062 3.07761 88.7055 2.63625 89.116 2.31315C89.5443 1.9738 90.0371 1.8088 90.6198 1.8088C91.3814 1.8088 92.1694 2.09125 92.9607 2.64763C93.7444 3.19913 94.3254 4.20173 94.6893 5.62783L94.7427 5.84038H95.8385L95.2643 0.297363H94.3059L94.2533 0.512354C94.2024 0.721654 94.1337 0.88056 94.0497 0.985011C93.998 1.04882 93.8589 1.08539 93.6766 1.08539C93.6384 1.08214 93.4391 1.04475 92.4722 0.70743C91.6927 0.435135 91.0125 0.297363 90.4476 0.297363C89.077 0.297363 87.9574 0.720842 87.1186 1.55641C86.2806 2.39199 85.8557 3.45069 85.8557 4.70202C85.8557 5.66034 86.2153 6.5459 86.9278 7.33718C87.3018 7.74196 87.8064 8.14552 88.4281 8.53892L90.4298 9.78333C91.5587 10.4848 92.3042 11.0132 92.6426 11.3509C93.1431 11.8654 93.3865 12.451 93.3865 13.142C93.3865 13.9088 93.1507 14.4855 92.6647 14.9041C92.1677 15.3353 91.5943 15.5442 90.9099 15.5442C89.6045 15.5442 88.5401 15.0423 87.658 14.01C87.1474 13.413 86.6937 12.5961 86.3103 11.5809L86.2424 11.3981H85.1821L85.96 16.9419H86.9634L87.0015 16.7041C87.027 16.546 87.0779 16.4013 87.1568 16.2619C87.1983 16.1892 87.3026 16.153 87.4604 16.1522C87.5003 16.1562 87.7106 16.1945 88.7326 16.5484C89.5494 16.8325 90.3458 16.976 91.1007 16.976C92.6096 16.976 93.8708 16.5366 94.847 15.6706C95.8343 14.7964 96.3355 13.6914 96.3355 12.3876C96.3355 11.4151 96.0514 10.5575 95.4908 9.8366C94.9445 9.15298 94.0014 8.3975 92.6884 7.59241Z" fill="black"/>
</g>
<defs>
<clipPath id="clip0_1_3360">
<rect width="96.69" height="17.8113" fill="white" transform="translate(0.380005 0.0292969)"/>
</clipPath>
</defs>
</svg>
