<svg width="21" height="21" viewBox="0 0 21 21" fill="none" xmlns="http://www.w3.org/2000/svg">
<g clip-path="url(#clip0_1_3202)">
<g clip-path="url(#clip1_1_3202)">
<path d="M10.3899 2.11006C13.0599 2.11006 13.3899 2.11006 14.3899 2.17006C15.0249 2.17517 15.6542 2.2902 16.2499 2.51006C16.6857 2.68681 17.0755 2.96038 17.3899 3.31006C17.7347 3.61298 18.0079 3.98869 18.1899 4.41006C18.4141 5.01845 18.5292 5.66165 18.5299 6.31006C18.5299 7.36006 18.5899 7.68006 18.5899 10.3101C18.5899 12.9401 18.5899 13.3101 18.5299 14.3101C18.5246 14.945 18.4096 15.5743 18.1899 16.1701C18.0236 16.602 17.7686 16.9943 17.4414 17.3215C17.1141 17.6488 16.7218 17.9038 16.2899 18.0701C15.6941 18.2897 15.0649 18.4047 14.4299 18.4101C13.3799 18.4101 13.0599 18.4701 10.4299 18.4701C7.79989 18.4701 7.42989 18.4701 6.42989 18.4101C5.77048 18.427 5.11339 18.3254 4.48989 18.1101C4.06852 17.9281 3.69282 17.6549 3.38989 17.3101C3.04508 17.0071 2.77184 16.6314 2.58989 16.2101C2.36544 15.6017 2.25034 14.9585 2.24989 14.3101C2.24989 13.2601 2.18989 12.9401 2.18989 10.3101C2.18989 7.68006 2.18989 7.31006 2.24989 6.31006C2.25034 5.66163 2.36544 5.0184 2.58989 4.41006C2.77184 3.98869 3.04508 3.61298 3.38989 3.31006C3.69282 2.96525 4.06852 2.69201 4.48989 2.51006C5.09823 2.28561 5.74147 2.17051 6.38989 2.17006C7.43989 2.17006 7.75989 2.11006 10.3899 2.11006ZM10.3899 0.310059C7.66989 0.310059 7.32989 0.310059 6.26989 0.370059C5.43919 0.388623 4.61761 0.54753 3.83989 0.840059C3.17335 1.09025 2.56934 1.48269 2.06989 1.99006C1.56252 2.48951 1.17009 3.09352 0.919893 3.76006C0.627364 4.53777 0.468457 5.35936 0.449893 6.19006C0.389893 7.25006 0.389893 7.59006 0.389893 10.3101C0.389893 13.0301 0.389893 13.3701 0.449893 14.4301C0.468649 15.2607 0.627549 16.0823 0.919893 16.8601C1.17009 17.5266 1.56252 18.1306 2.06989 18.6301C2.56914 19.1377 3.17321 19.5302 3.83989 19.7801C4.61761 20.0726 5.43919 20.2315 6.26989 20.2501C7.32989 20.3101 7.66989 20.3101 10.3899 20.3101C13.1099 20.3101 13.4499 20.3101 14.5099 20.2501C15.3406 20.2313 16.1621 20.0724 16.9399 19.7801C17.6027 19.5228 18.2046 19.1302 18.7073 18.6275C19.2101 18.1248 19.6026 17.5228 19.8599 16.8601C20.1522 16.0823 20.3111 15.2607 20.3299 14.4301C20.3299 13.3601 20.3899 13.0201 20.3899 10.3101C20.3899 7.60006 20.3899 7.25006 20.3299 6.19006C20.3113 5.35936 20.1524 4.53777 19.8599 3.76006C19.61 3.09337 19.2175 2.4893 18.7099 1.99006C18.2104 1.48269 17.6064 1.09025 16.9399 0.840059C16.1621 0.547715 15.3406 0.388815 14.5099 0.370059C13.4499 0.310059 13.1099 0.310059 10.3899 0.310059Z" fill="#000D42"/>
<path d="M10.39 5.16992C9.37341 5.16992 8.37964 5.47138 7.53437 6.03617C6.6891 6.60096 6.0303 7.40372 5.64126 8.34293C5.25223 9.28214 5.15044 10.3156 5.34877 11.3127C5.54709 12.3097 6.03663 13.2256 6.75547 13.9445C7.47432 14.6633 8.39018 15.1528 9.38724 15.3512C10.3843 15.5495 11.4178 15.4477 12.357 15.0587C13.2962 14.6696 14.099 14.0108 14.6638 13.1656C15.2285 12.3203 15.53 11.3265 15.53 10.3099C15.53 9.63493 15.3971 8.96654 15.1387 8.34293C14.8804 7.71932 14.5018 7.15269 14.0245 6.67539C13.5472 6.1981 12.9806 5.81949 12.357 5.56118C11.7334 5.30287 11.065 5.16992 10.39 5.16992ZM10.39 13.6399C9.73139 13.6399 9.08757 13.4446 8.53995 13.0787C7.99234 12.7128 7.56552 12.1927 7.31348 11.5843C7.06144 10.9758 6.9955 10.3062 7.12399 9.66027C7.25248 9.01431 7.56963 8.42096 8.03534 7.95526C8.50105 7.48955 9.09439 7.1724 9.74035 7.04391C10.3863 6.91542 11.0559 6.98136 11.6643 7.2334C12.2728 7.48544 12.7929 7.91226 13.1588 8.45987C13.5247 9.00749 13.72 9.65131 13.72 10.3099C13.7174 11.1923 13.3657 12.0377 12.7418 12.6617C12.1178 13.2856 11.2724 13.6373 10.39 13.6399Z" fill="#000D42"/>
<path d="M15.7298 6.17002C16.3925 6.17002 16.9298 5.63276 16.9298 4.97002C16.9298 4.30728 16.3925 3.77002 15.7298 3.77002C15.067 3.77002 14.5298 4.30728 14.5298 4.97002C14.5298 5.63276 15.067 6.17002 15.7298 6.17002Z" fill="#000D42"/>
</g>
</g>
<defs>
<clipPath id="clip0_1_3202">
<rect width="20" height="20" fill="white" transform="translate(0.389893 0.310059)"/>
</clipPath>
<clipPath id="clip1_1_3202">
<rect width="20" height="20" fill="white" transform="translate(0.389893 0.310059)"/>
</clipPath>
</defs>
</svg>
