<svg width="22" height="23" viewBox="0 0 22 23" fill="none" xmlns="http://www.w3.org/2000/svg">
<g clip-path="url(#clip0_1_1764)">
<g clip-path="url(#clip1_1_1764)">
<path d="M13.1112 20.7569L3.69841 20.7782L4.69045 5.51271H7.02707C7.02707 5.51271 6.88378 8.99564 7.71043 8.99564C8.53708 8.99564 8.3938 5.47961 8.3938 5.47961H13.6513C13.6513 5.47961 13.497 8.99564 14.3237 8.99564C15.1503 8.99564 15.007 5.47961 15.007 5.47961H17.3437L17.6405 10.0979H18.9756L18.6223 4.7742C18.6138 4.59875 18.5381 4.4333 18.4108 4.3122C18.2836 4.19111 18.1146 4.12367 17.9389 4.12389H14.9629V3.67202C14.9748 2.76453 14.6286 1.8889 13.9994 1.23488C13.3701 0.58087 12.5085 0.201161 11.6012 0.17804H10.4329C9.51799 0.189676 8.64519 0.564265 8.00648 1.21941C7.36777 1.87455 7.01547 2.75657 7.02707 3.67146V4.12393H4.05111C3.87546 4.12372 3.70647 4.19117 3.57923 4.31226C3.45198 4.43335 3.37625 4.59879 3.36775 4.77424L2.26555 21.4396C2.26045 21.5341 2.27442 21.6286 2.30662 21.7176C2.33882 21.8066 2.38859 21.8882 2.45298 21.9576C2.5158 22.0268 2.59235 22.0821 2.67775 22.1201C2.76315 22.158 2.85553 22.1778 2.94898 22.178H13.1112L13.1112 20.7569ZM8.38278 3.67202C8.37984 3.12435 8.59383 2.59778 8.97799 2.20743C9.36215 1.81707 9.88522 1.59468 10.4329 1.58887H11.6012C11.8719 1.59174 12.1393 1.6479 12.3883 1.75414C12.6372 1.86037 12.8628 2.0146 13.0521 2.20802C13.2415 2.40144 13.3909 2.63026 13.4918 2.88141C13.5927 3.13257 13.6432 3.40114 13.6403 3.67179V4.12389H8.38278V3.67202Z" fill="#404040"/>
<path d="M20.2562 15.6H17.5062V12.85C17.5062 12.7041 17.4483 12.5642 17.3451 12.4611C17.242 12.3579 17.1021 12.3 16.9562 12.3H15.8562C15.7104 12.3 15.5705 12.3579 15.4673 12.4611C15.3642 12.5642 15.3062 12.7041 15.3062 12.85V15.6H12.5562C12.4104 15.6 12.2705 15.6579 12.1673 15.7611C12.0642 15.8642 12.0062 16.0041 12.0062 16.15V17.25C12.0062 17.3959 12.0642 17.5358 12.1673 17.6389C12.2705 17.742 12.4104 17.8 12.5562 17.8H15.3062V20.55C15.3062 20.6959 15.3642 20.8358 15.4673 20.9389C15.5705 21.042 15.7104 21.1 15.8562 21.1H16.9562C17.1021 21.1 17.242 21.042 17.3451 20.9389C17.4483 20.8358 17.5062 20.6959 17.5062 20.55V17.8H20.2562C20.4021 17.8 20.542 17.742 20.6451 17.6389C20.7483 17.5358 20.8062 17.3959 20.8062 17.25V16.15C20.8062 16.0041 20.7483 15.8642 20.6451 15.7611C20.542 15.6579 20.4021 15.6 20.2562 15.6Z" fill="#404040"/>
</g>
</g>
<defs>
<clipPath id="clip0_1_1764">
<rect width="22" height="22" fill="white" transform="translate(0 0.200012)"/>
</clipPath>
<clipPath id="clip1_1_1764">
<rect width="22" height="22" fill="white" transform="translate(0 0.200012)"/>
</clipPath>
</defs>
</svg>
