<svg width="21" height="21" viewBox="0 0 21 21" fill="none" xmlns="http://www.w3.org/2000/svg">
<g clip-path="url(#clip0_1_3211)">
<g clip-path="url(#clip1_1_3211)">
<path d="M16.2271 4.32075C15.1485 3.61946 14.3737 2.49406 14.1299 1.185C14.0765 0.897803 14.0464 0.607271 14.0464 0.310059H10.6068L10.6001 14.092C10.5433 15.6349 9.27101 16.8738 7.71482 16.8738C7.2306 16.8738 6.77643 16.7536 6.3757 16.5432C5.45401 16.059 4.82619 15.0939 4.82619 13.9852C4.82619 12.3923 6.1219 11.0932 7.71816 11.0932C8.01537 11.0932 8.30256 11.1433 8.56972 11.2268V8.5318V7.71697C8.28921 7.68024 8.00535 7.65352 7.71816 7.65352C4.22843 7.65352 1.38989 10.4921 1.38989 13.9818C1.38989 16.1224 2.45852 18.0192 4.09151 19.1647C5.12006 19.886 6.36902 20.3101 7.71816 20.3101C11.2079 20.3101 14.0464 17.4716 14.0464 13.9818V6.99231C15.3956 7.96075 17.0486 8.5318 18.8319 8.5318V5.86024V5.0955C17.8701 5.09216 16.9751 4.80831 16.2271 4.32075Z" fill="#000D42"/>
</g>
</g>
<defs>
<clipPath id="clip0_1_3211">
<rect width="20" height="20" fill="white" transform="translate(0.389893 0.310059)"/>
</clipPath>
<clipPath id="clip1_1_3211">
<rect width="20" height="20" fill="white" transform="translate(0.389893 0.310059)"/>
</clipPath>
</defs>
</svg>
