<svg width="68" height="12" viewBox="0 0 68 12" fill="none" xmlns="http://www.w3.org/2000/svg">
<g clip-path="url(#clip0_1_3455)">
<g clip-path="url(#clip1_1_3455)">
<path d="M47.2175 2.38025H46.2432C44.2767 2.38025 42.8405 2.8415 42.8405 4.87662V6.27837C42.8405 8.29606 44.2767 8.77475 46.2432 8.77475H47.2175C48.1581 8.77475 48.9782 8.63806 49.5773 8.29606V8.77475H50.6202V4.87662C50.6202 2.84206 49.1841 2.38025 47.2175 2.38025ZM49.5773 6.21031C49.5773 7.64637 48.7391 7.92031 47.5252 7.92031H45.9181C44.7216 7.92031 43.8666 7.64637 43.8666 6.21031V4.92781C43.8666 3.49175 44.7047 3.21781 45.9181 3.21781H47.5252C48.7223 3.21781 49.5773 3.49175 49.5773 4.92781V6.21031ZM38.6177 2.36337H38.4804C37.2153 2.36337 36.2067 2.55125 35.6251 3.21837C35.044 2.55125 34.0011 2.36337 32.736 2.36337H32.7191C31.7611 2.36337 30.9573 2.58556 30.3762 3.02993V2.41456H29.4013V8.72356H30.4448V4.91093C30.4448 3.47487 31.2824 3.20093 32.4963 3.20093H33.0605C34.2576 3.20093 35.1121 3.47487 35.1121 4.91093V8.70612H36.1555V4.91093C36.1555 3.47487 36.9931 3.20093 38.2071 3.20093H38.9423C40.1562 3.20093 40.9938 3.47487 40.9938 4.91093V8.70612H42.0378V4.84231C42.0209 2.82462 40.5843 2.36337 38.6177 2.36337ZM13.2609 2.38025H12.15C10.1834 2.38025 8.74726 2.8415 8.74726 4.87662V6.22719C8.74726 8.24487 10.1834 8.72356 12.15 8.72356H13.2615C15.2275 8.72356 16.6636 8.24487 16.6636 6.22719V4.87662C16.6636 2.84206 15.2275 2.38025 13.2609 2.38025ZM15.6207 6.15912C15.6207 7.59518 14.7826 7.86912 13.5692 7.86912H11.8423C10.6283 7.86912 9.79018 7.59518 9.79018 6.15912V4.92781C9.79018 3.49175 10.6283 3.21781 11.8423 3.21781H13.5692C14.7831 3.21781 15.6207 3.49175 15.6207 4.92781V6.15912ZM4.6268 2.38025H3.51526C1.56612 2.38025 0.130005 2.8415 0.130005 4.85975V11.63H1.17292V8.22743C1.77144 8.56943 2.59216 8.70612 3.53269 8.70612H4.64367C6.61025 8.70612 8.04636 8.228 8.04636 6.21031V4.85975C8.02949 2.84206 6.59337 2.38025 4.6268 2.38025ZM7.00345 6.15912C7.00345 7.59518 6.16529 7.86912 4.95137 7.86912H3.20756C1.99364 7.86912 1.15604 7.59518 1.15604 6.15912V4.92781C1.15604 3.49175 1.9942 3.21781 3.20756 3.21781H4.9345C6.13154 3.21781 6.98601 3.49175 6.98601 4.92781V6.15912H7.00345ZM55.5957 2.38025H54.8774C53.9031 2.38025 53.0649 2.60243 52.4495 3.08112V2.5175H51.4752V8.68981H52.5182V4.92781C52.5182 3.49175 53.3557 3.21781 54.5697 3.21781H55.9203C57.1342 3.21781 57.9724 3.49175 57.9724 4.92781V8.67237H59.0153V4.87662C58.9978 2.84206 57.5623 2.38025 55.5957 2.38025ZM64.5207 5.09937H61.7851C60.7591 5.09937 60.5881 4.808 60.5881 4.31187V4.09025C60.5881 3.38937 60.8958 3.25212 62.2981 3.25212H64.1443C64.9482 3.25212 65.4955 3.269 65.7003 3.66275L66.5896 3.21837C66.35 2.72225 65.7346 2.39712 64.1961 2.39712H62.5547C60.1268 2.39712 59.5795 2.94443 59.5795 3.95356V4.31243C59.5795 5.47512 60.0925 5.95381 61.4774 5.95381H64.6405C65.8201 5.95381 65.9742 6.27837 65.9742 6.87687V6.92806C65.9742 7.85168 65.5124 7.90287 64.0251 7.90287H61.7851C61.1866 7.90287 60.7934 7.78306 60.5881 7.52656L59.6993 7.93718C60.1437 8.74043 61.1866 8.74043 62.2981 8.74043H64.2298C65.4269 8.74043 66.9485 8.67237 66.9485 6.96293V6.9455C66.9997 5.25237 66.008 5.09881 64.5207 5.09881V5.09937ZM20.9551 2.36337C20.0151 2.36337 19.1944 2.48318 18.5959 2.80775V2.36337H17.553V8.68925H18.5784V4.92781C18.5784 3.49175 19.4166 3.21781 20.6305 3.21781C20.6305 3.21781 22.169 3.23525 22.3743 3.62843L23.2294 3.18406C22.9217 2.41456 20.9551 2.36337 20.9551 2.36337ZM27.7262 7.886C28.1368 7.886 28.6836 7.81737 28.6836 7.81737V8.70612C28.6667 8.70612 28.3247 8.77475 27.8972 8.77475C27.333 8.77475 24.5457 8.86025 24.5457 6.689V3.25212L24.5288 3.21837H23.7761V2.38025H24.5288V0.379997H25.606V2.38025H28.2904V3.21837H25.606V6.39818C25.606 7.373 26.0842 7.886 27.7262 7.886Z" fill="black"/>
</g>
</g>
<defs>
<clipPath id="clip0_1_3455">
<rect width="66.94" height="11.25" fill="white" transform="translate(0.130005 0.379997)"/>
</clipPath>
<clipPath id="clip1_1_3455">
<rect width="66.94" height="11.25" fill="white" transform="translate(0.130005 0.379997)"/>
</clipPath>
</defs>
</svg>
