<svg width="20" height="20" viewBox="0 0 20 20" fill="none" xmlns="http://www.w3.org/2000/svg">
<g clip-path="url(#clip0_1_3503)">
<g clip-path="url(#clip1_1_3503)">
<path d="M10 5C10.7956 5 11.5587 5.31607 12.1213 5.87868C12.6839 6.44129 13 7.20435 13 8C13 8.79565 12.6839 9.55871 12.1213 10.1213C11.5587 10.6839 10.7956 11 10 11C9.20435 11 8.44129 10.6839 7.87868 10.1213C7.31607 9.55871 7 8.79565 7 8C7 7.20435 7.31607 6.44129 7.87868 5.87868C8.44129 5.31607 9.20435 5 10 5ZM10 4C8.93913 4 7.92172 4.42143 7.17157 5.17157C6.42143 5.92172 6 6.93913 6 8C6 9.06087 6.42143 10.0783 7.17157 10.8284C7.92172 11.5786 8.93913 12 10 12C11.0609 12 12.0783 11.5786 12.8284 10.8284C13.5786 10.0783 14 9.06087 14 8C14 6.93913 13.5786 5.92172 12.8284 5.17157C12.0783 4.42143 11.0609 4 10 4Z" fill="black"/>
<path d="M12.2401 19.75L12.5801 19.66L13.3001 19.44L13.6101 19.33C13.8631 19.23 14.1131 19.12 14.3601 19L14.5701 18.9C14.8743 18.7496 15.1683 18.5792 15.4501 18.39C17.2584 17.2145 18.6384 15.486 19.3841 13.4622C20.1298 11.4384 20.2014 9.22778 19.5881 7.16C18.9752 5.09252 17.7106 3.27845 15.9828 1.98818C14.255 0.69791 12.1565 0.000535327 10.0001 7.82901e-08C7.84349 -0.000269722 5.7446 0.696798 4.01664 1.98718C2.28867 3.27757 1.02427 5.0921 0.4121 7.16C-0.200677 9.22781 -0.128875 11.4383 0.616805 13.462C1.36249 15.4856 2.74212 17.2142 4.5501 18.39C4.8321 18.579 5.1261 18.75 5.4301 18.9L5.6401 19C5.8931 19.12 6.1431 19.23 6.3901 19.33L6.7001 19.44L7.4201 19.66L7.7601 19.75C8.0101 19.8 8.2701 19.85 8.5201 19.88L8.8601 19.93C9.2481 19.976 9.6391 20 10.0301 20C10.4011 19.9973 10.7717 19.9739 11.1401 19.93L11.4801 19.88C11.7301 19.85 12.0301 19.8 12.2401 19.75ZM15.8501 16.85L15.4101 17.2L15.1201 17.41C15.0001 17.5 14.8701 17.57 14.7401 17.65C14.6101 17.73 14.4901 17.82 14.3501 17.89L14.0401 18.05L13.5501 18.28L13.2801 18.38C13.0941 18.46 12.9041 18.53 12.7101 18.59L12.4501 18.66L11.8501 18.82L11.4601 18.88C11.2901 18.88 11.1201 18.94 10.9501 18.95C10.7801 18.96 10.3401 19 10.0301 19C9.7201 19 9.4101 19 9.1101 18.95C8.8101 18.9 8.7701 18.9 8.6001 18.88L8.2101 18.82L7.6101 18.66L7.3501 18.59C7.1564 18.5305 6.96611 18.4604 6.7801 18.38L6.5101 18.28L6.0301 18.05L5.7201 17.89C5.5801 17.82 5.4601 17.73 5.3301 17.65C5.2001 17.57 5.0701 17.5 4.9501 17.41L4.6601 17.2L4.2201 16.85L4.0301 16.67C3.8701 16.519 3.7001 16.369 3.5501 16.209V16.159C5.38955 14.7006 7.6835 13.9359 10.0301 13.999C12.4005 13.9193 14.7221 14.6849 16.5801 16.159L16.5301 16.209C16.3801 16.369 16.2101 16.519 16.0501 16.669L15.8501 16.85ZM10.0301 0.994C11.2798 0.995113 12.5155 1.25652 13.6586 1.76157C14.8016 2.26661 15.827 3.00422 16.6692 3.92739C17.5115 4.85057 18.1522 5.93907 18.5506 7.12354C18.949 8.308 19.0963 9.56247 18.9831 10.807C18.8327 12.4709 18.2222 14.0602 17.2201 15.397C15.1835 13.7703 12.6354 12.9197 10.0301 12.997C7.42476 12.9197 4.87665 13.7703 2.8401 15.397C1.83903 14.0602 1.2295 12.4712 1.07965 10.8079C0.929801 9.14448 1.24554 7.4722 1.99156 5.97797C2.73759 4.48374 3.8845 3.22645 5.30409 2.34664C6.72368 1.46684 8.35999 0.999197 10.0301 0.996V0.994Z" fill="black"/>
</g>
</g>
<defs>
<clipPath id="clip0_1_3503">
<rect width="20" height="20" fill="white"/>
</clipPath>
<clipPath id="clip1_1_3503">
<rect width="20" height="20" fill="white"/>
</clipPath>
</defs>
</svg>
