<svg width="20" height="20" viewBox="0 0 20 20" fill="none" xmlns="http://www.w3.org/2000/svg">
<g clip-path="url(#clip0_1_3494)">
<g clip-path="url(#clip1_1_3494)">
<path d="M8.5 17C6.81886 17 5.17547 16.5015 3.77766 15.5675C2.37984 14.6335 1.29037 13.306 0.647028 11.7528C0.00368291 10.1996 -0.164645 8.49057 0.163329 6.84174C0.491303 5.1929 1.30085 3.67834 2.4896 2.4896C3.67834 1.30085 5.1929 0.491303 6.84174 0.163329C8.49057 -0.164645 10.1996 0.00368291 11.7528 0.647028C13.306 1.29037 14.6335 2.37984 15.5675 3.77766C16.5015 5.17547 17 6.81886 17 8.5C16.9974 10.7535 16.101 12.914 14.5075 14.5075C12.914 16.101 10.7535 16.9974 8.5 17ZM8.5 1.45C7.10565 1.45 5.7426 1.86348 4.58323 2.63814C3.42387 3.41281 2.52025 4.51387 1.98665 5.80209C1.45306 7.0903 1.31344 8.50782 1.58547 9.87539C1.85749 11.243 2.52894 12.4991 3.5149 13.4851C4.50086 14.4711 5.75705 15.1425 7.12462 15.4145C8.49218 15.6866 9.9097 15.547 11.1979 15.0134C12.4861 14.4798 13.5872 13.5761 14.3619 12.4168C15.1365 11.2574 15.55 9.89436 15.55 8.5C15.5474 6.63104 14.8037 4.83938 13.4822 3.51782C12.1606 2.19626 10.369 1.45265 8.5 1.45Z" fill="black"/>
<path d="M19.25 20C19.0511 19.9998 18.8605 19.9207 18.72 19.78L13.86 14.92C13.7275 14.7778 13.6554 14.5898 13.6588 14.3955C13.6622 14.2012 13.7409 14.0158 13.8784 13.8784C14.0158 13.741 14.2012 13.6623 14.3955 13.6588C14.5898 13.6554 14.7778 13.7275 14.92 13.86L19.78 18.72C19.8847 18.8249 19.9561 18.9585 19.9849 19.1039C20.0138 19.2493 19.999 19.4 19.9423 19.5369C19.8856 19.6739 19.7895 19.791 19.6663 19.8734C19.5431 19.9558 19.3982 19.9999 19.25 20Z" fill="black"/>
</g>
</g>
<defs>
<clipPath id="clip0_1_3494">
<rect width="20" height="20" fill="white"/>
</clipPath>
<clipPath id="clip1_1_3494">
<rect width="20" height="20" fill="white"/>
</clipPath>
</defs>
</svg>
