<svg width="20" height="20" viewBox="0 0 20 20" fill="none" xmlns="http://www.w3.org/2000/svg">
<g clip-path="url(#clip0_1_3521)">
<g clip-path="url(#clip1_1_3521)">
<path d="M17.9313 19.2786L16.9293 4.17836C16.9215 4.01886 16.8527 3.86846 16.737 3.75838C16.6213 3.6483 16.4677 3.58699 16.308 3.58717H13.6026V3.17635C13.6134 2.35135 13.2987 1.55532 12.7266 0.960767C12.1546 0.36621 11.3713 0.0210197 10.5465 0L9.48438 0C8.65266 0.0105602 7.8592 0.351088 7.27855 0.946672C6.6979 1.54226 6.37762 2.34411 6.38818 3.17583V3.58716H3.68277C3.52309 3.58698 3.36946 3.64829 3.25378 3.75837C3.1381 3.86845 3.06926 4.01885 3.06153 4.17835L2.05953 19.3286C2.05488 19.4146 2.06757 19.5005 2.09683 19.5814C2.12609 19.6623 2.17134 19.7365 2.22987 19.7996C2.28697 19.8625 2.35656 19.9128 2.4342 19.9473C2.51184 19.9818 2.59581 19.9998 2.68077 20H17.3201C17.4016 20 17.4824 19.984 17.5578 19.9527C17.6332 19.9215 17.7017 19.8758 17.7594 19.8181C17.8171 19.7604 17.8628 19.6919 17.8941 19.6166C17.9253 19.5412 17.9414 19.4604 17.9414 19.3788L17.9413 19.3687C17.9397 19.3385 17.9364 19.3084 17.9313 19.2786ZM7.62065 3.17635C7.61797 2.67846 7.81252 2.19977 8.16176 1.8449C8.51099 1.49003 8.98652 1.28786 9.48438 1.28257H10.5465C10.7926 1.28519 11.0357 1.33624 11.262 1.43282C11.4883 1.52939 11.6934 1.6696 11.8655 1.84543C12.0377 2.02127 12.1735 2.22928 12.2652 2.4576C12.357 2.68593 12.4028 2.93008 12.4002 3.17613V3.58713H7.62065V3.17635ZM3.36213 18.7274L4.26398 4.8497H6.38818C6.38818 4.8497 6.25792 8.016 7.00943 8.016C7.76094 8.016 7.63067 4.81961 7.63067 4.81961H12.4102C12.4102 4.81961 12.27 8.016 13.0215 8.016C13.7729 8.016 13.6427 4.81961 13.6427 4.81961H15.767L16.6588 18.6974L3.36213 18.7274Z" fill="black"/>
</g>
</g>
<defs>
<clipPath id="clip0_1_3521">
<rect width="20" height="20" fill="white"/>
</clipPath>
<clipPath id="clip1_1_3521">
<rect width="20" height="20" fill="white"/>
</clipPath>
</defs>
</svg>
