<svg width="43" height="16" viewBox="0 0 43 16" fill="none" xmlns="http://www.w3.org/2000/svg">
<g clip-path="url(#clip0_1_3475)">
<g clip-path="url(#clip1_1_3475)">
<path d="M19.6427 4.99052C19.7372 5.03102 19.8317 5.07152 19.9254 5.08502C19.9929 5.09852 20.0739 5.08502 20.1542 5.07152C20.1288 5.10125 20.0967 5.12441 20.0604 5.13902C19.9389 5.17877 19.7904 5.12552 19.6427 4.99052ZM20.2082 5.44802C20.4639 5.34077 20.6394 5.04452 20.7602 4.66802C20.8007 4.68077 20.8547 4.69427 20.8952 4.70777C20.9357 4.89602 20.9627 5.08502 20.9627 5.24627C20.9627 5.31377 20.9627 5.38127 20.9492 5.44877C20.8952 5.75777 20.7332 5.90627 20.4107 5.89277C19.6157 5.87927 19.1447 5.63702 19.0232 5.20577C18.9947 5.11429 18.981 5.01883 18.9827 4.92302C18.9827 4.88327 18.9827 4.82927 18.9962 4.78802C19.0097 4.78802 19.0232 4.80227 19.0367 4.80227C19.5354 5.52977 19.9389 5.56877 20.2082 5.44802ZM21.5012 4.23677H21.5282C21.4844 4.29457 21.4272 4.34074 21.3614 4.37121C21.2956 4.40168 21.2233 4.41552 21.1509 4.41152L21.1104 4.29077C21.2589 4.27727 21.3804 4.26377 21.5004 4.23677H21.5012ZM19.2527 3.98102C19.4274 4.02152 19.6022 4.03427 19.7642 4.03427C19.8182 4.06127 19.8849 4.08827 19.9524 4.11527C20.0469 4.22327 20.1549 4.33052 20.2892 4.41152C20.3156 4.43724 20.3481 4.45582 20.3837 4.46552C20.1471 4.55312 19.8937 4.58545 19.6427 4.56002C19.4705 4.42456 19.3285 4.2547 19.2257 4.06127C19.2303 4.03334 19.2399 4.00627 19.2527 3.98102ZM22.0937 1.67852C22.0937 1.62452 22.0802 1.58402 22.0802 1.53002C22.4972 1.89377 22.7529 2.36477 22.7529 2.78252C22.7529 2.85002 22.7394 2.91752 22.7394 2.98502C22.6719 3.29402 22.4567 3.53627 22.1072 3.69752C22.1229 3.57712 22.1319 3.45593 22.1342 3.33452C22.1342 3.01127 22.0802 2.66102 21.9857 2.33777C22.0532 2.10902 22.0937 1.89377 22.0937 1.67777V1.67852ZM21.7299 2.86352C21.7569 3.02477 21.7704 3.18602 21.7704 3.34802C21.7704 3.52277 21.7569 3.68477 21.7164 3.83252C21.6219 3.85952 21.5417 3.87302 21.4337 3.90002C21.3797 3.91352 21.3257 3.91352 21.2724 3.92702C21.3011 3.79905 21.3144 3.66814 21.3122 3.53702C21.3122 3.48227 21.3122 3.42902 21.2987 3.37502C21.4742 3.22652 21.6219 3.05177 21.7299 2.86352ZM20.5584 3.87227V3.91277C20.5314 3.91277 20.5179 3.89927 20.4909 3.89927C20.516 3.8988 20.54 3.8892 20.5584 3.87227ZM20.9627 3.66977C20.9627 3.72452 20.9492 3.76427 20.9492 3.81827C20.9357 3.80477 20.9357 3.77777 20.9222 3.76427V3.71102C20.9357 3.68402 20.9492 3.67052 20.9627 3.67052V3.66977ZM20.8952 3.01052C20.9087 3.09152 20.9357 3.15902 20.9492 3.23927C20.9357 3.25277 20.9222 3.25277 20.9222 3.26627C20.9087 3.18527 20.9087 3.10502 20.8952 3.01052ZM21.2177 1.08527C21.2049 1.07177 21.1914 1.07177 21.1779 1.05827C21.3392 1.09877 21.5147 1.16552 21.6759 1.24652C21.7164 1.38152 21.7434 1.51652 21.7434 1.66427V1.71752C21.5949 1.44827 21.4194 1.23302 21.2177 1.08527ZM20.2622 1.08527C20.5044 1.09877 20.7602 1.19252 21.0159 1.36802C21.2717 1.54277 21.4734 1.90652 21.6084 2.32352C21.522 2.54429 21.3993 2.74909 21.2454 2.92952C21.2184 2.80877 21.1779 2.70077 21.1374 2.56652C20.9316 1.99578 20.5497 1.50519 20.0469 1.16552C20.1144 1.13927 20.1819 1.11227 20.2622 1.08527ZM20.4504 2.49902C20.4909 2.67377 20.5314 2.86277 20.5449 3.05102C20.4639 2.91602 20.3837 2.79527 20.3027 2.67377C20.3567 2.61977 20.4099 2.55302 20.4504 2.49902ZM20.0334 3.42827V3.38777C20.0334 3.26627 20.0604 3.14552 20.1144 3.01052C20.2217 3.18527 20.3297 3.36077 20.4234 3.53552C20.3096 3.5795 20.1928 3.61559 20.0739 3.64352C20.0593 3.57199 20.0458 3.50023 20.0334 3.42827ZM19.6959 3.23927C19.6959 3.29327 19.6832 3.34727 19.6832 3.38777V3.44177C19.6832 3.49502 19.6967 3.54902 19.6967 3.60302C19.6427 3.56252 19.5752 3.52202 19.5219 3.48152C19.5846 3.40401 19.6429 3.32314 19.6967 3.23927H19.6959ZM18.9834 3.46802V3.44177C19.0232 3.48152 19.0509 3.52202 19.0907 3.56252C19.0661 3.54753 19.0384 3.5383 19.0097 3.53552C18.9962 3.50852 18.9827 3.49502 18.9827 3.46802H18.9834ZM19.7102 1.39502C19.9659 1.54277 20.2082 1.73102 20.4099 2.00102C20.3027 2.08127 20.1677 2.17577 20.0334 2.31002C19.8456 2.07665 19.6283 1.86866 19.3869 1.69127C19.4679 1.58327 19.5894 1.48877 19.7094 1.39502H19.7102ZM19.1852 1.97402C19.3869 2.12177 19.6022 2.32352 19.7912 2.56652C19.6066 2.77986 19.4355 3.00455 19.2789 3.23927C19.1357 3.09867 19.0173 2.93486 18.9287 2.75477C18.9429 2.52602 19.0232 2.24327 19.1852 1.97402ZM18.6729 1.81202V1.75802C18.7134 1.75802 18.7539 1.77152 18.7809 1.77152C18.7404 1.83902 18.7134 1.90652 18.6864 1.98752C18.6737 1.93352 18.6737 1.86602 18.6737 1.81202H18.6729ZM17.9867 2.32352C18.0939 2.06852 18.2154 1.93352 18.3234 1.85252C18.3234 2.13527 18.3909 2.41802 18.4982 2.70077C18.4713 2.8475 18.4578 2.99635 18.4577 3.14552V3.26627C18.3227 3.17177 18.1884 3.07802 18.0542 2.95652C17.9732 2.88902 17.9057 2.82152 17.8517 2.76827C17.8799 2.61542 17.9251 2.46623 17.9867 2.32352ZM18.4172 4.10102C18.2154 3.93977 17.9462 3.65702 17.8652 3.25352C18.0939 3.44102 18.3099 3.60302 18.5252 3.71102C18.5657 3.89852 18.6197 4.08752 18.7134 4.24952C18.7269 4.27652 18.7404 4.29002 18.7539 4.31702C18.635 4.2561 18.5222 4.18376 18.4172 4.10102ZM18.7809 1.23302C18.8079 1.17902 18.8349 1.13927 18.8619 1.08527C18.9827 1.09877 19.0907 1.12577 19.2122 1.16552C19.1203 1.25465 19.0391 1.35405 18.9699 1.46177C18.949 1.44922 18.9262 1.4401 18.9024 1.43477C18.8497 1.41947 18.7953 1.41066 18.7404 1.40852C18.7404 1.35452 18.7539 1.28702 18.7809 1.23302ZM17.3409 1.82552C17.3409 1.75802 17.3537 1.69052 17.3807 1.62302C17.5022 1.30052 17.9327 1.08527 18.4847 1.07177C18.4847 1.08527 18.4712 1.09877 18.4712 1.09877C18.4214 1.2105 18.3854 1.32786 18.3639 1.44827C18.1209 1.52927 17.8652 1.73102 17.6634 2.18927C17.6364 2.27027 17.5959 2.35052 17.5824 2.41802C17.4212 2.20277 17.3409 2.00102 17.3409 1.82552ZM19.9659 0.49277C20.4909 0.45227 20.9222 0.53327 21.2184 0.70802C20.8852 0.631644 20.5384 0.636532 20.2074 0.72227C19.9663 0.72464 19.7298 0.789501 19.5212 0.91052C19.3885 0.859486 19.2536 0.81444 19.1169 0.77552C19.3717 0.612129 19.6633 0.515176 19.9652 0.49352L19.9659 0.49277ZM19.9389 0.14252C19.4004 0.18302 18.9692 0.38477 18.6864 0.72152H18.5117C17.7984 0.72152 17.2194 1.03127 17.0439 1.50227C17.0084 1.60634 16.9901 1.71554 16.9899 1.82552C16.9899 2.09552 17.0979 2.45852 17.4887 2.88902V2.99702C17.4887 3.52202 17.7309 4.00727 18.2019 4.38452C18.3504 4.50452 18.5117 4.59902 18.6737 4.68002C18.658 4.77351 18.649 4.868 18.6467 4.96277C18.6467 5.08427 18.6594 5.20502 18.6999 5.32652C18.8754 5.91902 19.4544 6.24152 20.4234 6.26927C20.9222 6.28277 21.2319 6.01352 21.3122 5.52827C21.3257 5.46077 21.3257 5.38052 21.3257 5.29952C21.3257 5.13827 21.2987 4.96277 21.2717 4.77452C21.5814 4.74752 21.7704 4.57202 21.8777 4.41077C21.9386 4.32498 21.9843 4.22933 22.0127 4.12802C22.8077 3.84527 23.0357 3.36077 23.0897 3.06452C23.1032 2.98352 23.1167 2.88902 23.1167 2.80877C23.1167 2.20277 22.7267 1.54277 22.0802 1.09877C22.0397 1.07177 21.9992 1.05827 21.9587 1.03127C21.7562 0.60002 21.2589 0.0345202 19.9389 0.14252ZM7.73944 8.62652C7.72594 8.02052 7.45669 7.75127 6.89194 7.75127C6.54169 7.75127 3.92944 7.65677 2.91919 7.45502C2.72386 7.41056 2.54948 7.30093 2.42475 7.14417C2.30002 6.9874 2.23237 6.79285 2.23294 6.59252C2.23294 6.12152 2.58244 5.75777 3.05419 5.71802C3.18919 5.70452 3.52519 5.69102 3.91594 5.67752C5.06044 5.63702 6.02944 5.58302 6.17794 5.52902C6.35269 5.47502 6.46069 5.31377 6.46069 5.11202C6.46305 5.00514 6.44403 4.89886 6.40475 4.79943C6.36547 4.70001 6.30672 4.60943 6.23194 4.53302C5.84119 4.14302 5.03344 4.14302 4.49494 4.14302H4.40044C3.41794 4.14302 2.39419 4.30427 1.42444 4.61327C1.18219 4.70777 1.00744 4.89602 0.980441 5.12552C0.953966 5.34428 0.940442 5.56441 0.939941 5.78477C0.939941 6.02702 0.953441 6.55202 0.966941 7.00952C0.980441 7.33277 0.980441 7.61552 0.980441 7.72352C0.980441 8.58527 1.86919 9.11027 2.69044 9.11027H5.78794C6.31294 9.11027 6.54169 9.36602 6.54169 9.95777C6.54169 10.1738 6.48769 10.5503 6.29869 10.6583C6.17794 10.7258 4.76419 10.6583 3.82144 10.605C3.24244 10.578 2.74444 10.551 2.50144 10.551C2.09794 10.551 1.04794 10.551 1.04794 11.3318C1.04794 11.5343 1.14169 11.709 1.30294 11.817C1.80169 12.1395 3.84844 12.207 4.52194 12.207C5.30194 12.207 7.16044 12.1665 7.61869 11.7495C7.76644 11.6145 7.84744 11.3993 7.84744 11.1705C7.84744 10.4835 7.80694 9.78302 7.76644 9.11027L7.73944 8.62577V8.62652ZM18.2154 10.5788C18.2154 9.04352 18.0129 7.09127 17.8517 5.73152C17.7842 5.17877 17.2997 4.56002 16.6937 4.51952L16.0337 4.47902C15.4786 4.43197 14.922 4.40471 14.3649 4.39727C13.9074 4.39727 13.7049 4.89527 13.5849 5.19227L13.5572 5.27252C13.4364 5.56877 13.3824 5.91902 13.3419 6.18827C13.2879 6.55202 13.2879 6.92852 13.3014 7.35977V9.36677C13.3014 9.46127 13.3014 9.77102 13.2204 9.85127C13.2069 9.86477 13.1934 9.86477 13.1807 9.86477C13.0862 9.86477 12.9782 9.64952 12.9647 9.51527C12.9249 9.29927 12.9377 9.08402 12.9377 8.86877V8.70677C12.9377 7.58927 12.8574 6.01427 12.6287 5.24627C12.593 5.10725 12.5222 4.97973 12.423 4.87597C12.3239 4.77221 12.1997 4.6957 12.0624 4.65377C11.8074 4.56002 10.4469 4.34402 10.0299 4.34402C8.93869 4.34402 8.77744 5.86652 8.68294 6.76802C8.66944 6.88952 8.65594 6.99677 8.64244 7.09052C8.61544 7.36052 8.65594 10.2015 8.72344 11.346C8.76394 11.898 9.04594 12.2213 9.49069 12.2213C9.70669 12.2213 9.97594 12.1268 10.0427 11.8845C10.1685 11.4885 10.2323 11.0753 10.2317 10.6598C10.2317 10.2285 10.1912 9.78452 10.1642 9.33977C10.1167 8.88346 10.0897 8.42525 10.0832 7.96652V7.75127C10.0697 7.23902 10.0562 6.27002 10.3929 5.91977C10.4311 5.87548 10.4788 5.84035 10.5324 5.81698C10.5861 5.79361 10.6442 5.78261 10.7027 5.78477C11.1744 5.78477 11.4564 6.35027 11.4564 6.75452V8.74727C11.4564 9.32627 11.4699 9.82427 11.5239 10.2825C11.6319 11.4945 12.6684 11.4945 13.5714 11.4945C13.8669 11.4945 14.7692 11.4945 14.7692 10.5923C14.7692 9.99977 14.7557 9.39377 14.7422 8.81477C14.7287 8.23577 14.7152 7.62977 14.7152 7.03727C14.7152 6.47177 15.0789 5.86577 15.7524 5.86577C16.1559 5.86577 16.6412 6.12152 16.6944 6.52577C16.7079 6.66077 16.7214 6.78077 16.7214 6.88952C16.7214 6.95702 16.7349 7.01027 16.7349 7.07702L16.7889 8.34302C16.8294 9.17852 16.8699 10.053 16.8699 10.8885C16.8699 11.5208 17.1249 11.898 17.5697 11.898C17.7181 11.9008 17.8623 11.8481 17.9739 11.7503C18.2297 11.4945 18.2162 10.9958 18.2162 10.6328L18.2154 10.5788ZM24.3422 8.74727C23.3454 8.74727 22.9824 8.62577 22.9824 7.56227C22.9824 7.42727 22.9952 7.27952 22.9952 7.13177C23.0222 6.78152 23.7092 6.68702 23.9649 6.68702C24.9752 6.68702 25.4199 6.75452 25.4199 7.87202C25.4327 8.76077 25.1364 8.74727 24.3422 8.74727ZM25.9577 13.191C25.9577 13.851 25.2039 13.9185 24.7052 13.9185C23.8442 13.9185 22.9824 14.0123 22.9824 12.9083C22.9824 12.2618 24.0999 12.1268 24.5979 12.1268C25.2849 12.1268 25.9577 12.4095 25.9577 13.191ZM26.9679 3.53627C26.9004 3.53627 26.8194 3.54977 26.7519 3.56327C25.5272 4.00802 25.5407 5.46227 24.8132 5.46227C24.5439 5.46227 24.3152 5.28677 24.0324 5.28677C23.1572 5.28677 21.8507 5.43527 21.8507 6.57977C21.8507 7.14527 21.8777 7.68377 21.8777 8.23577C21.8777 8.59952 21.9317 9.64952 22.2954 9.82427C22.6322 9.97277 23.5344 9.89177 23.5344 10.4168C23.5361 10.4556 23.5284 10.4943 23.5119 10.5296C23.4955 10.5648 23.4708 10.5956 23.4399 10.6193C22.7934 11.1173 21.7164 10.3493 21.7164 11.6963C21.7164 12.1268 21.8372 13.6755 21.8372 14.0123C21.8372 14.4968 21.8244 15.1568 22.4432 15.1568C22.6457 15.1568 22.8339 15.1298 23.0357 15.1028C24.1269 15.0488 25.2174 15.0083 26.3214 14.955C27.1164 14.928 27.4659 14.2005 27.4659 13.4873C27.4659 12.9758 27.1292 11.8845 26.9409 11.3865C26.9133 11.3089 26.8687 11.2385 26.8105 11.1802C26.7522 11.122 26.6818 11.0774 26.6042 11.0498C26.1467 10.8885 25.4192 11.0768 25.4192 10.3763C25.4192 9.63602 26.7789 10.161 26.8599 9.44777C26.8734 9.28577 26.8869 9.11027 26.8869 8.93627C26.8869 8.14127 26.6447 7.38752 26.6447 6.52577C26.6447 6.31052 26.6177 6.10802 26.6177 5.89277C26.6177 5.38127 27.4929 4.88327 27.4929 4.15577C27.4929 3.84602 27.3174 3.53627 26.9679 3.53627ZM30.5499 8.74727C29.5524 8.74727 29.1894 8.62577 29.1894 7.56227C29.1894 7.42727 29.2029 7.27952 29.2029 7.13177C29.2299 6.78152 29.9169 6.68702 30.1727 6.68702C31.1822 6.68702 31.6269 6.75452 31.6269 7.87202C31.6404 8.76077 31.3449 8.74727 30.5499 8.74727ZM32.1654 13.191C32.1654 13.851 31.4109 13.9185 30.9129 13.9185C30.0512 13.9185 29.1894 14.0123 29.1894 12.9083C29.1894 12.2618 30.3069 12.1268 30.8057 12.1268C31.4919 12.1268 32.1654 12.4095 32.1654 13.191ZM33.1749 3.53627C33.1074 3.53627 33.0272 3.54977 32.9597 3.56327C31.7342 4.00802 31.7477 5.46227 31.0209 5.46227C30.7509 5.46227 30.5222 5.28677 30.2394 5.28677C29.3649 5.28677 28.0584 5.43527 28.0584 6.57977C28.0584 7.14527 28.0854 7.68377 28.0854 8.23577C28.0854 8.59952 28.1394 9.64952 28.5024 9.82427C28.8399 9.97277 29.7414 9.89177 29.7414 10.4168C29.7431 10.4556 29.7354 10.4943 29.7189 10.5296C29.7025 10.5648 29.6778 10.5956 29.6469 10.6193C29.0012 11.1173 27.9234 10.3493 27.9234 11.6963C27.9234 12.1268 28.0449 13.6755 28.0449 14.0123C28.0449 14.4968 28.0314 15.1568 28.6509 15.1568C28.8534 15.1568 29.0409 15.1298 29.2434 15.1028C30.3339 15.0488 31.4244 15.0083 32.5284 14.955C33.3234 14.928 33.6729 14.2005 33.6729 13.4873C33.6729 12.9758 33.3369 11.8845 33.1479 11.3865C33.1223 11.3078 33.0785 11.2363 33.0199 11.1778C32.9614 11.1192 32.8899 11.0754 32.8112 11.0498C32.3537 10.8885 31.6262 11.0768 31.6262 10.3763C31.6262 9.63602 32.9867 10.161 33.0677 9.44777C33.0812 9.28577 33.0939 9.11027 33.0939 8.93627C33.0939 8.14127 32.8517 7.38752 32.8517 6.52577C32.8517 6.31052 32.8254 6.10802 32.8254 5.89277C32.8254 5.38127 33.6999 4.88327 33.6999 4.15577C33.6999 3.84602 33.5252 3.53627 33.1749 3.53627ZM35.9087 10.6455C35.8142 10.2555 35.8007 9.79802 35.8007 9.43427C35.7737 7.77752 35.7332 6.06752 35.6529 4.39802C35.6259 4.00802 35.3027 3.44252 34.8047 3.44252C34.4274 3.44252 34.1852 3.92702 34.1852 4.27727C34.1852 4.49252 34.2257 4.72127 34.2789 4.95002L34.3194 5.19227C34.6157 7.21202 34.6157 9.16502 34.6157 11.2253C34.6157 11.6693 34.7912 12.3825 35.2622 12.3825C35.6664 12.3825 36.2589 12.033 36.2589 11.5478C36.2589 11.373 36.1644 11.1848 36.0699 10.9958C35.9969 10.8892 35.9424 10.771 35.9087 10.6463V10.6455ZM38.7767 6.14852C38.9514 5.94602 39.3557 5.98727 39.6114 5.98727C40.0824 5.98727 40.2849 6.17552 40.2849 6.64727C40.2849 7.30727 39.6384 7.26602 39.1404 7.26602C38.8839 7.26602 38.5209 7.25252 38.5209 6.90302C38.5209 6.67352 38.6154 6.32402 38.7767 6.14852ZM42.0617 10.242C41.1594 9.81077 39.7592 9.91952 38.7767 9.82427C38.4804 9.81077 38.3319 9.51527 38.3319 9.23177C38.3319 8.80127 38.5877 8.57177 39.0054 8.57177C39.5709 8.57177 40.0959 8.77427 40.6479 8.77427C41.5367 8.77427 41.8194 8.47802 41.8194 7.60277C41.8194 7.29302 41.8059 6.31052 41.8059 6.10802C41.8059 5.79827 41.7384 5.48852 41.7384 5.15252C41.7384 4.70777 41.3349 4.43852 40.9307 4.43852C40.0419 4.43852 38.7902 4.61327 37.9007 4.74827C37.6727 4.78877 37.2557 5.36777 37.2414 5.59652C37.1739 6.28352 37.1334 6.99677 37.0667 7.68377C36.9992 8.37002 36.6624 8.97602 36.6624 9.69002C36.6624 11.2785 37.6322 11.13 38.7902 11.13C39.5709 11.13 40.2977 11.265 41.0387 11.481C41.1197 11.4945 41.2134 11.5208 41.2944 11.5208C41.7392 11.5208 42.3317 11.2658 42.3317 10.767C42.3444 10.5645 42.2507 10.3365 42.0617 10.242ZM20.4504 9.28577C20.4504 8.74727 20.5989 8.16827 20.5989 7.67027C20.5989 7.22552 20.2487 6.75452 19.7777 6.75452C19.6205 6.76112 19.4694 6.81759 19.3464 6.91577C19.2513 7.04309 19.1869 7.19068 19.1582 7.34702C19.1447 7.56227 19.1447 7.79102 19.1447 8.00702C19.1312 9.15152 19.0502 10.2825 19.0502 11.4135C19.0502 11.871 19.4274 12.1673 19.8714 12.1673C20.3027 12.1673 20.7339 11.871 20.7339 11.4135C20.7339 11.1848 20.6394 10.929 20.5854 10.713C20.4999 10.242 20.4547 9.7645 20.4504 9.28577Z" fill="black"/>
</g>
</g>
<defs>
<clipPath id="clip0_1_3475">
<rect width="42" height="15.75" fill="white" transform="translate(0.939941 0.129997)"/>
</clipPath>
<clipPath id="clip1_1_3475">
<rect width="42" height="15.75" fill="white" transform="translate(0.939941 0.129997)"/>
</clipPath>
</defs>
</svg>
