<svg width="20" height="20" viewBox="0 0 20 20" fill="none" xmlns="http://www.w3.org/2000/svg">
<g clip-path="url(#clip0_1_3513)">
<path d="M14.36 1C13.537 0.99433 12.7224 1.16447 11.9704 1.49903C11.2185 1.8336 10.5467 2.32488 10 2.94C9.45368 2.32437 8.78196 1.83274 8.02996 1.49814C7.27795 1.16353 6.46306 0.993683 5.64 1C4.18791 0.962265 2.77985 1.5005 1.72319 2.49721C0.666517 3.49393 0.0470487 4.86818 0 6.32C0 8.62 1.45 11.32 4.32 14.22C5.95187 15.868 7.72164 17.3735 9.61 18.72L10 19L10.4 18.72C12.2874 17.3723 14.0571 15.8669 15.69 14.22C18.55 11.27 20 8.62 20 6.32C19.9556 4.8673 19.3369 3.49149 18.2796 2.49422C17.2224 1.49696 15.8128 0.959612 14.36 1ZM14.71 13.37C13.2508 14.8498 11.6758 16.2108 10 17.44C8.32484 16.2137 6.74987 14.8561 5.29 13.38C2.69 10.71 1.29 8.27 1.29 6.32C1.30679 5.76619 1.43274 5.22113 1.66063 4.71609C1.88851 4.21105 2.21384 3.75596 2.61797 3.37692C3.0221 2.99787 3.49707 2.70233 4.01566 2.50723C4.53425 2.31213 5.08624 2.22132 5.64 2.24C6.39906 2.23311 7.14682 2.42406 7.80963 2.79405C8.47245 3.16403 9.02746 3.70029 9.42 4.35L10 5.35L10.58 4.35C10.9733 3.70097 11.5285 3.16525 12.1911 2.79536C12.8537 2.42547 13.6011 2.2341 14.36 2.24C15.4733 2.21038 16.553 2.6231 17.3626 3.38779C18.1723 4.15248 18.646 5.20683 18.68 6.32C18.68 8.27 17.31 10.71 14.71 13.37Z" fill="black"/>
</g>
<defs>
<clipPath id="clip0_1_3513">
<rect width="20" height="20" fill="white"/>
</clipPath>
</defs>
</svg>
