<svg width="22" height="23" viewBox="0 0 22 23" fill="none" xmlns="http://www.w3.org/2000/svg">
<g clip-path="url(#clip0_1_1772)">
<g clip-path="url(#clip1_1_1772)">
<path d="M15.796 1.3C14.8907 1.29376 13.9946 1.48092 13.1675 1.84894C12.3404 2.21696 11.6014 2.75737 11 3.434C10.399 2.75681 9.66016 2.21602 8.83295 1.84795C8.00575 1.47988 7.10937 1.29305 6.204 1.3C4.6067 1.25849 3.05784 1.85055 1.8955 2.94694C0.733169 4.04332 0.0517536 5.555 0 7.152C0 9.682 1.595 12.652 4.752 15.842C6.54705 17.6548 8.49381 19.3109 10.571 20.792L11 21.1L11.44 20.792C13.5162 19.3096 15.4628 17.6536 17.259 15.842C20.405 12.597 22 9.682 22 7.152C21.9511 5.55403 21.2706 4.04064 20.1076 2.94365C18.9446 1.84665 17.3941 1.25557 15.796 1.3ZM16.181 14.907C14.5759 16.5348 12.8434 18.0319 11 19.384C9.15732 18.0351 7.42486 16.5417 5.819 14.918C2.959 11.981 1.419 9.297 1.419 7.152C1.43747 6.54281 1.57602 5.94325 1.82669 5.3877C2.07736 4.83216 2.43522 4.33156 2.87977 3.91461C3.32431 3.49766 3.84678 3.17256 4.41723 2.95796C4.98767 2.74335 5.59487 2.64346 6.204 2.664C7.03896 2.65642 7.8615 2.86647 8.5906 3.27345C9.31969 3.68044 9.93021 4.27032 10.362 4.985L11 6.085L11.638 4.985C12.0706 4.27107 12.6813 3.68178 13.4102 3.2749C14.1391 2.86802 14.9612 2.65751 15.796 2.664C17.0206 2.63142 18.2083 3.08541 19.0989 3.92657C19.9895 4.76772 20.5106 5.92751 20.548 7.152C20.548 9.297 19.041 11.981 16.181 14.907Z" fill="#404040"/>
</g>
</g>
<defs>
<clipPath id="clip0_1_1772">
<rect width="22" height="22" fill="white" transform="translate(0 0.200012)"/>
</clipPath>
<clipPath id="clip1_1_1772">
<rect width="22" height="22" fill="white" transform="translate(0 0.200012)"/>
</clipPath>
</defs>
</svg>
