<svg width="21" height="21" viewBox="0 0 21 21" fill="none" xmlns="http://www.w3.org/2000/svg">
<g clip-path="url(#clip0_1_3195)">
<g clip-path="url(#clip1_1_3195)">
<path d="M15.39 0.310012H12.8C12.1493 0.271951 11.4981 0.374116 10.8904 0.609592C10.2826 0.845068 9.7326 1.20836 9.27746 1.67487C8.82233 2.14139 8.47273 2.70024 8.25233 3.3136C8.03192 3.92696 7.94587 4.58051 7.99998 5.23001V7.50001H5.38998C5.28124 7.50001 5.17696 7.54321 5.10007 7.6201C5.02318 7.69699 4.97998 7.80127 4.97998 7.91001V11.2C4.97998 11.3088 5.02318 11.413 5.10007 11.4899C5.17696 11.5668 5.28124 11.61 5.38998 11.61H7.99998V19.91C8.00239 20.0136 8.04395 20.1125 8.11631 20.1867C8.18867 20.2609 8.28645 20.305 8.38998 20.31H11.79C11.8987 20.31 12.003 20.2668 12.0799 20.1899C12.1568 20.113 12.2 20.0087 12.2 19.9V11.6H15.2C15.3087 11.6 15.413 11.5568 15.4899 11.4799C15.5668 11.403 15.61 11.2988 15.61 11.19V7.91001C15.61 7.80127 15.5668 7.69699 15.4899 7.6201C15.413 7.54321 15.3087 7.50001 15.2 7.50001H12.2V5.58001C12.2 4.65001 12.42 4.19001 13.62 4.19001H15.39C15.4987 4.19001 15.603 4.14682 15.6799 4.06993C15.7568 3.99304 15.8 3.88875 15.8 3.78001V0.720012C15.8 0.611273 15.7568 0.506988 15.6799 0.430098C15.603 0.353208 15.4987 0.310012 15.39 0.310012Z" fill="#000D42"/>
</g>
</g>
<defs>
<clipPath id="clip0_1_3195">
<rect width="20" height="20" fill="white" transform="translate(0.389893 0.310059)"/>
</clipPath>
<clipPath id="clip1_1_3195">
<rect width="20" height="20" fill="white" transform="translate(0.389893 0.310059)"/>
</clipPath>
</defs>
</svg>
