<svg width="11" height="12" viewBox="0 0 11 12" fill="none" xmlns="http://www.w3.org/2000/svg">
<g clip-path="url(#clip0_1_1270)">
<path d="M10.5 5.38H6V0.880005C6 0.747397 5.94732 0.62022 5.85355 0.526451C5.75979 0.432683 5.63261 0.380005 5.5 0.380005C5.36739 0.380005 5.24021 0.432683 5.14645 0.526451C5.05268 0.62022 5 0.747397 5 0.880005V5.38H0.5C0.367392 5.38 0.240215 5.43268 0.146447 5.52645C0.0526784 5.62022 0 5.7474 0 5.88C0 6.01261 0.0526784 6.13979 0.146447 6.23356C0.240215 6.32733 0.367392 6.38 0.5 6.38H5V10.88C5 11.0126 5.05268 11.1398 5.14645 11.2336C5.24021 11.3273 5.36739 11.38 5.5 11.38C5.63261 11.38 5.75979 11.3273 5.85355 11.2336C5.94732 11.1398 6 11.0126 6 10.88V6.38H10.5C10.6326 6.38 10.7598 6.32733 10.8536 6.23356C10.9473 6.13979 11 6.01261 11 5.88C11 5.7474 10.9473 5.62022 10.8536 5.52645C10.7598 5.43268 10.6326 5.38 10.5 5.38Z" fill="black"/>
</g>
<defs>
<clipPath id="clip0_1_1270">
<rect width="11" height="11" fill="white" transform="translate(0 0.380005)"/>
</clipPath>
</defs>
</svg>
