<svg width="114" height="14" viewBox="0 0 114 14" fill="none" xmlns="http://www.w3.org/2000/svg">
<g clip-path="url(#clip0_1_3378)">
<path d="M4.95367 0.981289H8.1558V9.60946C8.1558 11.7448 6.38822 13.1811 4.09675 13.1811C1.7515 13.1811 0.140015 11.8853 0.140015 9.68054V8.88952H2.99178V9.60596C2.98588 9.73817 3.00697 9.8702 3.05376 9.99397C3.10055 10.1178 3.17205 10.2308 3.26391 10.326C3.35577 10.4213 3.46606 10.4969 3.58807 10.5481C3.71008 10.5994 3.84125 10.6253 3.97359 10.6242C4.10626 10.6278 4.23822 10.6038 4.36109 10.5536C4.48395 10.5034 4.59502 10.4282 4.68721 10.3328C4.77941 10.2373 4.85072 10.1237 4.89659 9.99916C4.94247 9.87464 4.96191 9.74186 4.95367 9.60946V0.981289ZM17.6045 12.8792L16.8516 10.8324H12.3017L11.5315 12.8792H8.31195L13.2644 0.981289H16.2133L20.9818 12.8792H17.6045ZM14.6556 4.7264H14.6139L13.1603 8.54265H16.0294L14.6556 4.7264ZM32.918 8.88952C32.1131 11.4273 29.6446 13.1776 26.7929 13.1776C23.3236 13.1776 20.4753 10.586 20.4753 6.94675C20.4753 3.30746 23.3965 0.684664 26.8623 0.684664C29.662 0.684664 32.0784 2.40023 32.9006 4.92068H29.2578C28.9902 4.52416 28.6311 4.19786 28.2108 3.96931C27.7906 3.74076 27.3215 3.61668 26.8432 3.60755C25.2508 3.60755 23.8683 4.95537 23.8683 6.93287C23.8683 8.91034 25.256 10.2408 26.8432 10.2408C27.332 10.2366 27.8121 10.1108 28.2403 9.87495C28.6684 9.63903 29.0312 9.30041 29.296 8.88952H32.918ZM40.7863 12.8792L37.4089 8.02225H37.3379V12.8792H34.1357V0.981289H37.3379V5.55036H37.4072L40.7152 0.981289H44.2851L39.9641 6.44196L44.5488 12.8792H40.7863ZM62.3706 0.981289H65.5728V9.60946C65.5728 11.7448 63.805 13.1811 61.5119 13.1811C59.1666 13.1811 57.5569 11.8853 57.5569 9.68054V8.88952H60.4087V9.60596C60.4028 9.73817 60.4239 9.8702 60.4707 9.99397C60.5174 10.1178 60.5889 10.2308 60.6808 10.326C60.7727 10.4213 60.8829 10.4969 61.005 10.5481C61.127 10.5994 61.2581 10.6253 61.3905 10.6242C61.5232 10.6278 61.6551 10.6038 61.778 10.5536C61.9009 10.5034 62.0119 10.4282 62.1041 10.3328C62.1963 10.2373 62.2676 10.1237 62.3135 9.99916C62.3594 9.87464 62.3788 9.74186 62.3706 9.60946V0.981289ZM73.1672 13.1811C69.5972 13.1811 66.7261 10.5895 66.7261 6.95025C66.7261 3.31093 69.6022 0.684664 73.1672 0.684664C76.7316 0.684664 79.6634 3.30919 79.6634 6.95025C79.6634 10.5913 76.7372 13.1811 73.1672 13.1811ZM76.2896 6.93637C76.2896 4.90507 74.8894 3.62836 73.1916 3.62836C71.4932 3.62836 70.1229 4.95537 70.1229 6.93287C70.1229 8.91034 71.4882 10.2287 73.186 10.2287C74.8844 10.2287 76.2821 8.91034 76.2821 6.93287L76.2896 6.93637ZM88.8569 12.8792L83.9304 6.33789H83.8422V12.8792H80.8148V0.981289H83.5803L88.5499 7.56254H88.6381V0.981289H91.6655V12.8792H88.8569ZM93.3014 12.8792V0.981289H102.387V3.71163H96.4894V5.51566H100.585V8.19572H96.4894V10.1559H102.387V12.8792H93.3014ZM110.28 4.84956C109.999 3.92152 109.317 3.28837 108.039 3.28837C106.989 3.28837 106.446 3.79662 106.446 4.35692C106.446 4.9519 107.076 5.24853 108.073 5.3977L108.949 5.52086C112.03 5.958 113.459 6.84614 113.459 9.03699C113.459 11.6286 111.086 13.1863 108.181 13.1863C105.435 13.1863 103.36 11.6459 103.167 8.8809H106.214C106.334 9.39174 106.629 9.84444 107.048 10.1611C107.467 10.4777 107.983 10.6385 108.507 10.6155C109.504 10.6155 110.257 10.1246 110.257 9.3718C110.257 8.82883 109.872 8.4802 108.315 8.25123L106.967 8.05169C104.586 7.70482 103.256 6.56859 103.256 4.5061C103.256 2.37595 105.182 0.689867 108.192 0.689867C111.393 0.689867 113.049 2.56156 113.267 4.85303L110.28 4.84956ZM56.367 11.0562L54.6843 9.3683L56.138 7.91298L54.1431 5.9233L52.6895 7.3787L50.4709 5.16006C50.1326 4.81313 49.9366 4.59283 49.9296 4.26151C49.9286 4.04452 50.0124 3.83571 50.1631 3.67954C50.3137 3.52337 50.5194 3.43219 50.7363 3.42541C51.1387 3.42541 51.3503 3.57285 51.6539 3.89897L51.9869 4.23202L53.935 2.28228L53.6644 2.01167C53.2777 1.58505 52.8044 1.24595 52.2761 1.0171C51.7478 0.788238 51.1766 0.674897 50.6009 0.684664C48.2765 0.684664 46.8784 2.46094 46.8784 4.27886C46.8784 5.11842 47.1872 5.93371 48.0233 6.77502L50.6548 9.40993L50.3876 9.6771C49.9418 10.1385 49.6816 10.442 49.1733 10.4507C48.561 10.4612 48.0163 10.05 48.0042 9.40993C48.0042 8.99192 48.1776 8.71612 48.5107 8.36918L48.5836 8.2963L46.7622 6.46972L46.5783 6.65359C45.8844 7.31275 45.1715 8.35874 45.1715 9.75168C45.1715 11.6338 46.6893 13.1793 49.0692 13.1793C50.5004 13.1793 51.5204 12.5427 52.4987 11.5471L52.6444 11.4031L54.3374 13.0909L56.367 11.0562Z" fill="black"/>
</g>
<defs>
<clipPath id="clip0_1_3378">
<rect width="113.77" height="12.5022" fill="white" transform="translate(0.140015 0.684082)"/>
</clipPath>
</defs>
</svg>
