<svg width="57" height="24" viewBox="0 0 57 24" fill="none" xmlns="http://www.w3.org/2000/svg">
<g clip-path="url(#clip0_1_3315)">
<path d="M44.184 14.591C40.851 14.591 40.2437 12.6396 40.2437 12.1558H42.6575C42.6575 12.44 43.0375 12.7802 43.3578 12.9188C43.624 13.0221 43.9088 13.0685 44.194 13.0552H44.1897C44.8694 13.0552 45.4272 12.8883 45.4272 12.4883C45.4272 12.001 44.856 11.893 44.2266 11.8021C42.5125 11.5514 40.1108 11.2601 40.1108 9.3173C40.1108 7.50518 42.0636 6.58314 44.1364 6.58314C47.4552 6.58314 48.3346 8.4464 48.3346 8.98556H45.8817C45.8673 8.84877 45.8183 8.71789 45.7395 8.60511C45.6608 8.49232 45.5548 8.40131 45.4314 8.34056L45.4264 8.33842C45.1281 8.18491 44.798 8.10341 44.4624 8.10046H44.4611C43.5447 8.10046 43.029 8.29367 43.029 8.71918C43.029 9.06653 43.4935 9.23915 44.1612 9.35494C45.9038 9.65826 48.5789 9.76339 48.5789 11.9115C48.5789 13.0026 47.6463 14.5895 44.1847 14.5895L44.184 14.591ZM40.0895 7.71829L39.1497 8.75398H38.759L39.1896 7.62453H38.3286V6.11857H40.0895V7.71829ZM34.6269 6.76428H37.7461V14.3743H34.6269V6.76428ZM30.5595 14.3892H27.8338L23.7641 6.77849H27.4367L29.7723 11.4043L29.8362 11.5435L29.8945 11.4043L32.0781 6.77849H34.2831L30.5595 14.3892ZM24.704 11.2274H18.3917C18.3996 11.4698 18.4565 11.708 18.5588 11.9278C18.6612 12.1477 18.807 12.3444 18.9874 12.5064C19.168 12.6684 19.3793 12.7921 19.6089 12.8702C19.8384 12.9482 20.0815 12.9791 20.3232 12.9607L20.3168 12.9614C20.6401 12.9777 20.9624 12.9123 21.2537 12.7712C21.5451 12.6302 21.7963 12.4182 21.9841 12.1545L21.9883 12.1488H24.5051C23.6825 14.0646 22.0863 14.6088 19.9112 14.6088C17.0819 14.6088 15.0815 13.0566 15.0815 10.5973C15.0815 7.97118 17.0521 6.58527 19.9112 6.58527C23.11 6.58527 24.714 8.68579 24.714 10.7075C24.7222 10.8858 24.7182 11.0645 24.7019 11.2423L24.704 11.2274ZM15.0283 14.3772H7.83452V6.78488H11.0687V12.3115H15.0283V14.3772ZM51.8793 0.576397C51.902 0.62399 51.9275 0.670163 51.9489 0.719178C52.1392 1.15036 52.2501 1.654 52.2501 2.18321V2.21518V2.21376V2.25212C52.2501 2.78773 52.1392 3.29705 51.9397 3.75878L51.9489 3.73391C51.7565 4.18427 51.4808 4.59424 51.1363 4.94223C50.8015 5.27861 50.4043 5.54645 49.967 5.73072L49.9428 5.73995C49.4895 5.92938 49.0028 6.02622 48.5115 6.0248H48.4866H48.4881H48.4675C47.9489 6.0248 47.4545 5.92038 47.0049 5.73072L47.0297 5.73995C46.5801 5.55516 46.1711 5.28415 45.8256 4.94223C45.4847 4.60188 45.211 4.2004 45.0187 3.75878L45.0095 3.73391C44.8087 3.26576 44.706 2.76149 44.7076 2.25212V2.21163V2.21376V2.18321C44.7076 1.654 44.8184 1.15107 45.0187 0.695736L45.0095 0.719178C45.0307 0.670163 45.0563 0.62399 45.0798 0.576397H0.566895L5.8299 23.3077C16.8794 16.1075 27.4986 23.0272 27.9261 23.2906H27.9275L27.9304 23.2886H27.936L27.9389 23.2899L27.941 23.2906C28.3673 23.0264 38.9878 16.1075 50.0366 23.3077L55.2989 0.576397H51.8793ZM19.8508 8.17646H19.8387C19.4529 8.17646 19.0829 8.32974 18.8101 8.60257C18.5372 8.8754 18.384 9.24543 18.384 9.63127L18.3854 9.70231V9.69876H21.4406C21.454 9.48883 21.4211 9.27853 21.3445 9.08264C21.2679 8.88676 21.1493 8.71005 20.997 8.56494C20.8446 8.41984 20.6624 8.30986 20.463 8.24275C20.2637 8.17562 20.052 8.15301 19.8431 8.17646L19.8494 8.17576L19.8508 8.17646ZM46.2774 4.54088C46.5587 4.83651 46.8973 5.07183 47.2724 5.23253C47.6476 5.39324 48.0515 5.47597 48.4596 5.4757H48.4894H48.4881H48.5143C48.9441 5.4757 49.3526 5.38407 49.7212 5.21927L49.7027 5.22707C50.0703 5.06521 50.4025 4.83252 50.6801 4.5423L50.6816 4.54088C50.9551 4.25176 51.1753 3.90937 51.3259 3.53147L51.3337 3.51015C51.4829 3.1358 51.5695 2.70106 51.5695 2.24714V2.21235V2.21376V2.18819C51.57 1.75401 51.4871 1.32378 51.3252 0.920918L51.3329 0.94365C51.2796 0.811991 51.2179 0.683868 51.1483 0.560059L51.1569 0.576397H50.0899C50.1943 0.765351 50.2554 0.991243 50.2554 1.23134L50.2547 1.28107V1.27894C50.269 1.44075 50.2467 1.60371 50.1894 1.75572C50.1321 1.90772 50.0412 2.04486 49.9237 2.15694C49.6999 2.34163 49.4158 2.4631 49.1061 2.48796H49.1011L50.3548 4.44924H49.6225L48.4298 2.5391H47.7074V4.44924H47.0261V0.576397H45.8022C45.7453 0.675846 45.6864 0.796606 45.6345 0.920918L45.626 0.942939C45.4688 1.33848 45.3888 1.76044 45.3902 2.18606V2.21376V2.21235V2.24644C45.3902 2.70036 45.4769 3.13438 45.6345 3.53218L45.626 3.50873C45.7838 3.90867 46.0039 4.25105 46.2788 4.54159L46.2774 4.54088ZM48.8552 1.96443C48.9896 1.95661 49.1138 1.92607 49.2282 1.87563L49.2212 1.87848C49.3253 1.83308 49.4138 1.75796 49.4754 1.66253L49.4769 1.6604C49.538 1.55384 49.5735 1.42669 49.5735 1.29101L49.572 1.24697V1.2491L49.5728 1.21856C49.5728 1.10319 49.5426 0.989821 49.4854 0.889663L49.4868 0.893214C49.4325 0.808415 49.3574 0.738952 49.2687 0.691474L49.2659 0.690053C49.1701 0.640742 49.0665 0.608529 48.9597 0.594866L48.9548 0.594155C48.9049 0.586761 48.855 0.581075 48.8048 0.577107H47.7066V1.98006H48.4184C48.5723 1.98006 48.7184 1.97438 48.8552 1.96443Z" fill="black"/>
</g>
<defs>
<clipPath id="clip0_1_3315">
<rect width="55.7375" height="22.75" fill="white" transform="translate(0.566284 0.560059)"/>
</clipPath>
</defs>
</svg>
