<svg width="68" height="24" viewBox="0 0 68 24" fill="none" xmlns="http://www.w3.org/2000/svg">
<g clip-path="url(#clip0_1_3384)">
<path d="M35.3447 0.643543C35.2612 0.643543 34.7187 0.643546 34.4682 0.685289C32.548 0.852262 31.3374 2.22978 30.1687 3.81602C29.125 5.27703 28.3319 6.52932 27.5805 7.94859C26.8292 6.52932 25.9943 5.27703 24.9925 3.77428C23.9489 2.27153 22.4879 0.727033 20.526 0.601804C20.1085 0.560061 19.5242 0.560059 19.3572 0.560059C19.2319 0.560059 19.1484 0.560057 19.1484 0.643543C19.1484 0.810516 19.2737 0.894005 19.3989 0.894005C20.8182 0.97749 22.1957 3.02291 22.8219 3.85776C23.9072 5.31878 24.575 6.48758 25.3682 7.90684C26.1195 9.28437 26.2447 10.0357 26.2447 11.455V14.1266C26.203 16.172 25.7856 16.3806 24.8255 16.5059C24.742 16.5059 24.7002 16.5476 24.6585 16.5894C24.6167 16.6311 24.6169 16.7146 24.6169 16.7981C24.6169 16.8398 24.6167 16.8816 24.7002 16.8816C24.909 16.8816 26.3282 16.7981 27.4135 16.7981C28.4989 16.7981 29.9182 16.8816 30.1269 16.8816C30.2104 16.8816 30.2521 16.8398 30.2521 16.7981C30.2521 16.7564 30.2521 16.6311 30.2104 16.5894C30.1687 16.5476 30.1269 16.5059 30.0017 16.5059C29.1667 16.4224 28.6659 16.172 28.6242 14.1266V11.455C28.6242 10.0357 28.7494 9.24262 29.5007 7.8651C30.2521 6.48758 31.087 5.19355 32.0053 3.85776C32.6315 2.98116 34.009 1.01923 35.303 0.852258C35.4282 0.852258 35.47 0.72703 35.47 0.643543C35.5535 0.685287 35.5535 0.643543 35.3447 0.643543Z" fill="black"/>
<path d="M0.447485 0.977247C1.49107 1.18596 2.61811 2.64697 2.57638 3.81579V13.8341C2.53463 16.297 2.11721 16.4639 0.864916 16.6309C0.739687 16.6309 0.6562 16.7144 0.6562 16.8814C0.6562 16.9648 0.697938 16.9648 0.781424 16.9648C1.03188 16.9648 1.95023 16.8814 3.0773 16.8814C4.12088 16.8814 5.16445 16.9648 5.37316 16.9648C5.4984 16.9648 5.49839 16.9231 5.49839 16.8814C5.49839 16.7144 5.41491 16.6309 5.28968 16.6309C3.95389 16.4221 3.61997 16.297 3.57822 13.8341V4.19147L14.9741 17.1736C15.0576 17.2571 15.1828 17.2988 15.2663 17.2988C15.6837 17.2988 15.8507 17.2153 15.8507 17.1318C15.7672 16.13 15.7672 13.8341 15.7672 12.5401V3.77404C15.809 1.31119 16.2263 1.14422 17.4786 0.977247C17.6038 0.977247 17.6873 0.893765 17.6873 0.726793C17.6873 0.643307 17.6456 0.643302 17.5621 0.643302C17.3117 0.643302 16.3933 0.726793 15.2663 0.726793C14.2227 0.726793 13.1791 0.643302 12.9705 0.643302C12.8452 0.643302 12.8452 0.68505 12.8452 0.726793C12.8452 0.893765 12.9287 0.977247 13.054 0.977247C14.3897 1.18596 14.7236 1.31119 14.7653 3.77404V13.1245L3.87042 0.685048C3.61997 0.685048 3.0773 0.685048 2.24243 0.685048C1.32408 0.685048 0.864911 0.601562 0.363993 0.601562C0.238764 0.601562 0.23877 0.643304 0.23877 0.685048C0.23877 0.893763 0.322256 0.977247 0.447485 0.977247Z" fill="black"/>
<path d="M62.8951 0.643555C62.5612 0.643555 60.9332 0.727046 60.0983 0.727046C58.8461 0.727046 57.3433 0.643555 57.0511 0.643555C56.9258 0.643555 56.8841 0.64356 56.8841 0.727046C56.8841 0.894019 56.9676 0.977503 57.0928 1.01925C58.4703 1.18622 58.8461 1.47842 58.8461 2.89768C58.8461 2.98118 58.8461 14.6275 58.8461 14.6275C58.8461 15.2536 58.8043 15.8798 58.7208 16.339C58.2616 19.3445 56.2998 20.3046 55.5066 20.4298C55.298 20.4715 55.2561 20.6803 55.2561 20.722C55.2561 20.8055 55.2978 20.8473 55.4231 20.8473C55.6318 20.8473 55.924 20.8473 56.3415 20.8055C58.9295 20.4715 60.808 18.4678 61.142 15.4206C61.1837 15.0866 61.1837 14.6693 61.1837 14.0431V2.89768C61.1837 1.43668 61.7681 1.18622 62.8117 1.06099C62.9368 1.06099 63.0203 0.935758 63.0203 0.768786C63.0621 0.685299 63.0203 0.685298 62.8951 0.643555Z" fill="black"/>
<path d="M37.39 0.685059C37.2648 0.685059 37.2648 0.7268 37.2648 0.768544C37.2648 0.935516 37.3483 1.019 37.4735 1.019C38.1414 1.10249 38.6423 1.26947 38.8928 1.77038C39.185 2.27129 39.2685 3.1479 39.2267 5.06809V12.7488C39.2267 14.669 39.1432 15.3786 38.8094 15.9631C38.5589 16.3804 38.1414 16.6309 37.39 16.7144C37.2648 16.7144 37.1814 16.8396 37.1814 16.9649C37.1814 17.0484 37.223 17.0484 37.3065 17.0484C37.5987 17.0484 39.4355 16.9231 40.813 16.9231C41.3974 16.9231 43.401 17.0066 44.7786 17.0066C51.3322 17.0066 53.8369 12.6653 53.8369 8.69973C53.8369 3.7323 50.5809 0.685059 45.1125 0.685059C43.9855 0.685059 41.7314 0.852029 40.2704 0.852029C38.851 0.810286 37.5987 0.685059 37.39 0.685059ZM41.5227 1.56167C41.8983 1.51992 42.7749 1.39469 44.1942 1.39469C48.4937 1.39469 51.1653 4.02451 51.207 9.36762C51.207 13.9594 48.2015 16.2969 44.4864 16.2969C43.234 16.2969 42.4827 16.1718 42.0653 15.7961C41.6479 15.4621 41.5644 14.7943 41.5644 13.5419V1.56167H41.5227Z" fill="black"/>
<path d="M13.7219 23.2267H11.8018V20.6387H12.2191V22.8093H13.7219V23.2267Z" fill="black"/>
<path d="M17.4369 21.9327C17.4369 21.4317 17.0195 20.9726 16.3516 20.9726C15.6837 20.9726 15.2663 21.39 15.2663 21.9327C15.2663 22.4336 15.6837 22.8927 16.3516 22.8927C17.0195 22.8927 17.4369 22.4336 17.4369 21.9327ZM16.3516 23.3102C15.4332 23.3102 14.8489 22.684 14.8489 21.9327C14.8489 21.1813 15.3915 20.5552 16.3516 20.5552C17.3117 20.5552 17.8544 21.1813 17.8544 21.9327C17.8544 22.684 17.3117 23.3102 16.3516 23.3102Z" fill="black"/>
<path d="M21.4025 21.3065C21.1938 21.1813 20.9433 21.0144 20.4007 21.0144C19.9415 21.0144 19.7328 21.1395 19.7328 21.3482C19.7328 21.5987 19.8163 21.6822 20.5259 21.6822C21.653 21.6822 21.7782 22.0579 21.7782 22.4336C21.7782 23.185 21.1103 23.3102 20.5677 23.3102C19.7328 23.3102 19.2736 22.9762 19.1067 22.851L19.3153 22.4754C19.6075 22.6423 19.858 22.851 20.5677 22.851C21.0268 22.851 21.319 22.7675 21.319 22.4754C21.319 22.1414 21.152 22.1414 20.2337 22.0997C19.691 22.0997 19.2736 21.9327 19.2736 21.39C19.2736 20.9726 19.5658 20.5552 20.4007 20.5552C20.985 20.5552 21.4443 20.8057 21.6112 20.8891L21.4025 21.3065Z" fill="black"/>
<path d="M26.3699 21.1395L25.8272 22.1832H26.9125L26.3699 21.1395ZM27.9562 23.2267H27.4552L27.1213 22.6005H25.6185L25.3263 23.2267H24.8672L26.203 20.6387H26.6204L27.9562 23.2267Z" fill="black"/>
<path d="M31.5878 23.2267H31.1703L29.626 21.3065V23.2267H29.2085V20.6387H29.626L31.1703 22.5588V20.6387H31.5878V23.2267Z" fill="black"/>
<path d="M35.804 22.851C35.5952 22.9762 35.2195 23.3102 34.5516 23.3102C33.6333 23.3102 33.0906 22.684 33.0906 21.9327C33.0906 21.223 33.6333 20.5552 34.5933 20.5552C35.2613 20.5552 35.5952 20.8891 35.7621 20.9726L35.5117 21.3482C35.2613 21.1395 34.9273 21.0144 34.5933 21.0144C33.8838 21.0144 33.508 21.4735 33.508 21.9744C33.508 22.4336 33.8838 22.8927 34.5516 22.8927C34.8438 22.8927 35.136 22.8092 35.3865 22.6423V22.2249H34.6768V21.7657H35.804V22.851Z" fill="black"/>
<path d="M39.519 23.2267H37.3066V20.6387H39.4772V21.0978H37.724V21.6822H38.6842V22.0997H37.724V22.8093H39.519V23.2267Z" fill="black"/>
<path d="M42.9002 23.2267H40.98V20.6387H41.3974V22.8093H42.9002V23.2267Z" fill="black"/>
<path d="M46.4483 23.2267H44.2358V20.6387H46.4065V21.0978H44.6533V21.6822H45.6134V22.0997H44.6533V22.8093H46.4483V23.2267Z" fill="black"/>
<path d="M49.913 21.3065C49.7043 21.1813 49.4538 21.0144 48.9112 21.0144C48.452 21.0144 48.2433 21.1395 48.2433 21.3482C48.2433 21.5987 48.3268 21.6822 49.0364 21.6822C50.1635 21.6822 50.2887 22.0579 50.2887 22.4336C50.2887 23.185 49.6208 23.3102 49.0782 23.3102C48.2433 23.3102 47.7842 22.9762 47.6172 22.851L47.8259 22.4754C48.118 22.6423 48.3685 22.851 49.0782 22.851C49.5373 22.851 49.8295 22.7675 49.8295 22.4754C49.8295 22.1414 49.6625 22.1414 48.7442 22.0997C48.2015 22.0997 47.7842 21.9327 47.7842 21.39C47.7842 20.9726 48.0763 20.5552 48.9112 20.5552C49.4955 20.5552 49.9547 20.8057 50.1217 20.8891L49.913 21.3065Z" fill="black"/>
<path d="M65.8589 1.72886C65.8589 1.93758 65.7337 2.02106 65.525 2.02106H65.3164V1.47841H65.525C65.7754 1.47841 65.8589 1.56189 65.8589 1.72886ZM66.2764 2.85593L65.9007 2.18805C66.0677 2.10456 66.1929 1.97933 66.1929 1.72886C66.1929 1.31144 65.8589 1.22795 65.5667 1.22795H64.9824V2.89768H65.2745V2.27153H65.5667L65.9007 2.89768L66.2764 2.85593ZM66.7355 2.10456C66.7355 1.39492 66.1929 0.852258 65.5667 0.852258C64.8989 0.852258 64.3979 1.39492 64.3979 2.10456C64.3979 2.81419 64.9406 3.35684 65.5667 3.35684C66.2347 3.35684 66.7355 2.81419 66.7355 2.10456ZM67.0277 2.10456C67.0277 2.93941 66.3599 3.64905 65.5667 3.64905C64.7736 3.64905 64.1057 2.93941 64.1057 2.10456C64.1057 1.22795 64.7736 0.560059 65.5667 0.560059C66.3599 0.560059 67.0277 1.26969 67.0277 2.10456Z" fill="black"/>
</g>
<defs>
<clipPath id="clip0_1_3384">
<rect width="67.1125" height="22.75" fill="white" transform="translate(0.23877 0.560059)"/>
</clipPath>
</defs>
</svg>
