<svg width="36" height="24" viewBox="0 0 36 24" fill="none" xmlns="http://www.w3.org/2000/svg">
<g clip-path="url(#clip0_1_3289)">
<path d="M24.6519 5.39257C24.3968 5.39257 24.178 5.56269 23.9836 5.92724L23.2546 7.15454C21.6506 9.74279 20.5812 11.0552 20.0222 11.0552C19.8886 11.0552 19.8278 9.37826 19.8278 6.02444C19.8278 4.84575 19.4876 3.89794 18.9894 3.47264C18.5397 3.02303 18.1266 2.8286 17.8471 2.8286C17.8228 2.8286 17.7135 2.8529 17.6527 2.8529C17.5677 2.76785 17.4218 2.71924 17.2031 2.71924C16.4132 2.71924 15.2953 3.21745 14.1531 4.17742C13.5698 4.66347 13.0473 5.41687 12.6706 6.35254L12.4761 6.72923C12.0873 7.43402 11.4919 8.32107 10.6777 9.36611C9.86361 10.399 9.00085 11.2374 8.12594 11.8814C8.81857 10.8729 9.15882 9.52407 9.15882 7.79856C9.15882 5.2832 8.01659 4.01945 5.74425 4.01945C4.9058 4.01945 4.20102 4.49336 3.59345 5.44117C3.2289 4.26248 2.53627 3.2539 1.5277 3.2539C0.810754 3.26606 0.215332 3.82502 0.215332 4.42045C0.215332 4.8336 0.36115 6.99656 0.689239 10.885V10.9336C0.859361 17.2281 1.1996 20.8979 1.69782 21.955C1.78287 22.0644 1.83148 22.1251 1.83148 22.1251C2.62132 23.0244 4.49265 22.2952 4.66277 21.1774C4.72353 20.9465 4.74784 20.5577 4.74784 20.0594C4.74784 18.7228 4.60202 16.9851 4.29823 14.8343C4.27392 14.6642 4.27392 14.4212 4.27392 14.1416C4.29823 14.1173 4.35899 14.1173 4.44405 14.1173C4.5048 14.1173 4.8572 14.1416 5.03947 14.1416C5.81717 14.1416 6.47334 14.0565 7.59129 13.7163C8.17455 13.5705 8.73352 13.291 9.26819 12.9265C10.2039 12.3554 11.2124 11.4683 12.1359 10.1802C12.221 11.201 12.5004 11.6749 12.8408 11.8571C13.181 12.0272 13.3147 12.0272 13.6792 12.0272C14.1531 12.0272 14.6634 11.6627 15.2467 10.9093C15.83 10.1559 16.316 9.19598 16.7535 8.00514C16.7535 11.6141 17.7621 13.5948 19.2932 13.5948C20.6905 13.5948 22.4282 11.6627 24.5183 7.77426L24.6641 7.51907C24.8585 7.15454 25.1138 6.46189 25.1138 6.03659C25.1138 5.6842 24.9314 5.39257 24.6519 5.39257ZM5.97514 10.1559C5.69565 10.885 5.10022 11.5534 4.18887 12.1366C4.0795 9.98583 3.97014 8.35753 3.86077 7.25174C4.35899 6.07305 4.91795 5.48977 5.56199 5.48977C6.14525 5.48977 6.40044 5.76926 6.40044 7.16669C6.40044 8.44259 6.25462 9.42686 5.97514 10.1559ZM16.8629 4.35969C16.717 5.02802 16.3039 6.12166 15.6113 7.60414C14.9187 9.08662 14.4325 9.81571 14.1288 9.81571C13.9829 9.81571 13.8979 9.56052 13.8979 9.06231C13.8979 7.92007 14.4082 6.70492 14.9308 6.01229C15.2103 5.64775 15.5141 5.31966 15.8543 5.00372C16.5469 4.33539 16.717 4.25032 16.8872 4.16527C16.8629 4.20172 16.8629 4.27464 16.8629 4.35969Z" fill="black"/>
<path d="M31.5904 3.2659C31.5904 3.43603 31.5661 3.95854 31.5053 4.80915C31.8091 4.80915 32.1493 4.78484 32.5625 4.76054C32.8906 4.73624 33.0729 4.71193 33.1822 4.71193C34.0206 4.71193 34.361 5.07647 34.4339 6.08505V6.23087C34.4339 6.85059 33.9599 7.15439 33.0364 7.15439C32.7083 7.15439 32.1616 7.10577 31.3595 7.04502H31.3352L31.2744 8.89204C31.2501 9.42671 31.2501 9.87631 30.4117 9.98567C30.3874 10.01 30.351 10.01 30.2781 10.01C29.7433 10.01 29.2208 9.64544 29.2208 9.06216V9.01356H29.2451C29.1601 8.60041 29.1115 7.89562 29.1115 6.91135L27.3738 6.85059C27.0093 6.82629 27.0093 6.82629 26.6812 6.74122C26.4017 6.63187 26.2681 6.40099 26.2559 5.98784V5.85417C26.2559 5.2709 26.6205 4.8213 27.2037 4.79699C27.5318 4.73624 28.2123 4.68763 29.2208 4.68763C29.2451 2.8649 29.6704 1.9171 30.5089 1.83203C31.2258 1.84418 31.5904 2.31809 31.5904 3.2659Z" fill="black"/>
</g>
<defs>
<clipPath id="clip0_1_3289">
<rect width="35.1591" height="22.75" fill="white" transform="translate(0.215332 0.810059)"/>
</clipPath>
</defs>
</svg>
