<svg width="115" height="22" viewBox="0 0 115 22" fill="none" xmlns="http://www.w3.org/2000/svg">
<g clip-path="url(#clip0_1_3321)">
<path d="M18.4231 18.7267C18.083 18.7267 17.8278 18.5567 17.5727 18.4715C17.4027 18.3865 17.2326 18.3015 17.1475 18.1315C16.9775 17.7063 16.8074 17.2811 16.8074 16.7708C16.8074 16.0055 16.8924 15.1551 16.7223 14.3898V14.3048C16.7223 13.6244 16.3822 13.0292 15.9571 12.519C15.7019 12.2638 15.4467 12.0938 15.1917 11.9237C14.8515 11.7536 14.4263 11.5835 14.0011 11.5835C13.8311 11.5835 13.746 11.4985 13.5759 11.4985C13.4059 11.4135 13.4059 11.2434 13.5759 11.1583C13.661 11.0733 13.8311 11.0733 13.9161 11.0733C14.0011 11.0733 14.0862 10.9883 14.1712 10.9883C14.4263 10.8182 14.7665 10.5631 15.0216 10.393C15.3617 10.1379 15.7019 9.88276 15.9571 9.54261C16.2121 9.11742 16.5523 8.77728 16.6373 8.26705C16.8074 7.84186 16.9775 7.33163 16.8924 6.82141C16.8074 6.31118 16.8074 5.71591 16.6373 5.20569C16.5523 4.86553 16.3822 4.61042 16.2971 4.27027C16.1271 3.84508 15.8719 3.50493 15.5319 3.16478C15.2767 2.90966 14.9365 2.73959 14.6815 2.48447C14.5964 2.39943 14.4263 2.3144 14.3413 2.22936C13.9161 2.05928 13.576 1.80417 13.0657 1.80417C12.9807 1.80417 12.9807 1.80417 12.8956 1.71913C12.3854 1.54906 11.7902 1.46402 11.28 1.37898C10.2595 1.29395 9.23903 1.29395 8.21857 1.29395C7.36819 1.29395 6.51781 1.29395 5.5824 1.29395C5.07217 1.29395 4.56195 1.29395 4.13676 1.29395C3.71157 1.29395 3.37142 1.29395 2.94623 1.29395C2.35097 1.29395 1.67067 1.29395 1.0754 1.29395C0.905323 1.29395 0.820285 1.29395 0.65021 1.29395C0.480134 1.29395 0.395096 1.37898 0.310059 1.54906C0.310059 1.63409 0.310059 1.63409 0.310059 1.71913C0.310059 2.14432 0.310059 2.48447 0.310059 2.90966C0.310059 2.9947 0.310059 2.9947 0.310059 3.07974C0.310059 3.33485 0.480134 3.41989 0.735248 3.41989C1.16044 3.41989 1.67066 3.41989 2.09585 3.41989C2.52104 3.41989 2.77616 3.675 2.8612 4.01515C2.8612 4.10019 2.8612 4.27027 2.8612 4.35531C2.8612 5.80095 2.8612 7.16156 2.8612 8.6072C2.8612 9.45757 2.8612 10.3079 2.8612 11.1583C2.8612 11.5835 2.8612 11.9237 2.8612 12.3488C2.8612 12.9442 2.8612 13.5394 2.8612 14.2196C2.8612 15.4102 2.8612 16.6007 2.8612 17.7913C2.8612 17.9613 2.8612 18.1315 2.8612 18.3015C2.77616 18.7267 2.60608 18.8967 2.18089 18.8967C1.7557 18.8967 1.33051 18.8967 0.905323 18.8967C0.735247 18.8967 0.65021 18.8967 0.480134 18.9818C0.395096 18.9818 0.310059 19.1519 0.310059 19.2369C0.310059 19.4921 0.395096 19.8322 0.395096 20.0873C0.395096 20.3424 0.395096 20.5975 0.395096 20.8526C0.395096 21.1078 0.395096 21.1928 0.65021 21.2778C0.735248 21.2778 0.820285 21.2778 0.990361 21.2778C1.0754 21.2778 1.16044 21.2778 1.24547 21.2778C1.67066 21.2778 2.01082 21.2778 2.43601 21.2778C4.05173 21.2778 5.66744 21.2778 7.28316 21.2778C7.45323 21.2778 7.53827 21.2778 7.70835 21.2778C8.38865 21.2778 9.15399 21.2778 9.83429 21.2778C10.1744 21.2778 10.2595 21.1928 10.2595 20.8526C10.2595 20.3424 10.2595 19.9172 10.2595 19.407C10.2595 19.1519 10.1744 18.9818 9.83429 18.9818C9.74925 18.9818 9.66422 18.9818 9.57918 18.9818C9.06895 18.9818 8.55872 18.9818 8.0485 18.9818C7.70835 18.9818 7.53827 18.8117 7.45323 18.4715C7.36819 17.8763 7.36819 17.3661 7.36819 16.7708C7.36819 15.6653 7.36819 14.6448 7.36819 13.5394C7.36819 13.3693 7.36819 13.2842 7.36819 13.1142C7.36819 12.9442 7.45323 12.8591 7.62331 12.8591C7.79338 12.8591 7.87842 12.774 8.0485 12.774C8.64376 12.774 9.23903 12.774 9.74925 12.8591C10.0894 12.8591 10.3445 12.8591 10.6846 12.9442C11.1098 13.0292 11.45 13.2842 11.7052 13.6244C12.0452 14.0496 12.1303 14.5598 12.2154 15.07C12.3854 15.8354 12.2154 16.6007 12.3004 17.3661C12.3004 17.7063 12.3854 18.1315 12.3854 18.5567C12.3854 18.6417 12.4704 18.7267 12.4704 18.8967C12.5555 19.0669 12.6406 19.3219 12.7256 19.4921C12.8956 19.9172 13.1508 20.2574 13.4909 20.5125C13.9161 20.7676 14.2563 21.0227 14.7665 21.0227C14.9365 21.0227 15.0216 21.1078 15.1917 21.1078C15.4467 21.1928 15.6169 21.1928 15.8719 21.1928C16.1271 21.1928 16.3822 21.1928 16.6373 21.1928C17.1475 21.1928 17.6578 21.1928 18.168 21.1928C18.4231 21.1928 18.5082 21.1078 18.5082 20.8526C18.5082 20.7676 18.5082 20.7676 18.5082 20.6826C18.5082 20.3424 18.5082 20.0023 18.5082 19.6621C18.5082 19.4921 18.5082 19.407 18.5082 19.2369C18.6782 18.8967 18.5082 18.7267 18.4231 18.7267ZM12.4704 7.07652C12.4704 7.41667 12.3854 7.75682 12.2154 8.01194C12.1303 8.18201 12.1303 8.35209 12.0452 8.43713C11.8752 8.8623 11.535 9.11742 11.1948 9.37253C11.1948 9.37253 11.1948 9.37253 11.1098 9.45757C10.5996 9.62765 10.1744 9.88276 9.57918 9.79772C9.06895 9.71268 8.64376 9.79772 8.13353 9.79772C8.0485 9.79772 7.96346 9.79772 7.87842 9.71268C7.70835 9.71268 7.62331 9.54261 7.62331 9.37253C7.62331 9.28749 7.62331 9.20246 7.62331 9.03238C7.62331 8.77727 7.62331 8.43713 7.62331 8.18201C7.62331 7.24659 7.62331 6.31118 7.53827 5.4608C7.53827 5.12065 7.53827 4.7805 7.53827 4.44034C7.53827 4.27027 7.53827 4.10019 7.53827 3.93012C7.53827 3.58996 7.62331 3.41989 7.96346 3.41989C8.30361 3.41989 8.7288 3.41989 9.06895 3.41989C9.4091 3.41989 9.74925 3.41989 10.0894 3.41989C10.6846 3.41989 11.1098 3.675 11.535 4.01515L11.62 4.10019C11.9602 4.44034 12.1303 4.86553 12.3004 5.20569C12.6406 5.80095 12.5555 6.48125 12.4704 7.07652Z" fill="black"/>
<path d="M113.24 16.8558C113.155 16.8558 113.155 16.8558 113.071 16.8558C112.985 16.8558 112.9 16.8558 112.815 16.8558C112.475 16.8558 112.219 16.8558 111.88 16.8558C111.71 16.8558 111.625 16.9408 111.625 17.1109V17.1959C111.625 17.366 111.625 17.536 111.625 17.6211C111.625 17.8762 111.625 18.1314 111.454 18.3864C111.369 18.7266 111.2 18.9818 110.944 19.1518C110.689 19.3218 110.434 19.492 110.179 19.492C110.094 19.492 110.094 19.492 110.009 19.492C109.754 19.577 109.498 19.492 109.244 19.492C109.158 19.492 109.073 19.4069 108.988 19.4069C108.648 19.1518 108.394 18.8116 108.223 18.3864C108.138 18.1314 108.053 17.7912 108.053 17.536C107.968 17.0258 107.968 16.5156 107.968 16.0054C107.968 15.8353 108.053 15.7503 108.223 15.7503C108.478 15.7503 108.819 15.7503 109.073 15.7503H109.159C109.754 15.7503 110.349 15.7503 110.944 15.7503C111.2 15.7503 111.369 15.7503 111.625 15.7503C111.965 15.7503 112.39 15.7503 112.73 15.7503C112.815 15.7503 112.9 15.7503 112.985 15.7503C113.071 15.7503 113.155 15.6653 113.155 15.5802C113.155 15.3251 113.155 14.9849 113.155 14.6447C113.155 14.3897 113.155 14.1345 113.155 13.7944C113.155 13.3692 113.071 13.0291 112.985 12.6889C112.9 12.4338 112.815 12.1787 112.73 11.9236C112.646 11.6684 112.475 11.4984 112.39 11.2432C112.39 11.2432 112.39 11.1582 112.305 11.1582C112.135 10.9882 111.965 10.8181 111.794 10.648C111.54 10.4779 111.284 10.3078 111.029 10.2228C110.775 10.1378 110.519 10.0527 110.264 10.0527C110.179 10.0527 110.094 10.0527 109.923 10.0527C109.839 10.0527 109.669 10.0527 109.584 10.0527C109.329 10.0527 109.073 10.0527 108.904 10.0527H108.819C108.563 10.1378 108.394 10.1378 108.138 10.2228C107.968 10.3078 107.883 10.3078 107.713 10.3929C107.542 10.4779 107.373 10.648 107.202 10.733L107.117 10.8181C106.948 10.9031 106.863 11.0732 106.777 11.1582C106.607 11.3283 106.523 11.5834 106.352 11.8386C106.267 12.0086 106.267 12.0936 106.182 12.2637C106.098 12.4338 106.012 12.6039 106.012 12.7739V12.859C106.012 13.0291 105.927 13.1141 105.927 13.2842C105.927 13.6243 105.842 14.0495 105.757 14.3897C105.757 14.8149 105.757 15.3251 105.757 15.7503C105.757 16.0904 105.842 16.4306 105.842 16.7707C105.927 17.1959 105.927 17.536 106.098 17.9612C106.182 18.1314 106.267 18.3014 106.267 18.5566C106.352 18.8116 106.437 18.9818 106.523 19.1518C106.692 19.4069 106.777 19.662 107.033 19.8321C107.202 19.9172 107.288 20.0872 107.458 20.1722C107.542 20.2573 107.713 20.3423 107.883 20.4274C107.968 20.4274 107.968 20.5124 108.053 20.5124C108.223 20.5974 108.478 20.5974 108.648 20.6825C108.733 20.6825 108.819 20.7675 108.904 20.7675C109.244 20.7675 109.584 20.8525 109.923 20.8525C110.349 20.8525 110.775 20.8525 111.2 20.6825C111.369 20.6825 111.54 20.5974 111.71 20.5124C111.88 20.4274 112.05 20.3423 112.219 20.2573C112.39 20.1722 112.56 20.0022 112.646 19.9172C112.815 19.747 112.9 19.662 112.985 19.492C113.155 19.2368 113.24 18.8966 113.325 18.5566C113.41 18.3014 113.41 17.9612 113.496 17.7062C113.496 17.6211 113.496 17.536 113.496 17.451C113.496 17.366 113.496 17.281 113.496 17.1959C113.41 16.9408 113.41 16.8558 113.24 16.8558ZM108.138 13.2842C108.138 13.0291 108.138 12.6889 108.308 12.4338V12.3488C108.308 12.1787 108.394 12.0936 108.478 12.0086C108.563 11.9236 108.648 11.7535 108.733 11.6684C108.819 11.5834 108.988 11.4984 109.073 11.4134C109.413 11.3283 109.669 11.3283 110.009 11.4134C110.179 11.4984 110.434 11.5834 110.519 11.7535C110.859 12.0936 110.944 12.6039 110.944 13.0291C110.944 13.4543 110.944 13.8795 111.029 14.3897C111.029 14.5597 110.944 14.6447 110.775 14.6447C110.349 14.6447 109.923 14.6447 109.584 14.6447C109.329 14.6447 109.073 14.6447 108.819 14.6447C108.648 14.6447 108.563 14.6447 108.394 14.6447C108.223 14.6447 108.138 14.5597 108.138 14.3897C108.138 14.0495 108.138 13.6243 108.138 13.2842Z" fill="black"/>
<path d="M104.907 17.026C104.907 16.941 104.821 16.8558 104.736 16.8558C104.652 16.8558 104.481 16.8558 104.396 16.8558C104.311 16.8558 104.227 16.8558 104.142 16.8558C103.886 16.8558 103.631 16.8558 103.461 16.8558C103.376 16.8558 103.291 16.941 103.291 17.026C103.291 17.281 103.291 17.5362 103.291 17.7913C103.291 18.0464 103.206 18.2165 103.121 18.4716C103.036 18.7267 102.866 18.9818 102.696 19.1519C102.611 19.322 102.441 19.407 102.27 19.4921C102.015 19.5771 101.76 19.6621 101.42 19.6621H101.335C101.08 19.6621 100.91 19.5771 100.655 19.4921C100.485 19.407 100.4 19.2369 100.315 19.1519C100.23 19.0669 100.23 19.0669 100.23 18.9818C100.144 18.8117 100.059 18.6417 99.9744 18.3866C99.8894 18.2165 99.8894 18.0464 99.8894 17.8764C99.8894 17.5362 99.8044 17.196 99.8044 16.7708C99.8044 16.5158 99.8044 16.2606 99.8044 16.0055C99.8044 15.9204 99.8894 15.8354 99.9744 15.7504C100.059 15.7504 100.059 15.7504 100.144 15.7504C100.23 15.7504 100.23 15.7504 100.315 15.7504C100.655 15.7504 100.995 15.7504 101.25 15.7504C101.675 15.7504 102.1 15.7504 102.611 15.7504C102.951 15.7504 103.376 15.7504 103.716 15.7504C103.886 15.7504 104.056 15.7504 104.142 15.7504C104.311 15.7504 104.481 15.7504 104.652 15.7504C104.736 15.7504 104.736 15.7504 104.821 15.7504C104.907 15.7504 104.907 15.6654 104.992 15.5803V15.4953C104.992 15.3252 104.992 15.0701 104.992 14.9C104.992 14.5599 104.992 14.2197 104.907 13.8795C104.907 13.5394 104.821 13.1143 104.736 12.7741C104.736 12.6891 104.736 12.6039 104.652 12.6039C104.567 12.3489 104.481 12.0937 104.396 11.8387C104.227 11.4985 104.056 11.2434 103.801 10.9883L103.716 10.9032C103.546 10.8182 103.376 10.6481 103.206 10.5631C103.206 10.5631 103.121 10.5631 103.121 10.478C102.781 10.308 102.526 10.2229 102.185 10.1379C102.1 10.1379 102.1 10.1379 102.015 10.1379C101.93 10.1379 101.845 10.1379 101.76 10.1379C101.42 10.1379 101.08 10.0529 100.825 10.1379C100.485 10.2229 100.144 10.2229 99.8044 10.393C99.7193 10.478 99.5492 10.478 99.4642 10.5631C99.3792 10.6481 99.2941 10.6481 99.2091 10.7332C99.124 10.7332 99.124 10.8182 99.039 10.8182C98.8689 10.9883 98.6989 11.0733 98.6138 11.2434C98.4437 11.4135 98.3587 11.5835 98.2737 11.7537C98.1886 11.9237 98.1036 12.0937 98.0185 12.2639C98.0185 12.3489 97.9335 12.4339 97.9335 12.5189C97.9335 12.6039 97.8485 12.6891 97.8485 12.7741C97.8485 12.8591 97.8485 12.8591 97.7635 12.9441C97.6784 13.1993 97.6784 13.4543 97.5933 13.7095C97.5083 14.1347 97.5083 14.5599 97.5083 14.985C97.5083 15.2402 97.5083 15.4952 97.5083 15.7504C97.5083 15.9204 97.5083 16.0906 97.5083 16.2606C97.5083 16.5158 97.5933 16.8558 97.5933 17.111C97.6784 17.5362 97.7635 17.9614 97.9335 18.3866C97.9335 18.3866 97.9335 18.3866 97.9335 18.4716C98.0185 18.6417 98.1036 18.8117 98.1886 19.0669C98.3587 19.322 98.5288 19.6621 98.7839 19.8322C98.8689 19.9173 99.039 20.0873 99.124 20.1723C99.2091 20.2574 99.3792 20.3425 99.5492 20.4275C99.7193 20.5125 99.9744 20.5975 100.23 20.6825C100.315 20.6825 100.315 20.6825 100.4 20.7677C100.655 20.7677 100.825 20.7677 101.08 20.8527C101.42 20.8527 101.76 20.9377 102.1 20.8527C102.185 20.8527 102.185 20.8527 102.27 20.8527C102.356 20.8527 102.526 20.8527 102.611 20.7677C102.781 20.6825 102.866 20.6825 103.036 20.5975C103.206 20.5125 103.376 20.5125 103.461 20.4275C103.631 20.3425 103.716 20.2574 103.801 20.1723C103.886 20.0873 104.056 20.0023 104.142 19.9173C104.142 19.9173 104.142 19.9173 104.227 19.8322C104.227 19.7471 104.311 19.7471 104.311 19.6621L104.396 19.5771C104.481 19.4921 104.567 19.322 104.652 19.2369C104.736 18.9818 104.821 18.8117 104.907 18.5566C104.992 18.3015 104.992 18.1314 104.992 17.8764C104.992 17.7913 104.992 17.7913 104.992 17.7062C104.992 17.4512 104.907 17.196 104.907 17.026ZM99.8044 13.1143C99.8044 12.9441 99.8894 12.6891 99.8894 12.5189C99.8894 12.4339 99.9744 12.3489 99.9744 12.3489C100.059 12.2639 100.059 12.0937 100.144 12.0087C100.315 11.7537 100.485 11.6685 100.655 11.4985C100.74 11.4135 100.825 11.4135 100.995 11.4135C101.08 11.4135 101.165 11.4135 101.25 11.4135C101.42 11.4135 101.675 11.4135 101.845 11.4985C102.1 11.6685 102.27 11.8387 102.441 12.0937C102.526 12.3489 102.611 12.6039 102.696 12.8591C102.696 12.9441 102.696 12.9441 102.696 13.0291C102.696 13.3693 102.696 13.7945 102.696 14.1347C102.696 14.2197 102.696 14.3047 102.696 14.3898C102.696 14.4748 102.696 14.4748 102.696 14.5599C102.696 14.6449 102.611 14.6449 102.526 14.6449C102.1 14.6449 101.675 14.6449 101.335 14.6449C101.08 14.6449 100.825 14.6449 100.485 14.6449C100.315 14.6449 100.144 14.6449 99.9744 14.6449C99.8044 14.6449 99.7193 14.5599 99.7193 14.3898C99.7193 14.3047 99.7193 14.2197 99.7193 14.1347C99.7193 13.8795 99.7193 13.4543 99.8044 13.1143Z" fill="black"/>
<path d="M46.0603 8.01167C45.9753 7.33137 45.8053 6.7361 45.6352 6.0558C45.5501 5.71565 45.3801 5.3755 45.21 4.95031C45.1249 4.6952 45.0399 4.52513 44.8698 4.27002C44.4446 3.58971 43.9344 2.90941 43.2542 2.48422C43.169 2.48422 43.169 2.39918 43.169 2.39918C42.999 2.22911 42.7438 2.05903 42.4888 2.05903C42.3187 1.97399 42.2336 1.97399 42.0636 1.88895C41.8935 1.71888 41.6384 1.71888 41.4683 1.63384C41.3833 1.63384 41.2132 1.5488 41.1282 1.5488C40.9581 1.46376 40.8731 1.46376 40.703 1.37873C40.4479 1.29369 40.1927 1.29369 39.8526 1.29369C39.0023 1.20865 38.1519 1.12361 37.3015 1.03857C37.2164 1.03857 37.2164 1.03857 37.1314 1.03857C35.9408 1.03857 34.7504 1.12361 33.4748 1.12361C32.7094 1.12361 31.8591 1.20865 31.0937 1.03857C31.0087 1.03857 30.9237 1.03857 30.8386 1.03857C30.6685 1.03857 30.4135 1.03857 30.2433 1.03857C30.0733 1.03857 29.9031 1.03857 29.7331 1.03857C29.3929 1.03857 29.2229 1.20865 29.2229 1.5488C29.2229 1.97399 29.2229 2.39918 29.3079 2.82437C29.3079 3.16452 29.478 3.24956 29.8181 3.3346C29.9031 3.3346 29.9883 3.3346 29.9883 3.3346C30.2433 3.3346 30.4985 3.3346 30.8386 3.3346C31.0937 3.3346 31.2638 3.50467 31.3488 3.75979C31.3488 3.84483 31.3488 3.92986 31.3488 4.0149C31.3488 4.95031 31.3488 5.88573 31.3488 6.82114C31.3488 7.50145 31.3488 8.09671 31.3488 8.77701C31.3488 9.45732 31.2638 10.0526 31.4339 10.7329C31.4339 10.8179 31.4339 10.903 31.4339 10.903C31.4339 11.8384 31.4339 12.7738 31.4339 13.7092C31.4339 14.8997 31.5189 16.0903 31.4339 17.1957C31.4339 17.2808 31.4339 17.3659 31.4339 17.4509C31.4339 17.7911 31.4339 18.0461 31.2638 18.3013C31.1787 18.4713 31.0087 18.5563 30.8386 18.5563C30.5835 18.5563 30.3283 18.5563 30.0733 18.5563C29.7331 18.5563 29.478 18.7264 29.5631 19.0666C29.5631 19.4067 29.5631 19.7469 29.5631 20.087C29.5631 20.1721 29.5631 20.2571 29.5631 20.4272C29.5631 20.7674 29.7331 20.8524 30.0733 20.8524C30.4985 20.8524 30.9237 20.7674 31.2638 20.7674C31.689 20.7674 32.1992 20.7674 32.6244 20.7674C33.3047 20.7674 33.9 20.8524 34.5802 20.8524C35.3456 20.8524 36.111 20.7674 36.7912 20.7674C37.4715 20.7674 38.1519 20.7674 38.7471 20.7674C38.9171 20.7674 39.0873 20.7674 39.2573 20.6823C39.5125 20.5972 39.7675 20.5972 40.0227 20.5122C40.4479 20.5122 40.8731 20.3422 41.2982 20.2571C41.7234 20.087 42.2336 19.917 42.5738 19.6618C42.999 19.4067 43.4242 18.9815 43.8494 18.6414C44.1045 18.3863 44.2746 18.1311 44.5297 17.8761C44.6998 17.6209 44.9549 17.3659 45.0399 17.0257C45.21 16.6005 45.4651 16.1753 45.5501 15.7501C45.6352 15.5801 45.7202 15.3249 45.8053 15.1549C45.9753 14.3895 46.1454 13.6242 46.1454 12.8588C46.2305 11.8384 46.1454 10.903 46.1454 9.88251C46.1454 9.37228 46.0603 8.69198 46.0603 8.01167ZM41.7234 13.8793C41.7234 14.3045 41.6384 14.6446 41.5534 15.0698C41.4683 15.4099 41.3833 15.7501 41.2982 16.0053C41.1282 16.3453 40.9581 16.6855 40.788 17.0257C40.6179 17.2807 40.3628 17.5359 40.1077 17.7911C40.0227 17.8761 40.0227 17.8761 39.9377 17.9611C39.5125 18.1311 39.1723 18.4713 38.7471 18.5563C38.6621 18.5563 38.4919 18.6414 38.4069 18.6414C37.8117 18.6414 37.3015 18.7264 36.7062 18.7264C36.5361 18.7264 36.4511 18.7264 36.281 18.7264C36.1109 18.7264 36.0259 18.6414 36.0259 18.4713C36.0259 18.3013 35.9408 18.2162 35.9408 18.0461C35.9408 17.6209 35.9408 17.2808 35.9408 16.8557C35.9408 16.1753 35.9408 15.495 35.9408 14.7297C35.9408 14.1344 35.9408 13.6242 35.9408 13.0289C35.9408 12.3486 35.9408 11.6683 35.9408 11.073C35.9408 9.11717 35.9408 7.24633 35.9408 5.29046C35.9408 4.95031 35.9408 4.52513 35.9408 4.18498C35.9408 4.09994 35.9408 4.0149 35.9408 3.92986C35.7708 3.58971 35.9408 3.50467 36.196 3.50467C36.281 3.50467 36.281 3.50467 36.366 3.50467C36.8763 3.41964 37.3865 3.41964 37.9817 3.41964C38.4069 3.41964 38.8321 3.50467 39.2573 3.67475C39.3423 3.67475 39.3423 3.75979 39.4274 3.75979C39.6825 3.84483 39.9377 4.0149 40.1077 4.27002C40.3628 4.52513 40.6179 4.78024 40.788 5.12038C41.0431 5.63061 41.2982 6.0558 41.3833 6.65107C41.3833 6.82114 41.4683 6.90618 41.4683 7.07626C41.6384 7.58648 41.6384 8.18175 41.7234 8.69198C41.7234 9.45732 41.7234 10.1376 41.7234 10.903C41.7234 11.2431 41.7234 11.6683 41.7234 12.0084C41.7234 12.6038 41.7234 13.199 41.7234 13.8793Z" fill="black"/>
<path d="M61.1972 12.859C61.1121 12.859 60.9421 12.859 60.8571 12.859C60.2618 12.859 59.6665 12.774 59.0713 12.774C58.7311 12.774 58.5611 12.9441 58.5611 13.2842C58.5611 13.4544 58.5611 13.6244 58.5611 13.7944C58.5611 14.1346 58.5611 14.4748 58.476 14.8149C58.476 15.4102 58.2209 16.0055 57.8807 16.6007C57.4555 17.2811 56.9453 17.7913 56.18 18.0463C56.095 18.0463 55.9248 18.1314 55.8398 18.2165C55.6698 18.3015 55.5848 18.3015 55.4146 18.3865C55.1596 18.3865 54.9894 18.3865 54.7344 18.3865C54.5642 18.3865 54.4792 18.3865 54.3092 18.3015C54.139 18.2165 53.884 18.1314 53.7139 18.0463C53.6288 17.9613 53.5438 17.9613 53.4588 17.8763C53.1186 17.5361 52.8635 17.1959 52.6084 16.8559C52.5233 16.7708 52.5233 16.6857 52.5233 16.6007C52.4383 16.4307 52.3533 16.2605 52.3533 16.0055C52.2683 15.8354 52.2683 15.6653 52.1832 15.4952C52.0981 15.2401 52.0131 14.9 52.0131 14.6448C51.9281 14.3898 51.9281 14.1346 51.8431 13.8795C51.758 13.3692 51.758 12.774 51.758 12.2638C51.758 12.1788 51.758 12.0937 51.758 12.0087C51.8431 11.7536 51.9281 11.6685 52.1832 11.6685C52.5233 11.6685 52.7785 11.6685 53.1186 11.6685C54.3092 11.6685 55.4996 11.5835 56.6052 11.5835C56.8603 11.5835 57.2004 11.5835 57.4555 11.5835C58.0508 11.5835 58.6461 11.5835 59.2413 11.5835C59.7515 11.5835 60.3469 11.5835 60.8571 11.5835C61.2822 11.5835 61.3673 11.4134 61.2822 10.9882C61.2822 10.9032 61.2822 10.8182 61.2822 10.6481C61.2822 10.478 61.2822 10.3079 61.2822 10.2229C61.2822 10.1379 61.2822 9.96777 61.2822 9.88274C61.3673 8.86228 61.1972 7.75679 61.1121 6.73633C61.1121 6.48122 61.0271 6.31115 61.0271 6.05603C60.9421 5.80092 60.8571 5.5458 60.8571 5.37573C60.772 5.20565 60.772 5.03558 60.6869 4.86551C60.6869 4.69544 60.6019 4.52536 60.5169 4.35528C60.5169 4.27025 60.4319 4.27025 60.4319 4.18521C60.2618 3.67498 60.0067 3.16475 59.5815 2.73956C59.3263 2.48445 59.0713 2.1443 58.7311 1.88918C58.3059 1.54903 57.7957 1.29392 57.2855 1.12384C56.8603 0.953767 56.35 0.868729 55.9248 0.868729C55.7548 0.868729 55.4996 0.783691 55.3296 0.783691C55.2446 0.783691 55.0744 0.783691 54.9894 0.783691C54.7344 0.783691 54.4792 0.868729 54.139 0.868729C53.4588 0.953767 52.7785 1.0388 52.0981 1.29392C52.0131 1.29392 51.9281 1.37896 51.8431 1.37896C51.5879 1.37896 51.4179 1.46399 51.2477 1.63407C51.1627 1.71911 51.0777 1.80415 50.9927 1.80415C50.5675 1.97422 50.1423 2.31437 49.8021 2.65453C49.3769 2.99468 49.1218 3.41987 48.8667 3.84506C48.6116 4.18521 48.4415 4.6104 48.2714 5.03558C47.9313 5.88596 47.6762 6.6513 47.5912 7.58671C47.5061 8.77724 47.336 9.96778 47.5061 11.1583C47.5912 11.8386 47.5912 12.604 47.6762 13.2842C47.7612 13.9646 47.8462 14.7299 48.0164 15.4102C48.1864 15.9204 48.2714 16.3456 48.4415 16.8559C48.5266 16.9409 48.5266 17.1109 48.5266 17.1959C48.6966 17.4511 48.7817 17.7913 48.9518 18.0463C49.1218 18.3865 49.3769 18.6417 49.547 18.8967C49.8021 19.2369 50.0573 19.577 50.3974 19.7471C50.4825 19.7471 50.4825 19.8322 50.5675 19.8322C51.0777 20.2574 51.758 20.5975 52.4383 20.7676C53.0336 20.9376 53.6288 21.0227 54.3092 20.9376C54.3942 20.9376 54.3942 20.9376 54.4792 20.9376C55.0744 21.0227 55.6698 21.0227 56.265 20.8526C56.35 20.8526 56.4351 20.8526 56.5201 20.8526C56.9453 20.8526 57.3705 20.7676 57.7957 20.5124C58.1359 20.3424 58.5611 20.1723 58.9011 20.0022C58.9863 20.0022 58.9863 19.9172 59.0713 19.9172C59.2413 19.7471 59.4115 19.6621 59.6665 19.492C59.8366 19.3219 60.0067 19.1519 60.1767 18.9818C60.5169 18.5566 60.772 17.9613 61.0271 17.4511C61.0271 17.3661 61.1121 17.3661 61.1121 17.2811C61.1972 17.0259 61.2822 16.7708 61.2822 16.5157C61.3673 16.1755 61.4523 15.8354 61.4523 15.4952C61.4523 14.8149 61.5373 14.2196 61.5373 13.5394C61.5373 13.4544 61.5373 13.3692 61.5373 13.2842C61.6224 12.9441 61.4523 12.774 61.1972 12.859ZM52.0131 6.39618C52.0981 5.97099 52.1832 5.63084 52.2683 5.29069C52.4383 4.69544 52.6934 4.10017 53.2036 3.67498C53.6288 3.33483 54.054 3.07971 54.6493 3.16475C54.7344 3.16475 54.8194 3.16475 54.8194 3.16475C55.2446 3.07971 55.6698 3.24979 55.9248 3.5049C56.6052 4.01513 56.9453 4.78047 57.0304 5.5458C57.2004 6.56626 57.2004 7.58671 57.2004 8.60717C57.2004 8.86228 57.1154 8.94732 56.8603 9.03236C56.7752 9.03236 56.6902 9.03236 56.6052 9.03236C55.9248 9.03236 55.3296 9.03236 54.6493 9.03236C54.5642 9.03236 54.5642 9.03236 54.4792 9.03236C53.7989 9.03236 53.1186 9.03236 52.4383 9.03236C52.0131 9.03236 51.9281 8.94732 51.9281 8.52213C51.8431 7.84183 51.8431 7.07649 52.0131 6.39618Z" fill="black"/>
<path d="M87.899 12.6892C87.729 12.434 87.559 12.0938 87.3888 11.9238C87.0487 11.4986 86.6235 11.1584 86.1983 10.8183C86.0282 10.6482 85.7731 10.4782 85.518 10.3081C85.0928 10.053 84.6677 9.79785 84.1574 9.54274C83.9873 9.4577 83.8173 9.28763 83.5621 9.20259C83.2219 9.03251 82.9669 8.86244 82.6267 8.69236C82.2015 8.43725 81.8614 8.18213 81.5212 7.92702C81.3511 7.84198 81.1811 7.75694 81.096 7.58687C80.7559 7.33175 80.5008 6.9916 80.3307 6.65145C80.1606 6.48137 80.0756 6.22626 80.0756 5.97115C79.9906 5.71603 79.9906 5.46092 79.9056 5.29084C79.8204 5.03573 79.8204 4.78062 79.9056 4.61055C79.9906 4.44048 80.0756 4.2704 80.1606 4.01529C80.2456 3.84521 80.3307 3.76017 80.4158 3.5901C80.7559 3.33498 81.011 3.07987 81.4362 2.99483C81.5212 2.99483 81.5212 2.99483 81.6063 2.90979C81.8614 2.82475 82.0315 2.82475 82.2866 2.82475C82.4567 2.90979 82.6267 2.90979 82.7968 2.90979C83.1369 2.99483 83.3921 3.16491 83.6471 3.42002C84.3275 4.10032 84.4975 5.03573 84.7527 5.88611C84.7527 5.88611 84.7527 5.97115 84.7527 6.05618C84.7527 6.56641 84.7527 7.16168 84.7527 7.67191C84.7527 7.92702 84.9227 8.09709 85.1779 8.09709H85.2629C85.8582 8.09709 86.4534 8.09709 87.0487 8.09709C87.3888 8.09709 87.4738 8.01206 87.4738 7.67191C87.4738 6.56641 87.4738 5.54596 87.4738 4.44047C87.4738 4.18536 87.4738 3.84521 87.4738 3.5901C87.4738 2.82476 87.4738 1.97438 87.4738 1.20903C87.4738 0.953921 87.3888 0.868883 87.1338 0.868883C86.6235 0.868883 86.1983 0.868883 85.6881 0.868883C85.3479 0.868883 85.2629 0.953921 85.2629 1.20903V1.29407C85.1779 1.63422 85.0078 1.71926 84.6677 1.63422C84.5826 1.63422 84.4975 1.54919 84.4975 1.54919C84.1574 1.20903 83.7323 1.124 83.3921 0.953921C82.6267 0.613769 81.7763 0.61377 80.926 0.61377C80.4158 0.61377 79.9056 0.698807 79.3102 0.783845C79.1402 0.783845 79.0552 0.868883 78.885 0.953921C78.715 1.03896 78.63 1.124 78.4598 1.124C78.2048 1.20903 77.9496 1.37911 77.6946 1.54919C77.5244 1.71926 77.3544 1.88934 77.1843 1.97438C76.7591 2.22949 76.5891 2.56964 76.3339 2.90979C76.2489 3.07987 76.0788 3.24994 75.9938 3.50506C75.8237 4.01529 75.5686 4.52551 75.5686 5.12077C75.5686 5.37588 75.5686 5.631 75.4835 5.80107C75.4835 5.97115 75.4835 6.14122 75.4835 6.3113C75.4835 6.90656 75.4835 7.41679 75.8237 7.92702C75.9087 8.01206 75.9087 8.18213 75.9938 8.26717C76.1639 8.60732 76.2489 8.94747 76.504 9.20259C77.0142 9.88289 77.6095 10.3931 78.3748 10.9033C78.63 11.0734 78.9702 11.2435 79.2252 11.4136C79.5654 11.5836 79.9055 11.8388 80.2456 12.0088C80.6708 12.179 81.1811 12.434 81.6063 12.6041C81.6913 12.6892 81.8614 12.7742 81.9464 12.7742C82.2015 12.9442 82.5417 13.1144 82.7968 13.2844C83.0519 13.4545 83.3071 13.6246 83.4771 13.8797C83.8173 14.2198 84.0723 14.645 84.2425 15.0702C84.4975 15.7505 84.5826 16.4308 84.1574 17.1111C84.0723 17.1961 84.0723 17.2812 84.0723 17.3662C83.9873 17.5363 83.9023 17.7064 83.7323 17.7914C83.3921 18.0465 83.0519 18.2166 82.7117 18.3867C82.6267 18.3867 82.5417 18.3867 82.5417 18.4717C82.1165 18.6418 81.6063 18.5567 81.1811 18.4717C80.6708 18.3867 80.2456 18.1315 79.8204 17.8765C79.6504 17.7914 79.5654 17.6213 79.3952 17.4513C78.885 16.9411 78.63 16.3457 78.5449 15.5805C78.5449 14.9851 78.5449 14.3899 78.5449 13.7946C78.5449 13.7096 78.5449 13.6246 78.5449 13.6246C78.4598 13.2844 78.3748 13.1994 78.1197 13.2844C77.6946 13.2844 77.2693 13.2844 76.9292 13.2844C76.7591 13.2844 76.504 13.2844 76.3339 13.2844C76.2489 13.2844 76.1639 13.2844 76.0788 13.2844C75.8237 13.3694 75.7387 13.5395 75.8237 13.7096C75.8237 13.8797 75.8237 13.9647 75.8237 14.1348C75.8237 14.3049 75.8237 14.56 75.8237 14.7301C75.8237 15.3253 75.8237 16.0057 75.8237 16.6009C75.8237 16.9411 75.8237 17.2812 75.8237 17.6213C75.8237 18.5567 75.8237 19.4071 75.8237 20.3426C75.8237 20.6826 75.9938 20.8528 76.3339 20.8528C76.504 20.8528 76.6741 20.8528 76.8442 20.8528C77.0993 20.8528 77.3544 20.8528 77.6095 20.8528C77.9496 20.8528 78.1197 20.7678 78.2048 20.4276V20.3426C78.2898 20.1724 78.3748 20.0024 78.5449 19.8323C78.715 19.6622 78.8 19.6622 79.0552 19.7472C79.3952 19.9174 79.6504 20.1724 79.9906 20.3426C80.2457 20.4276 80.4158 20.5976 80.6708 20.5976C80.8409 20.5976 81.011 20.5976 81.1811 20.6826C81.6063 20.8528 82.0315 20.8528 82.4567 20.8528C83.0519 20.7678 83.6471 20.5976 84.1574 20.5126C84.2425 20.5126 84.3275 20.5126 84.3275 20.4276C84.5826 20.2575 84.8377 20.1724 85.1779 20.1724C85.2629 20.1724 85.2629 20.1724 85.3479 20.0874C85.6881 19.9174 86.0282 19.7472 86.3684 19.4922C87.0486 18.8969 87.644 18.3016 87.899 17.4513C87.899 17.3662 87.899 17.3662 87.9842 17.2812C88.1542 17.1111 88.1542 16.856 88.2392 16.6859C88.2392 16.6009 88.2392 16.4309 88.3242 16.3457C88.4944 15.8355 88.4944 15.2403 88.4944 14.7301C88.4093 14.1348 88.3242 13.3694 87.899 12.6892Z" fill="black"/>
<path d="M97.0831 18.7268C97.0831 18.3866 97.0831 18.1315 97.0831 17.8764C97.0831 17.4512 97.0831 17.111 97.0831 16.6859C97.0831 16.6008 97.0831 16.5158 96.913 16.5158H96.828C96.4878 16.5158 96.1477 16.5158 95.8925 16.5158C95.8075 16.5158 95.7225 16.6008 95.7225 16.6859C95.7225 16.7709 95.7225 16.856 95.7225 16.941C95.7225 17.111 95.7225 17.2811 95.7225 17.3662C95.7225 17.7063 95.6375 18.0464 95.6375 18.3866C95.6375 18.5566 95.5524 18.7268 95.4674 18.8968C95.4674 18.8968 95.4674 18.9818 95.3823 18.9818C95.2973 19.152 95.2123 19.322 95.0422 19.407C94.8721 19.5772 94.617 19.6622 94.4469 19.6622C94.1919 19.6622 93.8517 19.7472 93.5115 19.6622C93.3415 19.6622 93.2564 19.5772 93.2564 19.407C93.2564 19.237 93.2564 18.9818 93.2564 18.8118C93.2564 18.4716 93.2564 18.1315 93.2564 17.7914C93.2564 17.3662 93.2564 16.941 93.2564 16.5158C93.2564 16.0906 93.2564 15.6654 93.2564 15.3253C93.2564 14.9851 93.2564 14.6449 93.2564 14.3049C93.2564 13.8797 93.2564 13.3694 93.2564 12.9442C93.2564 12.519 93.2564 12.1789 93.2564 11.7537C93.2564 11.6686 93.3415 11.5836 93.4265 11.5836C93.7667 11.5836 94.0217 11.5836 94.3619 11.5836C94.5319 11.5836 94.617 11.4986 94.617 11.3285C94.617 11.0734 94.617 10.9033 94.617 10.6482C94.617 10.4781 94.5319 10.3931 94.3619 10.3931C94.2769 10.3931 94.2769 10.3931 94.1918 10.3931C94.1067 10.3931 94.1067 10.3931 94.0217 10.3931C93.9367 10.3931 93.7667 10.3931 93.6815 10.3931C93.4265 10.3931 93.1713 10.3931 93.0013 10.3931C92.6611 10.3931 92.406 10.3931 92.0659 10.3931C91.8108 10.3931 91.4706 10.3931 91.2155 10.3931C90.7903 10.3931 90.28 10.3931 89.8548 10.3931C89.6848 10.3931 89.5998 10.4781 89.5998 10.6482C89.5998 10.9033 89.5998 11.0734 89.5998 11.3285C89.5998 11.4986 89.6848 11.4986 89.8548 11.4986C89.94 11.4986 90.025 11.4986 90.025 11.4986C90.28 11.4986 90.5352 11.4986 90.7903 11.4986C90.8754 11.4986 90.8754 11.4986 90.9604 11.4986C91.0454 11.4986 91.1304 11.5836 91.1304 11.7537C91.1304 12.3489 91.1304 12.9442 91.1304 13.5395C91.1304 14.2197 91.1304 14.9001 91.1304 15.5804C91.1304 16.5158 91.1304 17.4512 91.1304 18.3866C91.1304 18.6418 91.1304 18.9818 91.1304 19.237C91.1304 19.322 91.1304 19.407 91.1304 19.5772C91.1304 19.6622 91.0454 19.7472 90.9604 19.7472H90.8754C90.5352 19.7472 90.195 19.7472 89.8548 19.7472H89.7698C89.5998 19.7472 89.5148 19.8322 89.5148 20.0024C89.5148 20.0874 89.5148 20.0874 89.5148 20.1724C89.5148 20.3425 89.5148 20.5126 89.5148 20.7677C89.5148 20.9377 89.5998 20.9377 89.6848 20.9377C89.8548 20.9377 90.11 20.9377 90.28 20.9377C90.9604 20.9377 91.7257 20.9377 92.406 20.9377C92.5761 20.9377 92.8312 20.9377 93.0013 20.9377C93.5115 20.9377 94.1067 20.9377 94.617 20.9377C94.9571 20.9377 95.3823 20.9377 95.7225 20.9377C96.0626 20.9377 96.4028 20.9377 96.7429 20.9377H96.828C96.913 20.9377 96.913 20.8527 96.913 20.7677C96.913 20.4275 96.913 20.1724 96.913 19.8322C96.998 19.407 96.998 19.067 97.0831 18.7268Z" fill="black"/>
<path d="M73.2724 0.78362C72.422 0.528507 71.6568 0.528507 70.8914 0.78362C70.4662 0.868658 70.2111 1.20881 69.7859 1.29385L69.7009 1.37888C69.4457 1.63399 69.1907 1.88911 69.0205 2.14422C68.9355 2.22926 68.9355 2.22926 68.8505 2.3143C68.6804 2.48437 68.4253 2.39934 68.4253 2.14422C68.4253 2.05918 68.4253 1.97415 68.4253 1.88911C68.4253 1.71903 68.4253 1.54896 68.4253 1.37888C68.4253 1.03873 68.3403 1.03873 67.9151 1.03873C67.7449 1.03873 67.5749 1.03873 67.4049 1.03873C66.2993 1.03873 65.1938 1.03873 64.0884 1.03873C63.4931 1.03873 62.9828 1.03873 62.3876 1.03873C62.3026 1.03873 62.1325 1.03873 62.0474 1.03873C61.7923 1.12377 61.7924 1.12377 61.7073 1.37888C61.7073 1.46392 61.7073 1.63399 61.7073 1.71903C61.7073 2.05918 61.7073 2.39934 61.7073 2.73949C61.7073 3.16468 61.8774 3.33475 62.2176 3.24971C62.4726 3.24971 62.6427 3.24971 62.8978 3.24971C63.238 3.24971 63.5782 3.24971 63.9182 3.24971C64.3434 3.24971 64.5986 3.50483 64.6836 3.84498C64.6836 4.01506 64.6836 4.10009 64.6836 4.27017C64.6836 4.52528 64.6836 4.7804 64.6836 4.95047C64.6836 5.71581 64.6836 6.48116 64.6836 7.2465C64.6836 8.43703 64.6836 9.62755 64.6836 10.8181C64.6836 11.7535 64.6836 12.6889 64.6836 13.6243C64.6836 14.3897 64.6836 15.2401 64.6836 16.0054C64.6836 16.6007 64.7686 17.1109 64.5986 17.7062C64.5986 17.7912 64.5986 17.8762 64.5986 17.8762C64.5986 18.1314 64.5136 18.3014 64.2584 18.3864C64.0884 18.4714 63.9182 18.4714 63.8332 18.4714C63.323 18.4714 62.7278 18.4714 62.2176 18.4714C62.0474 18.4714 61.9624 18.5566 61.8774 18.6416C61.7923 18.7266 61.7924 18.8966 61.7924 18.9818C61.7924 19.1518 61.7924 19.3218 61.7924 19.492C61.7924 19.662 61.7924 19.9172 61.7924 20.0872C61.7924 20.5124 61.9624 20.5974 62.3026 20.5974C62.9828 20.5974 63.7482 20.5974 64.4285 20.5974C64.6836 20.5974 65.0238 20.5974 65.2789 20.5974C66.2993 20.5974 67.4049 20.5974 68.4253 20.5124C68.5103 20.5124 68.5953 20.5124 68.6804 20.5124C69.2757 20.5124 69.8709 20.5124 70.4662 20.5124C70.8064 20.5124 71.1465 20.5124 71.4866 20.5124C71.9118 20.5974 72.167 20.3423 72.082 19.9172C72.082 19.747 72.082 19.577 72.082 19.4069C72.082 19.2368 72.082 18.9818 72.082 18.8116C72.082 18.3864 71.9118 18.2164 71.4866 18.2164H71.4016C70.8064 18.2164 70.2111 18.3014 69.6158 18.2164C69.2757 18.1314 69.1056 17.9612 69.1056 17.6211C69.1056 17.0258 69.1056 16.4306 69.1056 15.8353C69.1056 15.4951 69.1056 15.1551 69.1056 14.8149C69.1056 14.3897 69.1056 13.8795 69.1056 13.4543C69.1056 13.1141 69.1056 12.7739 69.1056 12.4338C69.1056 11.4984 69.0205 10.563 69.0205 9.54251C69.0205 8.69213 69.1056 7.84176 69.0205 6.99138V6.90634C69.0205 6.31108 69.1056 5.80085 69.1056 5.20559C69.1056 4.86544 69.1906 4.44025 69.3607 4.10009C69.4457 3.93002 69.5308 3.6749 69.7009 3.58987C69.956 3.33475 70.2111 3.07964 70.4662 2.82452C70.6363 2.73949 70.8914 2.82453 70.8914 2.9946C70.8914 3.07964 70.8914 3.24971 70.8914 3.41979C70.8914 3.58987 70.8914 3.75994 70.9764 4.01506C71.0614 4.18513 71.1465 4.35521 71.2316 4.61032C71.4016 4.95047 71.5717 5.20559 71.9118 5.37566C72.422 5.63078 72.9323 5.80085 73.5276 5.54574H73.6126C74.2929 5.4607 74.7181 5.03551 74.9732 4.44025C75.0583 4.35521 75.0583 4.10009 75.1433 3.84498C75.3133 3.24971 75.2283 2.73949 74.9732 2.22926C74.548 1.54896 74.0378 1.03873 73.2724 0.78362Z" fill="black"/>
<path d="M28.1174 18.7264C28.0323 18.7264 27.9473 18.7264 27.9473 18.7264C27.6071 18.7264 27.2671 18.7264 26.9269 18.7264C26.6717 18.7264 26.5017 18.5563 26.4167 18.3012C26.4167 18.2162 26.3317 18.1311 26.3317 18.046C26.3317 17.6208 26.2465 17.2808 26.2465 16.8556C26.2465 15.9201 26.2465 14.9847 26.2465 14.0493C26.2465 12.9437 26.2465 11.7533 26.1615 10.6478C26.1615 9.45723 26.1615 8.18168 26.1615 6.99115C26.1615 6.05573 26.1615 5.03527 26.1615 4.09986C26.1615 3.58963 26.4167 3.41955 26.8419 3.41955C26.9269 3.41955 27.0119 3.41955 27.182 3.41955C27.7773 3.41955 27.8623 3.33452 27.8623 2.73925C27.8623 2.3991 27.8623 2.05895 27.8623 1.7188C27.8623 1.37865 27.7773 1.20857 27.4371 1.20857C27.2671 1.20857 27.0119 1.20857 26.8419 1.20857C25.7363 1.29361 24.6309 1.12354 23.5254 1.12354C22.505 1.12354 21.3994 1.20857 20.2939 1.12354C19.9538 1.12354 19.8687 1.29361 19.8687 1.54872C19.8687 1.97391 19.8687 2.31406 19.8687 2.73925C19.8687 2.82429 19.8687 2.90933 19.9538 3.0794C20.0388 3.33452 20.1239 3.41955 20.379 3.41955C20.549 3.41955 20.7191 3.41955 20.8892 3.41955C21.5695 3.41955 21.8246 3.67467 21.7396 4.26993C21.7396 4.44001 21.7396 4.69512 21.7396 4.8652C21.7396 5.46046 21.7396 6.05573 21.7396 6.65099C21.7396 7.24626 21.7396 7.92656 21.8246 8.52183C21.8246 8.6919 21.8246 8.94701 21.8246 9.11708C21.8246 9.71235 21.8246 10.3927 21.7396 10.9879C21.7396 11.243 21.7396 11.4131 21.7396 11.6682C21.7396 12.4335 21.7396 13.1989 21.7396 13.9643C21.7396 14.9847 21.7396 15.9201 21.7396 16.9406C21.7396 17.2808 21.7396 17.6208 21.7396 17.876C21.7396 18.046 21.6546 18.2162 21.6546 18.3862C21.5695 18.5563 21.4844 18.6413 21.3144 18.7264C20.9742 18.8114 20.549 18.8114 20.2089 18.8114C20.1239 18.8114 20.0388 18.8114 19.9538 18.8114C19.7837 18.8114 19.6136 18.9815 19.6136 19.2366C19.6136 19.3216 19.6136 19.4917 19.6136 19.5767C19.6136 19.9169 19.6136 20.2571 19.6136 20.5972C19.6136 20.9373 19.7837 21.1075 20.1239 21.0223C20.379 21.0223 20.6341 21.0223 20.8892 21.0223C21.1443 21.0223 21.4844 21.0223 21.7396 21.0223C23.0152 21.0223 24.3757 21.0223 25.6513 21.0223C25.8214 21.0223 25.9915 21.0223 26.1615 21.0223C26.4167 21.0223 26.6717 21.0223 27.0119 21.0223C27.3521 21.0223 27.6922 21.0223 28.0324 21.0223C28.2875 21.0223 28.4576 20.9373 28.4576 20.5972C28.4576 20.4271 28.4576 20.2571 28.4576 20.087C28.4576 19.7468 28.3725 19.4067 28.4576 19.0665C28.5426 18.8964 28.3725 18.7264 28.1174 18.7264Z" fill="black"/>
<path d="M93.0863 9.03245C93.1714 9.03245 93.2564 9.03245 93.4265 9.03245C93.5115 9.03245 93.5966 9.03245 93.5966 8.94742C93.5966 8.86238 93.5966 8.86238 93.5966 8.77734C93.5966 8.6923 93.5966 8.60727 93.6816 8.52223C93.7666 8.35215 93.9367 8.18208 94.0218 7.92696L94.1068 7.84192C94.1068 7.75689 94.1918 7.67185 94.1918 7.58681C94.2769 7.50177 94.2769 7.41673 94.3619 7.3317C94.447 7.24666 94.3619 7.16162 94.2769 7.16162C94.1918 7.16162 94.1068 7.16162 94.1068 7.16162C93.9367 7.16162 93.8517 7.16162 93.7667 7.3317C93.6816 7.41673 93.6816 7.50177 93.5966 7.58681C93.5115 7.67185 93.4265 7.75689 93.4265 7.84192C93.3415 7.84192 93.3415 7.92696 93.2564 7.92696C93.1714 7.92696 93.1714 7.84192 93.1714 7.84192C93.0863 7.75689 93.0863 7.58681 93.0013 7.50177C92.9163 7.41673 92.9163 7.3317 92.8313 7.24666C92.7462 7.16162 92.7462 7.16162 92.6611 7.16162C92.5761 7.16162 92.5761 7.16162 92.4911 7.16162C92.3211 7.16162 92.321 7.24666 92.4061 7.3317C92.4911 7.50177 92.5761 7.67185 92.6611 7.84192C92.7462 8.012 92.8313 8.18208 93.0013 8.35215C93.0013 8.43719 93.0863 8.43719 93.0863 8.52223C93.1714 8.60727 93.1714 8.6923 93.0863 8.86238C93.0013 8.86238 93.0013 9.03245 93.0863 9.03245Z" fill="black"/>
<path d="M90.11 9.03252H90.195C90.28 9.03252 90.4502 9.03252 90.5352 9.03252C90.7052 9.03252 90.9604 9.03252 91.1304 9.03252C91.2155 9.03252 91.3006 9.03252 91.3856 9.03252C91.6407 9.03252 91.8108 8.86245 91.8108 8.60734C91.8108 8.43727 91.8108 8.26719 91.7257 8.09712V8.01208C91.8108 7.842 91.8108 7.67193 91.8108 7.50185C91.8108 7.24674 91.5556 7.07666 91.3856 7.07666C91.3006 7.07666 91.2155 7.07666 91.1304 7.07666C90.9604 7.07666 90.7052 7.07666 90.5352 7.07666C90.4502 7.07666 90.3652 7.07666 90.28 7.07666H90.195C90.11 7.07666 90.025 7.07666 90.025 7.07666C89.94 7.07666 89.94 7.1617 89.8548 7.24674C89.8548 7.33177 89.8548 7.50185 89.8548 7.58689C89.8548 7.92704 89.8548 8.26719 89.8548 8.69238C89.7698 9.03252 89.7698 9.03252 90.11 9.03252ZM91.1304 8.5223C91.0454 8.5223 90.9604 8.5223 90.7903 8.5223C90.7052 8.5223 90.6202 8.5223 90.5352 8.5223C90.4502 8.5223 90.4502 8.43727 90.3652 8.35223C90.3652 8.26719 90.3652 8.26719 90.4502 8.18215C90.5352 8.18215 90.5352 8.18215 90.6202 8.18215C90.7903 8.18215 90.8754 8.18215 91.0454 8.18215C91.0454 8.18215 91.0454 8.18215 91.1304 8.18215C91.1304 8.18215 91.2155 8.18215 91.2155 8.26719C91.3005 8.43727 91.2155 8.5223 91.1304 8.5223ZM90.5352 7.58689C90.6202 7.58689 90.7052 7.58689 90.7903 7.58689C90.8754 7.58689 91.0454 7.58689 91.1304 7.58689C91.2155 7.58689 91.3005 7.75696 91.2155 7.842C91.2155 7.842 91.2155 7.842 91.1304 7.842C91.0454 7.842 90.8754 7.842 90.7903 7.842C90.6202 7.842 90.5352 7.75696 90.5352 7.67193C90.4502 7.67193 90.4502 7.58689 90.5352 7.58689Z" fill="black"/>
<path d="M89.9399 4.44027C89.9399 4.44027 89.9399 4.5253 90.0249 4.5253C90.1951 4.78042 90.3651 4.95049 90.5352 5.12057C90.7903 5.29065 90.9604 5.37568 91.2155 5.54576C91.3005 5.54576 91.3856 5.54576 91.4707 5.6308C91.6407 5.6308 91.7257 5.71584 91.8958 5.6308C91.9809 5.6308 92.1509 5.6308 92.2359 5.6308C92.321 5.6308 92.4061 5.6308 92.4911 5.54576C92.6611 5.46072 92.8312 5.37568 93.0013 5.29065C93.0863 5.20561 93.1714 5.12057 93.2564 5.12057C93.4265 5.03553 93.5116 4.86546 93.6816 4.69538C93.7666 4.61034 93.7666 4.5253 93.8517 4.44027C94.0218 4.10012 94.1068 3.845 94.1068 3.58989C94.1068 3.24974 94.1068 2.99462 94.0218 2.82455V2.73951C94.0218 2.65447 93.9367 2.65447 93.9367 2.56943L93.8517 2.48439C93.7666 2.31432 93.6816 2.05921 93.5115 1.97417C93.4265 1.88913 93.2564 1.80409 93.1714 1.71905C93.0864 1.63402 92.9163 1.54898 92.8312 1.54898C92.5761 1.37891 92.321 1.37891 92.0659 1.37891C91.8958 1.37891 91.7257 1.37891 91.6407 1.37891C91.5557 1.37891 91.4707 1.37891 91.4707 1.46394C91.2155 1.54898 91.0455 1.63402 90.8753 1.80409C90.7903 1.88913 90.6203 1.97417 90.5352 2.14424C90.4501 2.22928 90.3651 2.31432 90.3651 2.39936C90.2801 2.56943 90.1101 2.73951 90.1101 2.90958C90.1101 3.07966 90.0249 3.24974 90.0249 3.41981C90.0249 3.58989 90.0249 3.75996 90.0249 3.93004C90.0249 4.01508 90.1101 4.10012 90.1101 4.27019C90.1101 4.35523 90.1951 4.44027 90.1951 4.5253C89.8549 4.35523 89.8549 4.35523 89.9399 4.44027ZM90.1951 2.82455C90.1951 2.65447 90.2801 2.56943 90.3651 2.48439C90.5353 2.22928 90.7053 2.05921 90.9603 1.88913C91.1305 1.80409 91.3005 1.71905 91.4707 1.71905C91.7257 1.63402 91.9809 1.71905 92.2359 1.80409C92.5761 1.88913 92.9163 2.14424 93.0863 2.48439C93.1714 2.56943 93.2564 2.73951 93.2564 2.82455C93.3414 2.99462 93.3414 3.1647 93.3414 3.33477C93.3414 3.41981 93.3414 3.50485 93.3414 3.58989C93.3414 3.67493 93.3414 3.75996 93.3414 3.75996C93.3414 3.845 93.3414 3.93004 93.2564 4.01508C93.1714 4.35523 93.0013 4.5253 92.7462 4.78042C92.4911 5.03553 92.236 5.12057 91.9809 5.20561C91.7257 5.20561 91.5557 5.29065 91.3005 5.20561C91.1305 5.20561 91.0455 5.12057 90.8753 5.03553C90.6203 4.95049 90.4501 4.78042 90.2801 4.61034C90.1101 4.44027 90.1101 4.27019 90.0249 4.10012C90.0249 4.01508 90.0249 3.93004 89.9399 3.845C89.9399 3.67493 89.8549 3.58989 89.9399 3.41981C90.1101 3.24974 90.1101 3.07966 90.1951 2.82455Z" fill="black"/>
<path d="M90.9603 3.84521C90.9603 3.93025 90.9603 4.01529 90.9603 4.18536C90.9603 4.2704 90.9603 4.2704 90.9603 4.35544C90.9603 4.44048 91.0453 4.44048 91.0453 4.44048C91.1304 4.44048 91.1304 4.44048 91.2154 4.44048C91.3004 4.44048 91.3004 4.44048 91.3855 4.44048C91.4705 4.44048 91.4705 4.44048 91.5556 4.35544V4.2704C91.5556 4.10033 91.5556 4.01529 91.5556 3.84521C91.5556 3.76017 91.5556 3.76017 91.6406 3.76017C91.7256 3.76017 91.8107 3.76017 91.8957 3.76017C91.9807 3.76017 92.0658 3.76017 92.0658 3.93025C92.0658 4.01529 92.0658 4.18536 92.0658 4.2704C92.0658 4.35544 92.0658 4.35544 92.0658 4.44048C92.0658 4.52552 92.1508 4.52552 92.1508 4.52552C92.2359 4.52552 92.3209 4.52552 92.4909 4.52552C92.6611 4.52552 92.6611 4.44048 92.6611 4.35544C92.6611 4.35544 92.6611 4.35544 92.6611 4.2704C92.6611 4.18536 92.6611 4.18536 92.6611 4.10033C92.6611 3.93025 92.6611 3.67514 92.576 3.50506C92.576 3.42002 92.576 3.42002 92.576 3.33499C92.7461 3.16491 92.7461 2.9098 92.6611 2.65468C92.576 2.48461 92.576 2.39957 92.4059 2.39957C92.4059 2.39957 92.4059 2.39957 92.3209 2.39957C92.2359 2.39957 92.2359 2.31453 92.1508 2.31453C92.0658 2.31453 91.8957 2.31453 91.8107 2.22949C91.6406 2.22949 91.3855 2.22949 91.2154 2.22949C91.2154 2.22949 91.2154 2.22949 91.1304 2.22949C90.9603 2.22949 90.9603 2.31453 90.9603 2.39957C90.9603 2.56964 90.9603 2.65468 90.9603 2.82476C90.9603 2.99483 90.9603 3.24995 90.9603 3.42002C90.9603 3.5901 90.9603 3.67514 90.9603 3.84521ZM91.5556 2.82476C91.5556 2.73972 91.6406 2.73972 91.7256 2.73972C91.8107 2.73972 91.8957 2.73972 92.0658 2.73972C92.1508 2.73972 92.2359 2.82476 92.2359 2.9098C92.2359 2.99483 92.1508 3.07987 92.0658 3.07987C91.9807 3.07987 91.9807 3.07987 91.8957 3.07987C91.8107 3.07987 91.8107 3.07987 91.7256 3.07987C91.6406 3.07987 91.6406 3.07987 91.6406 2.99483C91.5556 2.99483 91.5556 2.9098 91.5556 2.82476Z" fill="black"/>
</g>
<defs>
<clipPath id="clip0_1_3321">
<rect width="113.77" height="20.6855" fill="white" transform="translate(0.310059 0.592285)"/>
</clipPath>
</defs>
</svg>
