<svg width="16" height="17" viewBox="0 0 16 17" fill="none" xmlns="http://www.w3.org/2000/svg">
<g clip-path="url(#clip0_1_3606)">
<g clip-path="url(#clip1_1_3606)">
<path d="M8 0.130005H16V2.13L15 3.13L16 4.13V6.13L15 7.13L16 8.13V10.13L15 11.13L16 12.13V14.13L8 15.13L0 14.13V12.13L1 11.13L0 10.13V8.13L8 0.130005Z" fill="#EEEEEE"/>
<path d="M7 2.13H16V4.13H7V2.13ZM7 6.13H16V8.13H8L7 6.13ZM0 10.13H16V12.13H0V10.13ZM0 14.13H16V16.13H0V14.13Z" fill="#D80027"/>
<path d="M0 0.130005H8V8.13H0V0.130005Z" fill="#0052B4"/>
<path d="M5.84375 7.72375L7.625 6.4425H5.4375L7.21875 7.72375L6.53125 5.63L5.84375 7.72375ZM3.3125 7.72375L5.09375 6.4425H2.90625L4.6875 7.72375L4 5.63L3.3125 7.72375ZM0.78125 7.72375L2.5625 6.4425H0.375L2.15625 7.72375L1.46875 5.63L0.78125 7.72375ZM5.84375 5.1925L7.625 3.91125H5.4375L7.21875 5.1925L6.53125 3.09875L5.84375 5.1925ZM3.3125 5.1925L5.09375 3.91125H2.90625L4.6875 5.1925L4 3.09875L3.3125 5.1925ZM0.78125 5.1925L2.5625 3.91125H0.375L2.15625 5.1925L1.46875 3.09875L0.78125 5.1925ZM5.84375 2.63L7.625 1.34875H5.4375L7.21875 2.63L6.53125 0.536255L5.84375 2.63ZM3.3125 2.63L5.09375 1.34875H2.90625L4.6875 2.63L4 0.536255L3.3125 2.63ZM0.78125 2.63L2.5625 1.34875H0.375L2.15625 2.63L1.46875 0.536255L0.78125 2.63Z" fill="#EEEEEE"/>
</g>
</g>
<defs>
<clipPath id="clip0_1_3606">
<rect y="0.130005" width="16" height="16" rx="8" fill="white"/>
</clipPath>
<clipPath id="clip1_1_3606">
<rect width="16" height="16" fill="white" transform="translate(0 0.130005)"/>
</clipPath>
</defs>
</svg>
