<svg width="61" height="10" viewBox="0 0 61 10" fill="none" xmlns="http://www.w3.org/2000/svg">
<g clip-path="url(#clip0_1_3470)">
<g clip-path="url(#clip1_1_3470)">
<path d="M43.5282 1.03016H42.4622V5.87795C42.4622 7.16552 41.3962 7.60814 39.8071 7.60814C38.1978 7.60814 37.152 7.14539 37.152 5.87795V1.03016H36.0855V6.09947C36.0654 7.99034 38.0967 8.5735 39.8066 8.5735C41.5162 8.5735 43.5277 7.99034 43.5277 6.09947L43.5282 1.03016ZM47.4108 1.03016H46.3645V1.51219C46.3645 1.57261 46.3846 1.63302 46.3846 1.71358V7.78853C46.3846 7.86908 46.3846 7.9295 46.3645 7.98992V8.47281H47.4108V1.03016ZM60.224 7.50745H54.7124V5.13368H59.0775V4.18846H54.7326V1.97495H60.0227C60.0831 1.97495 60.1233 1.97495 60.1838 1.99509H60.6666V1.03016H53.586V8.4531H60.8072V7.50745H60.224ZM4.36435 1.03016V6.09947C4.36435 7.28635 3.94189 7.62828 2.65483 7.62828C2.01087 7.62828 1.40761 7.50745 1.06528 7.28635L0.421742 7.00442L0.0999756 7.82924L0.884469 8.1913C1.00529 8.23158 1.12569 8.27185 1.26665 8.31213C1.71841 8.47357 2.1948 8.5552 2.67454 8.55336C4.24352 8.55336 5.41019 8.09061 5.41019 6.42126V1.03016H4.36435ZM13.597 7.68869C13.6373 7.76882 13.6776 7.84937 13.6977 7.95007L13.9394 8.47281H15.0456L11.5255 1.03016H10.0773L6.83822 8.4531H7.80395L8.00532 8.01048C8.02546 7.95007 8.0653 7.86951 8.10601 7.78896L8.76968 6.28072H8.78981L8.80995 6.26015H12.9132L13.597 7.68869ZM9.19213 5.31493L10.7813 1.77442L12.4706 5.31493H9.19213ZM23.9364 7.18523L23.2723 6.30043L22.5281 6.80346C22.0859 7.14539 21.2612 7.50745 20.1146 7.50745C18.3644 7.50745 17.1575 6.32057 17.1575 4.75148C17.1575 3.1824 18.3241 1.85497 20.2552 1.85497C21.1001 1.85497 21.9852 2.1969 22.448 2.47841L23.1116 2.84047L23.5945 1.83484L22.9103 1.47277C22.7697 1.41236 22.5889 1.35194 22.4077 1.27139C21.7235 1.03016 21.1806 0.909325 20.2354 0.909325C17.9419 0.929463 16.0512 2.35758 16.0512 4.77162C16.0512 7.20537 17.8815 8.5735 20.175 8.5735C21.9651 8.5735 22.9103 7.8091 23.4133 7.54773L23.936 7.18566L23.9364 7.18523ZM32.1635 9.09667L32.6057 9.49901L33.4304 8.77489L32.8675 8.27185C32.7466 8.17116 32.5658 8.03062 32.304 7.8091C33.3503 7.10511 33.9536 5.99878 33.9536 4.75148C33.9536 2.65966 32.304 0.929463 29.6892 0.929463C27.0744 0.929463 25.4248 2.65966 25.4248 4.75148C25.4248 6.84374 27.0744 8.5735 29.6892 8.5735C30.2723 8.5735 30.816 8.49338 31.2783 8.31213C31.7813 8.73461 32.0226 8.9557 32.1635 9.09667ZM29.6892 7.62828C27.7582 7.62828 26.5512 6.3407 26.5512 4.73177C26.5512 3.14212 27.7783 1.87511 29.6892 1.87511C31.6202 1.87511 32.8272 3.14212 32.8272 4.73134C32.8272 5.65686 32.4249 6.46154 31.7004 6.98471C31.3279 7.25605 30.9034 7.44771 30.4536 7.54773C30.2325 7.588 29.9908 7.62828 29.6892 7.62828ZM50.9708 4.10791H49.8645V5.21424H50.9708V4.10791Z" fill="black"/>
</g>
</g>
<defs>
<clipPath id="clip0_1_3470">
<rect width="60.84" height="9" fill="white" transform="translate(0.0999756 0.5)"/>
</clipPath>
<clipPath id="clip1_1_3470">
<rect width="60.84" height="8.99803" fill="white" transform="translate(0.0999756 0.500984)"/>
</clipPath>
</defs>
</svg>
