<svg width="58" height="14" viewBox="0 0 58 14" fill="none" xmlns="http://www.w3.org/2000/svg">
<g clip-path="url(#clip0_1_3465)">
<g clip-path="url(#clip1_1_3465)">
<path d="M7.5361 7.62086C7.5361 9.00363 7.15884 11.2671 3.94776 11.2671C2.15393 11.259 0.410034 10.2778 0.410034 7.93062V7H2.54806V7.48589C2.54806 8.52516 2.80789 9.28032 3.91469 9.28032C5.16322 9.28032 5.16322 8.27479 5.16322 7.51964V0.251488H7.5361V7.62086ZM13.3293 7.19301C12.9689 7.51154 12.2144 7.52841 11.5516 7.64516C10.8896 7.78013 10.2862 8.0062 10.2862 8.79375C10.2862 9.59008 10.9065 9.79186 11.5935 9.79186C13.2625 9.79186 13.3293 8.46713 13.3293 7.99743V7.19301ZM8.39118 5.61655C8.50861 3.61292 10.3024 3.0096 12.0551 3.0096C13.606 3.0096 15.4754 3.35378 15.4754 5.22312V9.27222C15.4754 9.98419 15.551 10.6887 15.744 11.0066H13.5722C13.4923 10.7622 13.4415 10.5091 13.4211 10.2528C12.7421 10.9567 11.7534 11.2165 10.7971 11.2165C9.32184 11.2165 8.14822 10.4789 8.14822 8.88621C8.14822 7.12552 9.47301 6.69834 10.7971 6.5222C12.105 6.3292 13.3293 6.37104 13.3293 5.49913C13.3293 4.57728 12.7003 4.44299 11.9458 4.44299C11.1325 4.44299 10.6048 4.77839 10.5285 5.61723H8.39118V5.61655ZM20.3379 11.9878C19.8682 13.237 19.1306 13.7485 17.6553 13.7485C17.2193 13.7485 16.7833 13.7148 16.3473 13.6729V11.9129C16.7496 11.9467 17.1775 12.0054 17.5959 11.9885C18.3342 11.9136 18.5772 11.1422 18.3342 10.5301L15.5928 3.22758H17.8814L19.6421 8.55891H19.6759L21.3691 3.21948H23.5827L20.3372 11.9871L20.3379 11.9878ZM51.9021 8.47522C51.919 9.40652 52.6985 9.78309 53.5454 9.78309C54.1663 9.78309 54.9458 9.54014 54.9458 8.78566C54.9458 8.13982 54.057 7.91375 52.523 7.57835C51.29 7.31043 50.0496 6.87448 50.0496 5.49981C50.0496 3.51237 51.7678 3.00151 53.4368 3.00151C55.1382 3.00151 56.7059 3.57108 56.8739 5.49103H54.8365C54.7778 4.66097 54.1407 4.43489 53.3774 4.43489C52.8996 4.43489 52.1876 4.52667 52.1876 5.15563C52.1876 5.92699 53.3943 6.02754 54.6104 6.31233C55.8589 6.59779 57.0832 7.05061 57.0832 8.4921C57.0832 10.5376 55.3062 11.2003 53.5286 11.2003C51.7179 11.2003 49.9571 10.5207 49.8653 8.45835H51.9021V8.47522ZM34.0286 7.62086C34.0286 9.00363 33.6506 11.2671 30.4402 11.2671C28.6464 11.2671 26.9025 10.2865 26.9025 7.93872V7H29.0398V7.48589C29.0398 8.52516 29.2997 9.28032 30.4065 9.28032C31.6557 9.28032 31.6557 8.27479 31.6557 7.51964V0.251488H34.0286V7.62086ZM39.8217 7.19301C39.4607 7.51154 38.7062 7.51964 38.0441 7.64516C37.382 7.78013 36.778 8.0062 36.778 8.78566C36.778 9.58198 37.3989 9.78309 38.0859 9.78309C39.7542 9.78309 39.8217 8.45835 39.8217 7.98933V7.19301ZM34.883 5.61655C35.0004 3.61292 36.7942 3.0096 38.5462 3.0096C40.0971 3.0096 41.9672 3.35378 41.9672 5.22312V9.27222C41.9672 9.98419 42.0421 10.6887 42.2351 11.0066H40.064C39.984 10.7622 39.9333 10.5091 39.9128 10.2528C39.2339 10.9567 38.2445 11.2165 37.2889 11.2165C35.8136 11.2165 34.64 10.4789 34.64 8.88621C34.64 7.12552 35.9641 6.69834 37.2889 6.5222C38.5968 6.3292 39.8211 6.37104 39.8211 5.49913C39.8211 4.57728 39.1921 4.44299 38.4375 4.44299C37.6243 4.44299 37.0959 4.77839 37.0203 5.61723H34.883V5.61655ZM46.8216 11.9878C46.3526 13.237 45.6142 13.7485 44.1389 13.7485C43.703 13.7485 43.267 13.7148 42.831 13.6729V11.9129C43.2333 11.9467 43.6611 12.0054 44.0802 11.9885C44.8179 11.9136 45.0615 11.1422 44.8179 10.5301L42.0772 3.21948H44.3657L46.1271 8.55081H46.1602L47.8623 3.21948H50.0759L46.8216 11.9871V11.9878Z" fill="black"/>
</g>
</g>
<defs>
<clipPath id="clip0_1_3465">
<rect width="56.69" height="13.5" fill="white" transform="translate(0.410034 0.25)"/>
</clipPath>
<clipPath id="clip1_1_3465">
<rect width="56.69" height="13.497" fill="white" transform="translate(0.410034 0.251488)"/>
</clipPath>
</defs>
</svg>
