<svg width="115" height="24" viewBox="0 0 115 24" fill="none" xmlns="http://www.w3.org/2000/svg">
<g clip-path="url(#clip0_1_3238)">
<g clip-path="url(#clip1_1_3238)">
<path d="M5.00326 7.23369C3.92119 7.21253 2.87476 7.62073 2.09285 8.36903V7.4362H0.550049V20.3109H2.09285V16.4411C2.88562 17.1663 3.92929 17.5547 5.00326 17.5245C5.63179 17.5368 6.25397 17.3969 6.81665 17.1166C7.37934 16.8362 7.8658 16.4239 8.23448 15.9147C8.96036 14.8746 9.33506 13.6299 9.3041 12.362C9.3041 9.29452 7.57573 7.23369 5.00326 7.23369ZM5.00326 15.9819C3.20808 15.9819 2.09285 14.5947 2.09285 12.362C2.09285 10.635 3.00362 8.77624 5.00326 8.77624C6.90853 8.77624 7.76144 10.5772 7.76144 12.362C7.76144 14.1637 6.90853 15.9819 5.00326 15.9819Z" fill="#231F20"/>
<path d="M22.2584 4.7002H20.716V7.43606H19.1116V8.97873H20.716V15.0979C20.716 17.1049 22.1294 17.3215 22.737 17.3215C22.9925 17.3258 23.2479 17.3121 23.5016 17.2807C23.5383 17.2763 23.574 17.272 23.6161 17.2686L24.1669 17.2211V15.4963L23.3951 15.7531C23.2047 15.7745 23.0131 15.7831 22.8216 15.7791C22.4004 15.7791 22.2584 15.7791 22.2584 15.0304V8.97871H24.2176V7.43605H22.2584V4.7002Z" fill="#231F20"/>
<path d="M39.6886 7.25281L39.1067 7.23393C39.0404 7.23161 38.9757 7.2305 38.9111 7.2305C37.9438 7.20022 36.9975 7.51696 36.2432 8.1235V7.43607H34.7006V17.3216H36.2432V11.8046C36.2432 10.2944 37.0565 8.7706 38.8731 8.7706C38.9329 8.7706 38.9939 8.77219 39.0576 8.7755L39.6885 8.80517L39.6886 7.25281Z" fill="#231F20"/>
<path d="M51.0529 4.05859H49.5104V17.3216H51.0529V4.05859Z" fill="#231F20"/>
<path d="M70.1704 7.43604H68.2547L65.5693 10.9702L63.1279 7.68231L62.9474 7.43604H60.9945L64.603 12.2219L60.6538 17.3216H62.6009L65.5652 13.4669L68.5439 17.3216H70.4907L66.5423 12.2227L70.1704 7.43604Z" fill="#231F20"/>
<path d="M84.3724 7.23343C83.4403 7.21216 82.5318 7.52928 81.8159 8.12606V7.43605H80.2736V17.3216H81.8159V11.8047C81.8159 10.2972 82.6066 8.77598 84.3724 8.77598C85.7587 8.77598 86.5218 9.56968 86.5218 11.0109V17.3216H88.0649V10.9602C88.0649 8.66148 86.6501 7.23343 84.3724 7.23343Z" fill="#231F20"/>
<path d="M96.3783 8.31666C95.5852 7.59162 94.5418 7.20322 93.4683 7.23354C92.8394 7.22108 92.2177 7.36098 91.6546 7.6413C91.0923 7.92162 90.6055 8.33403 90.2366 8.84327C89.5109 9.88337 89.1363 11.128 89.1672 12.3959C89.1672 15.4633 90.8956 17.5243 93.4683 17.5243C94.5499 17.5456 95.5966 17.1376 96.3783 16.3895V17.3217H97.9207V4.05859H96.3783V8.31666ZM93.4683 15.9818C91.5628 15.9818 90.7095 14.1808 90.7095 12.3959C90.7095 10.5942 91.5628 8.7761 93.4683 8.7761C95.2634 8.7761 96.3783 10.1631 96.3783 12.3959C96.3783 14.1229 95.4674 15.9818 93.4683 15.9818Z" fill="#231F20"/>
<path d="M113.099 7.23369C113.034 7.23173 112.97 7.23051 112.906 7.23051C111.939 7.20019 110.992 7.51689 110.238 8.12338V7.43596H108.696V17.3216H110.238V11.8048C110.238 10.2946 111.052 8.77085 112.868 8.77085C112.928 8.77085 112.989 8.77232 113.053 8.77562L113.684 8.80528V7.25269L113.099 7.23369Z" fill="#231F20"/>
<path d="M14.6709 7.23361C12.4833 7.23361 10.2688 9.00108 10.2688 12.3791C10.2688 15.6493 11.849 17.5249 14.6043 17.5249H14.6056L14.6709 17.5246C17.0115 17.5246 18.6983 16.0569 18.9678 13.7855L18.9871 13.6253H17.4346L17.4276 13.6669C17.187 15.1165 16.1438 15.9819 14.6373 15.9819C12.9365 15.9819 12.0219 15.0225 11.8428 13.0491H19.0496L19.0727 12.4723C19.1408 10.8739 18.6607 9.41566 17.7559 8.47168C17.3567 8.06127 16.8759 7.73905 16.3446 7.52581C15.8132 7.31257 15.2431 7.21302 14.6709 7.23361ZM17.4986 11.5067H11.8813C12.177 9.84591 13.2803 8.77627 14.7049 8.77627C15.0576 8.76529 15.409 8.82557 15.7379 8.9535C16.0669 9.08143 16.3667 9.27439 16.6193 9.52083C17.1234 10.0677 17.4325 10.7659 17.4986 11.5067Z" fill="#231F20"/>
<path d="M28.9248 7.23361C26.7372 7.23361 24.5227 9.00108 24.5227 12.3791C24.5227 15.6493 26.1028 17.5249 28.8581 17.5249H28.8595L28.9248 17.5246C31.2655 17.5246 32.9521 16.0569 33.2216 13.7855L33.2409 13.6253H31.6885L31.6815 13.6669C31.4408 15.1165 30.3977 15.9819 28.8912 15.9819C27.1904 15.9819 26.2758 15.0225 26.0966 13.0491H33.3035L33.3266 12.4723C33.3947 10.8739 32.9147 9.41566 32.0097 8.47168C31.6106 8.06126 31.1297 7.73905 30.5985 7.52581C30.0671 7.31256 29.497 7.21302 28.9248 7.23361ZM31.7525 11.5067H26.1351C26.4309 9.84591 27.5341 8.77627 28.9587 8.77627C29.3115 8.76529 29.6629 8.82557 29.9918 8.9535C30.3208 9.08143 30.6205 9.27439 30.8732 9.52083C31.3773 10.0677 31.6864 10.7659 31.7525 11.5067Z" fill="#231F20"/>
<path d="M61.1609 13.6253H59.6084L59.6014 13.6669C59.3608 15.1165 58.3177 15.9819 56.8112 15.9819C55.1104 15.9819 54.1958 15.0225 54.0166 13.049H61.2234L61.2466 12.4723C61.3147 10.8739 60.8346 9.41565 59.9297 8.47166C59.5305 8.06125 59.0497 7.73904 58.5184 7.5258C57.9871 7.31256 57.417 7.21302 56.8447 7.23361C54.6572 7.23361 52.4426 9.00108 52.4426 12.3791C52.4426 15.6493 54.0228 17.5249 56.7781 17.5249H56.7794L56.8447 17.5246C59.1855 17.5246 60.8721 16.0569 61.1416 13.7855L61.1609 13.6253ZM59.6725 11.5067H54.0551C54.3509 9.84589 55.4541 8.77627 56.8787 8.77627C57.2314 8.76528 57.5828 8.82556 57.9118 8.95349C58.2407 9.08142 58.5405 9.27437 58.7931 9.52081C59.2972 10.0677 59.6064 10.7659 59.6725 11.5067Z" fill="#231F20"/>
<path d="M103.345 7.23361C101.158 7.23361 98.9432 9.00108 98.9432 12.3791C98.9432 15.6493 100.524 17.5249 103.279 17.5249H103.28L103.345 17.5246C105.686 17.5246 107.373 16.0569 107.642 13.7855L107.662 13.6253H106.109L106.102 13.6669C105.862 15.1165 104.818 15.9819 103.312 15.9819C101.611 15.9819 100.697 15.0225 100.517 13.0491H107.724L107.747 12.4723C107.815 10.8739 107.335 9.41566 106.431 8.47168C106.032 8.06126 105.551 7.73904 105.019 7.52581C104.488 7.31256 103.918 7.21302 103.345 7.23361ZM106.173 11.5067H100.555C100.851 9.84591 101.955 8.77627 103.379 8.77627C103.732 8.76529 104.084 8.82557 104.413 8.9535C104.741 9.08143 105.041 9.27439 105.294 9.52083C105.798 10.0677 106.107 10.7659 106.173 11.5067Z" fill="#231F20"/>
<path d="M48.4465 16.3652L48.4269 15.7141L47.7732 15.7836C47.6654 15.7952 47.5313 15.8096 47.4214 15.8096C47.393 15.8096 47.3689 15.8085 47.349 15.807L47.3486 10.3027C47.2965 8.35243 46.0306 7.23389 43.8757 7.23389C41.5379 7.23389 40.0755 8.52711 39.9636 10.6932L39.9413 11.1272H41.4788L41.5037 10.768C41.6003 9.44646 42.3983 8.77643 43.8757 8.77643C45.5077 8.77643 45.8063 9.38124 45.8063 10.5722C45.8063 11.1182 45.7352 11.2248 43.4862 11.345L42.9723 11.3731C41.4485 11.4796 39.4226 11.9274 39.4226 14.5749C39.4226 16.3943 40.7664 17.5245 42.9297 17.5245C44.0171 17.5449 45.0751 17.1698 45.9067 16.4688C46.0629 16.8819 46.4611 17.3394 47.4588 17.3394C47.5843 17.3394 47.7249 17.3331 47.8884 17.3203L48.447 17.2795L48.4465 16.3652ZM45.8063 13.2235C45.8063 14.5942 44.8067 15.9818 42.896 15.9818C41.216 15.9818 40.9651 15.1004 40.9651 14.5749C40.9651 13.1786 41.8721 13.0004 43.0574 12.9122C43.2931 12.8953 43.5342 12.8831 43.817 12.869C44.4863 12.8629 45.1532 12.786 45.8063 12.6395V13.2235Z" fill="#231F20"/>
<path d="M79.4943 16.3652L79.4746 15.7141L78.821 15.7836C78.7133 15.7952 78.579 15.8096 78.4692 15.8096C78.4408 15.8096 78.4167 15.8085 78.3967 15.807L78.3964 10.3027C78.3443 8.35243 77.0784 7.23389 74.9235 7.23389C72.5857 7.23389 71.1233 8.52711 71.0115 10.6932L70.9891 11.1272H72.5265L72.5515 10.768C72.6481 9.44646 73.4461 8.77643 74.9235 8.77643C76.5555 8.77643 76.8541 9.38124 76.8541 10.5722C76.8541 11.1182 76.783 11.2248 74.534 11.345L74.0202 11.3731C72.4963 11.4796 70.4703 11.9274 70.4703 14.5749C70.4703 16.3943 71.8142 17.5245 73.9775 17.5245C75.0649 17.5449 76.1228 17.1698 76.9545 16.4688C77.1106 16.8819 77.5089 17.3394 78.5066 17.3394C78.6321 17.3394 78.7727 17.3331 78.9362 17.3203L79.4948 17.2795L79.4943 16.3652ZM76.8541 13.2235C76.8541 14.5942 75.8545 15.9818 73.9438 15.9818C72.2639 15.9818 72.0129 15.1004 72.0129 14.5749C72.0129 13.1786 72.9199 13.0004 74.1052 12.9122C74.3408 12.8953 74.5819 12.8831 74.8647 12.869C75.5341 12.8629 76.201 12.786 76.8541 12.6395V13.2235Z" fill="#231F20"/>
</g>
</g>
<defs>
<clipPath id="clip0_1_3238">
<rect width="113.77" height="22.75" fill="white" transform="translate(0.550049 0.810059)"/>
</clipPath>
<clipPath id="clip1_1_3238">
<rect width="113.77" height="16.4878" fill="white" transform="translate(0.550049 3.94092)"/>
</clipPath>
</defs>
</svg>
