<svg width="46" height="60" viewBox="0 0 46 60" fill="none" xmlns="http://www.w3.org/2000/svg">
<g clip-path="url(#clip0_1_3528)">
<g clip-path="url(#clip1_1_3528)">
<path d="M45.47 0.000801086H0.5V59.9992H45.47V0.000801086Z" fill="white"/>
<path d="M45.47 12.4205H0.5V47.5195H45.47V12.4205Z" fill="#0054A0"/>
<path d="M13.4596 27.0001V15.4204H10.0097V25.5001C10.0097 27.5401 8.71973 27.2701 8.35974 27.3001L9.40971 30.3C10.4604 30.4433 11.5272 30.198 12.4096 29.61C12.7847 29.2939 13.0765 28.8908 13.2595 28.4358C13.4426 27.9807 13.5113 27.4878 13.4596 27.0001Z" fill="white"/>
<path d="M6.91984 39.9297V28.41H3.49993V38.4898C3.49993 40.5297 2.20997 40.2597 1.84998 40.2897L2.89995 43.2897C3.95085 43.4387 5.01969 43.1929 5.89987 42.5997C6.26238 42.2654 6.5369 41.8468 6.69911 41.3811C6.86131 40.9154 6.90622 40.4169 6.82984 39.9297" fill="white"/>
<path d="M23.3598 24.4501V18.4503H20.3599V24.4501C20.2867 24.7008 20.1481 24.9273 19.9582 25.1066C19.7684 25.2859 19.5343 25.4113 19.2799 25.4701C18.38 25.4701 18.32 25.0501 18.26 24.4202V18.4203H15.26V24.4202C15.2159 25.0494 15.2159 25.6809 15.26 26.3101C15.5 28.1401 17.63 28.26 17.9 28.29C18.4235 28.3301 18.9485 28.2321 19.4223 28.0057C19.896 27.7794 20.3021 27.4326 20.5999 27.0001C20.7419 27.4818 21.0643 27.8901 21.4999 28.1401C22.1156 28.3297 22.7741 28.3297 23.3898 28.1401L24.1698 25.3801C23.3898 25.3801 23.3598 24.5101 23.3598 24.3002" fill="white"/>
<path d="M38.5698 20.4603V18.2403H36.1699V15.2404H35.3299L32.33 18.6603V20.4003H33.1999V25.1701C33.1999 25.4401 33.1999 25.7701 33.1999 25.8901C33.3315 26.621 33.7294 27.2772 34.3169 27.7316C34.9043 28.186 35.6393 28.4063 36.3798 28.35C36.8018 28.369 37.223 28.2986 37.6159 28.1435C38.0088 27.9884 38.3645 27.7521 38.6598 27.4501V25.0201C38.2307 25.3751 37.7114 25.6036 37.1598 25.6801C36.4998 25.6801 36.3798 25.3801 36.3198 24.9001V20.4603H38.5698Z" fill="white"/>
<path d="M30.7398 18.7503C30.0745 18.2953 29.2951 18.0355 28.4899 18.0003C27.6419 17.9586 26.8109 18.2482 26.1727 18.8081C25.5345 19.3679 25.139 20.1541 25.0699 21.0002C25.0699 21.6302 25.0699 22.4702 26.9299 23.7302C27.1099 23.7302 28.6399 24.8701 28.5799 25.3201C28.5199 25.7701 28.1599 26.0401 27.0499 25.6201C26.4338 25.3582 25.8499 25.026 25.3099 24.6301V27.2401C26.1713 27.9153 27.2175 28.3129 28.3099 28.38C29.0112 28.4228 29.7092 28.2541 30.3135 27.8958C30.9179 27.5374 31.4008 27.0059 31.6998 26.3701C31.8799 25.7491 31.8546 25.0864 31.6275 24.481C31.4005 23.8755 30.9839 23.3596 30.4398 23.0102C30.1098 22.7402 27.8899 21.9302 28.4599 20.8502C28.6399 20.5803 29.2098 20.0703 30.8298 21.2102L30.7398 18.7503Z" fill="white"/>
<path d="M41.2398 31.41C40.493 30.9463 39.6288 30.7068 38.7499 30.72C37.9504 30.7531 37.1901 31.0756 36.6107 31.6275C36.0312 32.1793 35.672 32.923 35.6 33.7199C35.6 34.3799 35.6 35.2199 37.4599 36.4498C37.6399 36.4498 39.4099 37.6198 39.0799 38.1898C39.0799 38.1898 38.5699 38.7598 37.5499 38.3398C36.8889 38.0728 36.2558 37.7412 35.66 37.3498V39.9597C36.5347 40.6158 37.572 41.0203 38.6599 41.1297C39.3789 41.1645 40.0914 40.9793 40.7024 40.5987C41.3134 40.2182 41.7939 39.6604 42.0798 38.9998C42.2406 38.4612 42.235 37.8867 42.0637 37.3514C41.8924 36.8161 41.5634 36.345 41.1198 35.9998C40.7598 35.4899 38.1199 34.7099 38.8699 33.5999C39.0499 33.3299 39.5899 32.8499 41.2098 33.9899L41.2398 31.41Z" fill="white"/>
<path d="M34.3998 33.6599C34.4586 33.306 34.4373 32.9434 34.3374 32.5988C34.2376 32.2542 34.0617 31.9364 33.8229 31.6688C33.584 31.4011 33.2881 31.1904 32.9571 31.0522C32.626 30.9139 32.2682 30.8517 31.9099 30.87C31.381 30.8233 30.8502 30.9353 30.3853 31.1918C29.9204 31.4483 29.5425 31.8376 29.3 32.3099V31.02H26.3V40.8297H29.3V34.8299C29.3 34.1699 29.81 33.5399 30.4099 33.5099C30.5386 33.5098 30.6659 33.5356 30.7844 33.5857C30.9028 33.6358 31.01 33.7092 31.0996 33.8016C31.1891 33.8939 31.2592 34.0033 31.3056 34.1233C31.3521 34.2432 31.3739 34.3713 31.3699 34.4999V40.6797H34.3698V33.6599H34.3998Z" fill="white"/>
<path d="M13.3696 38.6998C14.4429 38.6347 15.479 38.2825 16.3696 37.6798V39.9297C15.1215 40.6922 13.692 41.1065 12.2297 41.1297C11.5038 41.0766 10.8041 40.8358 10.1993 40.4308C9.59452 40.0259 9.10535 39.4707 8.77976 38.8198C8.34005 37.8726 8.13246 36.8342 8.1742 35.7908C8.21593 34.7474 8.50579 33.7289 9.01975 32.8199C9.3633 32.1943 9.86609 31.6706 10.4772 31.3018C11.0883 30.933 11.786 30.7323 12.4997 30.72C13.1223 30.6606 13.7498 30.7617 14.3223 31.0138C14.8947 31.2659 15.393 31.6605 15.7696 32.1599C16.4691 33.4965 16.7611 35.0089 16.6095 36.5098H11.3597C11.6897 38.7898 13.1296 38.6998 13.3696 38.6998ZM11.3297 35.0399H13.6096C13.6096 34.8599 13.6096 33.0299 12.4697 32.9399C12.2297 32.9399 11.2997 33.1199 11.3297 35.0399Z" fill="white"/>
<path d="M18.14 32.1899C18.5569 31.7628 19.0567 31.4254 19.6087 31.1984C20.1607 30.9715 20.7532 30.8597 21.3499 30.87C22.1057 30.8183 22.8557 31.0331 23.4695 31.4771C24.0834 31.921 24.5222 32.566 24.7099 33.2999V38.1598C24.737 38.3433 24.8262 38.5119 24.9627 38.6375C25.0992 38.7631 25.2747 38.838 25.4598 38.8498L24.7699 41.0997C24.7699 41.0997 23.0299 41.0997 22.6699 40.2597C21.9042 40.8657 20.9454 41.1747 19.97 41.1297C19.6332 41.1466 19.2966 41.0932 18.9816 40.973C18.6666 40.8527 18.38 40.6682 18.1402 40.4312C17.9003 40.1942 17.7125 39.9098 17.5885 39.5962C17.4645 39.2827 17.4071 38.9467 17.4201 38.6098C17.3826 38.1021 17.5117 37.596 17.7878 37.1683C18.0639 36.7406 18.4719 36.4147 18.95 36.2398C19.7737 35.8778 20.6268 35.5868 21.4999 35.3699C21.4999 35.3699 21.7699 33.5699 20.78 33.5399C20.54 33.5399 19.61 33.5399 17.96 34.9799L18.14 32.1899ZM20.75 37.5898C20.5977 37.6937 20.4722 37.8321 20.3835 37.9937C20.2949 38.1553 20.2457 38.3355 20.24 38.5198C20.2468 38.7114 20.324 38.8939 20.4568 39.0322C20.5896 39.1705 20.7687 39.2551 20.96 39.2697C21.224 39.2659 21.4785 39.1704 21.6799 38.9998C21.755 38.3319 21.755 37.6577 21.6799 36.9898L20.75 37.5298" fill="white"/>
<path d="M43.67 41.3997C43.7842 41.514 43.8747 41.6496 43.9365 41.7989C43.9983 41.9482 44.03 42.1081 44.03 42.2697C44.0317 42.4315 44.0007 42.5919 43.9389 42.7415C43.877 42.891 43.7855 43.0264 43.67 43.1397C43.4374 43.3676 43.1256 43.4966 42.8 43.4996C42.4658 43.4996 42.1454 43.3669 41.9091 43.1306C41.6728 42.8943 41.54 42.5738 41.54 42.2397C41.541 42.0077 41.6031 41.7801 41.72 41.5797C41.8311 41.3933 41.9896 41.2396 42.1792 41.1343C42.3689 41.0289 42.5831 40.9756 42.8 40.9797C42.9687 40.9795 43.1357 41.014 43.2905 41.0811C43.4454 41.1482 43.5847 41.2464 43.7 41.3697M42.08 41.3697C41.8758 41.5666 41.7572 41.8361 41.75 42.1197C41.7507 42.3899 41.8586 42.6489 42.05 42.8397C42.1465 42.9421 42.2627 43.0241 42.3915 43.0808C42.5203 43.1375 42.6593 43.1677 42.8 43.1697C42.9386 43.1716 43.0763 43.1462 43.205 43.0947C43.3337 43.0432 43.451 42.9667 43.55 42.8697C43.6461 42.7762 43.7223 42.6642 43.7739 42.5405C43.8254 42.4167 43.8513 42.2838 43.85 42.1497C43.8531 41.9433 43.7953 41.7407 43.6839 41.567C43.5725 41.3933 43.4124 41.2562 43.2235 41.173C43.0347 41.0898 42.8255 41.0641 42.6221 41.0991C42.4188 41.134 42.2302 41.2282 42.08 41.3697ZM42.83 41.3697C43.22 41.3697 43.43 41.3697 43.43 41.7597C43.4312 41.8456 43.4016 41.9292 43.3466 41.9952C43.2916 42.0612 43.2147 42.1054 43.13 42.1197L43.43 42.7497H43.07L42.8 42.1797H42.5V42.7497H42.17V41.3697H42.83ZM42.62 41.9997H42.8C42.98 41.9997 43.1 41.9997 43.1 41.7897C43.1 41.5797 43.1 41.5797 42.8 41.5797L42.62 41.9997Z" fill="white"/>
<path d="M45.47 0.000801086H0.5V11.6105H45.47V0.000801086Z" fill="#E32213"/>
<path d="M45.47 48.3295H0.5V59.9992H45.47V48.3295Z" fill="#E32213"/>
</g>
</g>
<defs>
<clipPath id="clip0_1_3528">
<rect width="44.97" height="60" fill="white" transform="translate(0.5)"/>
</clipPath>
<clipPath id="clip1_1_3528">
<rect width="44.97" height="59.9984" fill="white" transform="translate(0.5 0.000801086)"/>
</clipPath>
</defs>
</svg>
