<svg width="115" height="24" viewBox="0 0 115 24" fill="none" xmlns="http://www.w3.org/2000/svg">
<g clip-path="url(#clip0_1_3257)">
<g clip-path="url(#clip1_1_3257)">
<path d="M21.3213 17.7241C21.0418 18.1434 19.9238 19.5409 17.2673 19.5409C16.0096 19.5409 13.3531 18.8421 13.3531 15.2076V5.00364H17.8275V13.5295C17.8275 14.6486 17.9661 15.4871 19.0842 15.4871C19.9238 15.4871 20.4817 14.7883 20.7623 13.9498V5.00364H25.0958V13.9498C25.0958 14.2293 25.0958 15.4881 26.2138 15.4881L25.0958 19.5409C23.5574 19.8204 21.8803 19.5409 21.3213 17.7241ZM39.354 15.4871C39.354 18.9819 42.4297 19.6806 43.967 19.6806C45.5054 19.6806 46.7632 18.9819 47.3222 18.424V14.7883C46.6235 15.3473 45.6452 15.7666 45.2259 15.7666C44.3863 15.7666 43.967 15.3473 43.967 14.3691V8.22006H47.462V5.00256H43.967V0.810059H42.7103L38.236 5.70239V8.22006H39.4938V15.4892H39.354V15.4871ZM35.8591 5.70239C35.1603 5.14339 33.623 4.72414 32.505 4.72414C29.4293 4.72414 27.7522 7.09989 27.7522 9.05748C27.7522 13.1113 32.7845 13.5306 32.7845 15.2076C32.7845 15.7676 32.2255 15.9074 31.6664 15.9074C30.8268 15.9074 29.4293 15.2076 28.0317 14.2293V18.0036C29.01 18.8421 30.9677 19.6806 32.3652 19.6806C35.5796 19.6806 37.3975 17.5844 37.3975 15.3473C37.3975 11.2935 32.3652 11.2935 32.3652 9.19723C32.3652 8.49848 33.3435 7.38048 35.8602 9.19723L35.8591 5.70239ZM5.94503 15.4871C5.94503 18.4229 3.98738 18.0036 3.56812 18.1434L5.1065 22.4767C6.92332 22.7562 8.74013 22.1972 9.57866 21.4985C10.1388 21.0792 10.9762 20.3794 10.9762 17.5844V0.810059H5.94612L5.94503 15.4871ZM99.1843 8.49848C99.1843 5.56264 97.6459 4.44464 95.5496 4.44464C93.7328 4.44464 92.3342 5.28314 91.7751 6.54089V4.72414H87.5825V18.8421H91.7751V10.3163C91.916 9.47673 92.4739 8.49848 93.4533 8.49848C94.1521 8.49848 94.8508 9.05748 94.8508 10.0368V18.8421H99.1843V8.49848ZM54.4519 15.4871C54.4519 18.4229 52.4943 18.0036 52.075 18.1434L53.6134 22.4767C55.4302 22.7562 57.247 22.1972 58.0866 21.4985C58.6456 21.0792 59.4842 20.3794 59.4842 17.5844V0.949809H54.4519V15.4871ZM108.969 5.28314C108.271 4.72414 106.733 4.30489 105.615 4.30489C102.538 4.30489 100.861 6.68064 100.861 8.63823C100.861 12.6921 105.895 13.1113 105.895 14.7883C105.895 15.3473 105.336 15.4871 104.776 15.4871C103.937 15.4871 102.54 14.7883 101.141 13.8101V17.5844C102.12 18.4229 104.077 19.2614 105.474 19.2614C108.69 19.2614 110.508 17.1651 110.508 14.9281C110.508 10.8742 105.475 10.8742 105.475 8.77798C105.475 8.07923 106.454 6.96014 108.969 8.77798V5.28314ZM79.754 16.6051C79.3348 16.6051 78.6349 16.1869 78.6349 15.4871C78.6349 14.2304 80.0325 13.8101 80.7323 13.2511V15.2076C80.7323 15.7676 80.8721 16.1869 80.8721 16.1869C80.7313 16.3266 80.3131 16.6061 79.754 16.6061V16.6051ZM85.2056 14.9281V8.63823C85.2056 5.70239 82.6889 4.30489 80.3131 4.30489C78.4952 4.30489 76.6784 5.14339 75.7001 6.40114V10.455C77.3771 8.91664 78.7747 8.35873 79.754 8.35873C80.8721 8.35873 80.8721 9.61648 80.8721 11.014C79.6143 11.573 78.077 11.7138 76.6784 12.4115C75.2808 13.1113 74.8615 14.3691 74.8615 15.7676C74.8615 17.4446 75.9796 19.4011 78.4952 19.4011C80.0336 19.4011 81.1516 18.9819 82.2696 18.1434C82.8287 18.9819 83.9478 19.4011 85.3453 19.2614L86.3236 16.0471C85.7646 15.7676 85.2056 15.4871 85.2056 14.9281ZM65.7753 10.455C65.7753 8.91664 66.3332 7.38048 67.4524 7.38048C68.4306 7.38048 69.1294 8.63714 69.1294 10.455H65.7753ZM67.5921 4.30489C64.5164 4.30489 61.301 6.96014 61.301 12.2728C61.301 16.4653 64.2369 19.4011 67.5921 19.4011C69.8282 19.4011 71.7848 18.5626 73.1834 17.5844V14.2293C72.0654 14.9281 70.3883 15.7676 68.7102 15.7676C66.4741 15.7676 65.7742 13.6703 65.7742 12.5523H73.4629C73.7424 6.54089 71.0882 4.30489 67.5921 4.30489Z" fill="black"/>
</g>
</g>
<defs>
<clipPath id="clip0_1_3257">
<rect width="113.77" height="22.75" fill="white" transform="translate(0.310059 0.810059)"/>
</clipPath>
<clipPath id="clip1_1_3257">
<rect width="112.616" height="22.75" fill="white" transform="translate(0.886841 0.810059)"/>
</clipPath>
</defs>
</svg>
