<svg width="114" height="24" viewBox="0 0 114 24" fill="none" xmlns="http://www.w3.org/2000/svg">
<g clip-path="url(#clip0_1_3262)">
<g clip-path="url(#clip1_1_3262)">
<path d="M80.109 6.0246H78.4531C75.1108 6.0246 72.67 6.80853 72.67 10.2674V12.6498C72.67 16.079 75.1108 16.8926 78.4531 16.8926H80.109C81.7075 16.8926 83.1015 16.6603 84.1197 16.079V16.8926H85.8922V10.2674C85.8922 6.80949 83.4514 6.0246 80.109 6.0246ZM84.1197 12.5341C84.1197 14.9748 82.6951 15.4404 80.632 15.4404H77.9005C75.867 15.4404 74.4138 14.9748 74.4138 12.5341V10.3544C74.4138 7.91368 75.8383 7.4481 77.9005 7.4481H80.632C82.6665 7.4481 84.1197 7.91368 84.1197 10.3544V12.5341ZM65.4929 5.99591H65.2597C63.1095 5.99591 61.3953 6.31522 60.4067 7.44906C59.4191 6.31522 57.6466 5.99591 55.4965 5.99591H55.4678C53.8396 5.99591 52.4734 6.37354 51.4858 7.12879V6.08291H49.829V16.8056H51.6025V10.3257C51.6025 7.885 53.026 7.41942 55.0892 7.41942H56.0481C58.0826 7.41942 59.5348 7.885 59.5348 10.3257V16.776H61.3083V10.3257C61.3083 7.885 62.7319 7.41942 64.795 7.41942H66.0446C68.1077 7.41942 69.5313 7.885 69.5313 10.3257V16.776H71.3057V10.2091C71.277 6.77985 68.8353 5.99591 65.4929 5.99591ZM22.397 6.0246H20.5088C17.1665 6.0246 14.7257 6.80853 14.7257 10.2674V12.5628C14.7257 15.992 17.1665 16.8056 20.5088 16.8056H22.398C25.7394 16.8056 28.1802 15.992 28.1802 12.5628V10.2674C28.1802 6.80949 25.7394 6.0246 22.397 6.0246ZM26.4077 12.4471C26.4077 14.8878 24.9832 15.3534 22.921 15.3534H19.9859C17.9227 15.3534 16.4982 14.8878 16.4982 12.4471V10.3544C16.4982 7.91368 17.9227 7.4481 19.9859 7.4481H22.921C24.9841 7.4481 26.4077 7.91368 26.4077 10.3544V12.4471ZM7.72262 6.0246H5.83347C2.52075 6.0246 0.0799561 6.80853 0.0799561 10.2387V21.7453H1.85247V15.9624C2.86971 16.5436 4.26459 16.776 5.8631 16.776H7.7513C11.0937 16.776 13.5345 15.9633 13.5345 12.5341V10.2387C13.5058 6.80949 11.065 6.0246 7.72262 6.0246ZM11.7619 12.4471C11.7619 14.8878 10.3374 15.3534 8.27426 15.3534H5.31051C3.24735 15.3534 1.82379 14.8878 1.82379 12.4471V10.3544C1.82379 7.91368 3.24831 7.4481 5.31051 7.4481H8.24558C10.2801 7.4481 11.7323 7.91368 11.7323 10.3544V12.4471H11.7619ZM94.3484 6.0246H93.1276C91.4717 6.0246 90.0472 6.40222 89.0012 7.21579V6.25786H87.3454V16.7482H89.1179V10.3544C89.1179 7.91368 90.5414 7.4481 92.6046 7.4481H94.9001C96.9632 7.4481 98.3878 7.91368 98.3878 10.3544V16.7186H100.16V10.2674C100.131 6.80949 97.6908 6.0246 94.3484 6.0246ZM109.517 10.646H104.868C103.124 10.646 102.833 10.1508 102.833 9.30756V8.93089C102.833 7.73969 103.356 7.50642 105.74 7.50642H108.878C110.244 7.50642 111.174 7.5351 111.522 8.20431L113.033 7.44906C112.626 6.60585 111.58 6.05328 108.965 6.05328H106.176C102.049 6.05328 101.119 6.98348 101.119 8.69857V9.30851C101.119 11.2846 101.991 12.0982 104.345 12.0982H109.721C111.726 12.0982 111.988 12.6498 111.988 13.667V13.754C111.988 15.3238 111.203 15.4108 108.675 15.4108H104.868C103.851 15.4108 103.182 15.2071 102.833 14.7712L101.323 15.4691C102.078 16.8343 103.851 16.8343 105.74 16.8343H109.023C111.057 16.8343 113.643 16.7186 113.643 13.8133V13.7836C113.73 10.906 112.045 10.645 109.517 10.645V10.646ZM35.4739 5.99591C33.8763 5.99591 32.4815 6.19955 31.4642 6.75117V5.99591H29.6917V16.7473H31.4346V10.3544C31.4346 7.91368 32.8591 7.4481 34.9223 7.4481C34.9223 7.4481 37.5371 7.47774 37.886 8.146L39.3392 7.39074C38.8162 6.08291 35.4739 5.99591 35.4739 5.99591ZM46.9819 15.3821C47.6798 15.3821 48.6091 15.2655 48.6091 15.2655V16.776C48.5804 16.776 47.9991 16.8926 47.2725 16.8926C46.3136 16.8926 41.5764 17.0379 41.5764 13.3477V7.50642L41.5477 7.44906H40.2685V6.0246H41.5477V2.625H43.3785V6.0246H47.9408V7.44906H43.3785V12.8534C43.3785 14.5102 44.1912 15.3821 46.9819 15.3821Z" fill="black"/>
</g>
</g>
<defs>
<clipPath id="clip0_1_3262">
<rect width="113.77" height="22.75" fill="white" transform="translate(0.0799561 0.810059)"/>
</clipPath>
<clipPath id="clip1_1_3262">
<rect width="113.77" height="19.1203" fill="white" transform="translate(0.0799561 2.625)"/>
</clipPath>
</defs>
</svg>
