<svg width="115" height="24" viewBox="0 0 115 24" fill="none" xmlns="http://www.w3.org/2000/svg">
<g clip-path="url(#clip0_1_3267)">
<g clip-path="url(#clip1_1_3267)">
<path d="M81.1356 10.9497H78.7638V23.1415H81.1367L81.1356 10.9497ZM77.2031 8.74981H74.2478V0.810059H71.8828V8.74981H67.1461V0.810059H64.7732V8.74981H62.0886V11.1135H64.7732V23.1335H67.1461V11.1135H71.8828V23.1335H74.2489V11.1135H77.2031V8.74981ZM81.1606 8.70772C81.1606 9.38112 80.6191 9.92371 79.9457 9.92371C79.786 9.92401 79.6278 9.89275 79.4802 9.83174C79.3326 9.77072 79.1985 9.68114 79.0856 9.56815C78.9727 9.45516 78.8832 9.32099 78.8224 9.17333C78.7615 9.02567 78.7304 8.86744 78.7308 8.70772C78.7308 8.03546 79.2723 7.49287 79.9457 7.49287C80.2677 7.49347 80.5764 7.62166 80.8041 7.84936C81.0318 8.07706 81.16 8.38571 81.1606 8.70772ZM55.8572 10.7859C52.1943 10.7859 49.231 13.6422 49.231 17.173C49.231 20.7027 52.1954 23.5601 55.8572 23.5601C59.5189 23.5601 62.4822 20.7027 62.4822 17.173C62.4822 13.6422 59.5189 10.7848 55.8572 10.7848V10.7859ZM55.8572 21.3681C54.7445 21.3678 53.6775 20.9258 52.8906 20.1391C52.1037 19.3525 51.6614 18.2856 51.6608 17.173C51.6614 16.0604 52.1037 14.9935 52.8906 14.2069C53.6775 13.4202 54.7445 12.9782 55.8572 12.9779C56.9696 12.9785 58.0364 13.4207 58.823 14.2073C59.6096 14.9939 60.0518 16.0606 60.0524 17.173C60.0518 18.2854 59.6096 19.3521 58.823 20.1387C58.0364 20.9253 56.9696 21.3675 55.8572 21.3681ZM45.3964 0.810059V12.9199C44.7639 12.2429 43.9985 11.7037 43.148 11.3363C42.2974 10.9689 41.3802 10.7812 40.4537 10.7848C36.8011 10.7859 33.8367 13.6422 33.8367 17.173C33.8367 20.7027 36.8011 23.5601 40.4628 23.5601C41.3895 23.5646 42.307 23.3773 43.1576 23.0099C44.0083 22.6424 44.7736 22.1028 45.4055 21.425V23.1335H47.7772V0.810059H45.3964ZM40.4628 21.3681C39.3502 21.3678 38.2832 20.9258 37.4963 20.1391C36.7094 19.3525 36.2671 18.2856 36.2665 17.173C36.2671 16.0604 36.7094 14.9935 37.4963 14.2069C38.2832 13.4202 39.3502 12.9782 40.4628 12.9779C41.5753 12.9785 42.642 13.4207 43.4287 14.2073C44.2153 14.9939 44.6575 16.0606 44.6581 17.173C44.6575 18.2854 44.2153 19.3521 43.4287 20.1387C42.642 20.9253 41.5753 21.3675 40.4628 21.3681Z" fill="black"/>
</g>
</g>
<defs>
<clipPath id="clip0_1_3267">
<rect width="113.77" height="22.75" fill="white" transform="translate(0.839966 0.810059)"/>
</clipPath>
<clipPath id="clip1_1_3267">
<rect width="47.7767" height="22.75" fill="white" transform="translate(33.8367 0.810059)"/>
</clipPath>
</defs>
</svg>
