<svg width="115" height="24" viewBox="0 0 115 24" fill="none" xmlns="http://www.w3.org/2000/svg">
<g clip-path="url(#clip0_1_3272)">
<g clip-path="url(#clip1_1_3272)">
<path d="M21.7295 13.2316C21.7295 15.5623 21.0937 19.3775 15.6812 19.3775C12.6577 19.3638 9.71826 17.7099 9.71826 13.7537V12.1851H13.322V13.0041C13.322 14.7558 13.7599 16.0287 15.6255 16.0287C17.73 16.0287 17.73 14.3338 17.73 13.0609V0.810059H21.7295V13.2316ZM31.4942 12.5104C30.8867 13.0473 29.615 13.0757 28.4979 13.2725C27.382 13.5 26.365 13.8811 26.365 15.2085C26.365 16.5508 27.4104 16.8909 28.5684 16.8909C31.3816 16.8909 31.4942 14.658 31.4942 13.8663V12.5104ZM23.1708 9.85318C23.3687 6.47595 26.3923 5.45902 29.3465 5.45902C31.9606 5.45902 35.1116 6.03915 35.1116 9.19002V16.015C35.1116 17.2151 35.239 18.4026 35.5643 18.9384H31.9037C31.7689 18.5264 31.6834 18.0999 31.6489 17.6678C30.5045 18.8542 28.838 19.2922 27.2261 19.2922C24.7395 19.2922 22.7613 18.0489 22.7613 15.3644C22.7613 12.3966 24.9943 11.6766 27.2261 11.3797C29.4307 11.0544 31.4942 11.1249 31.4942 9.65526C31.4942 8.10143 30.434 7.87507 29.1622 7.87507C27.7915 7.87507 26.9019 8.44041 26.7734 9.85432H23.1708V9.85318ZM43.3075 20.5923C42.5158 22.6978 41.2725 23.5601 38.7858 23.5601C38.051 23.5601 37.3161 23.5032 36.5813 23.4327V20.4661C37.2592 20.5229 37.9804 20.6219 38.6857 20.5935C39.9302 20.4672 40.3397 19.167 39.9302 18.1353L35.3095 5.82643H39.1669L42.1347 14.8127H42.1916L45.0457 5.81278H48.7768L43.3064 20.5912L43.3075 20.5923ZM96.5103 14.6716C96.5387 16.2414 97.8526 16.8761 99.2802 16.8761C100.327 16.8761 101.641 16.4666 101.641 15.1949C101.641 14.1063 100.142 13.7252 97.5568 13.1599C95.4786 12.7083 93.3878 11.9735 93.3878 9.6564C93.3878 6.30646 96.2839 5.44537 99.0971 5.44537C101.965 5.44537 104.607 6.40542 104.891 9.64161H101.456C101.357 8.24248 100.284 7.86142 98.997 7.86142C98.1916 7.86142 96.9915 8.01612 96.9915 9.07627C96.9915 10.3764 99.0254 10.5459 101.075 11.0259C103.18 11.5071 105.243 12.2704 105.243 14.7001C105.243 18.1478 102.248 19.2649 99.2518 19.2649C96.1997 19.2649 93.2319 18.1194 93.0772 14.6432H96.5103V14.6716ZM66.3837 13.2316C66.3837 15.5623 65.7467 19.3775 60.3354 19.3775C57.3118 19.3775 54.3724 17.7247 54.3724 13.7673V12.1851H57.975V13.0041C57.975 14.7558 58.4129 16.0287 60.2785 16.0287C62.3841 16.0287 62.3841 14.3338 62.3841 13.0609V0.810059H66.3837V13.2316ZM76.1483 12.5104C75.5397 13.0473 74.268 13.0609 73.152 13.2725C72.0361 13.5 71.018 13.8811 71.018 15.1949C71.018 16.5371 72.0646 16.8761 73.2226 16.8761C76.0346 16.8761 76.1483 14.6432 76.1483 13.8526V12.5104ZM67.8238 9.85318C68.0217 6.47595 71.0453 5.45902 73.9984 5.45902C76.6124 5.45902 79.7646 6.03915 79.7646 9.19002V16.015C79.7646 17.2151 79.8908 18.4026 80.2162 18.9384H76.5567C76.4219 18.5264 76.3363 18.0999 76.3019 17.6678C75.1575 18.8542 73.4899 19.2922 71.8791 19.2922C69.3925 19.2922 67.4143 18.0489 67.4143 15.3644C67.4143 12.3966 69.6461 11.6766 71.8791 11.3797C74.0837 11.0544 76.1472 11.1249 76.1472 9.65526C76.1472 8.10143 75.087 7.87507 73.8152 7.87507C72.4445 7.87507 71.5538 8.44041 71.4264 9.85432H67.8238V9.85318ZM87.9469 20.5923C87.1563 22.6978 85.9118 23.5601 83.4252 23.5601C82.6903 23.5601 81.9555 23.5032 81.2206 23.4327V20.4661C81.8986 20.5229 82.6198 20.6219 83.3262 20.5935C84.5695 20.4672 84.9802 19.167 84.5695 18.1353L79.95 5.81278H83.8074L86.7764 14.799H86.8321L89.701 5.81278H93.4321L87.9469 20.5912V20.5923Z" fill="black"/>
</g>
</g>
<defs>
<clipPath id="clip0_1_3272">
<rect width="113.77" height="22.75" fill="white" transform="translate(0.609985 0.810059)"/>
</clipPath>
<clipPath id="clip1_1_3272">
<rect width="95.5534" height="22.75" fill="white" transform="translate(9.71826 0.810059)"/>
</clipPath>
</defs>
</svg>
