<svg width="115" height="24" viewBox="0 0 115 24" fill="none" xmlns="http://www.w3.org/2000/svg">
<g clip-path="url(#clip0_1_3277)">
<g clip-path="url(#clip1_1_3277)">
<path d="M81.5902 4.76255H79.5968V13.827C79.5968 16.2345 77.6034 17.0621 74.6318 17.0621C71.6225 17.0621 69.6667 16.1968 69.6667 13.827V4.76255H67.6726V14.2412C67.6349 17.7767 71.4334 18.8671 74.631 18.8671C77.8277 18.8671 81.5894 17.7767 81.5894 14.2412L81.5902 4.76255ZM88.8506 4.76255H86.8941V5.66387C86.8941 5.77683 86.9317 5.8898 86.9317 6.04042V17.3994C86.9317 17.55 86.9317 17.663 86.8941 17.7759V18.6789H88.8506V4.76255ZM112.811 16.8738H102.505V12.4353H110.667V10.668H102.542V6.52913H112.435C112.548 6.52913 112.623 6.52913 112.736 6.56678H113.639V4.76255H100.398V18.642H113.902V16.8738H112.811ZM8.35432 4.76255V14.2412C8.35432 16.4604 7.56434 17.0998 5.15754 17.0998C3.95334 17.0998 2.82526 16.8738 2.1851 16.4604L0.981704 15.9333L0.380005 17.4755L1.847 18.1525C2.07293 18.2278 2.29807 18.3031 2.56166 18.3784C3.40645 18.6803 4.2973 18.8329 5.1944 18.8295C8.12838 18.8295 10.31 17.9642 10.31 14.8429V4.76255H8.35432ZM25.6193 17.2127C25.6946 17.3625 25.7699 17.5132 25.8076 17.7014L26.2595 18.6789H28.3282L21.7455 4.76255H19.0375L12.9804 18.642H14.7863L15.1629 17.8144C15.2006 17.7014 15.2751 17.5508 15.3512 17.4002L16.5922 14.5801H16.6299L16.6675 14.5416H24.3406L25.6193 17.2127ZM17.3822 12.7742L20.3539 6.15418L23.513 12.7742H17.3822ZM44.9538 16.2713L43.712 14.6169L42.3203 15.5575C41.4934 16.1968 39.9511 16.8738 37.8071 16.8738C34.5342 16.8738 32.2773 14.6546 32.2773 11.7207C32.2773 8.78682 34.4589 6.3048 38.0699 6.3048C39.6499 6.3048 41.3052 6.94413 42.1704 7.4705L43.4115 8.14749L44.3145 6.26715L43.0349 5.59016C42.7721 5.47719 42.434 5.36423 42.0951 5.21361C40.8156 4.76255 39.8005 4.53662 38.0331 4.53662C33.7443 4.57428 30.2086 7.24457 30.2086 11.7584C30.2086 16.309 33.6313 18.8671 37.9201 18.8671C41.2675 18.8671 43.0349 17.4378 43.9755 16.9491L44.953 16.2721L44.9538 16.2713ZM60.3384 19.8454L61.1652 20.5977L62.7075 19.2437L61.6548 18.3031C61.4288 18.1148 61.0907 17.8521 60.6012 17.4378C62.5577 16.1215 63.6858 14.0529 63.6858 11.7207C63.6858 7.8094 60.6012 4.57428 55.7115 4.57428C50.8218 4.57428 47.7372 7.8094 47.7372 11.7207C47.7372 15.6328 50.8218 18.8671 55.7115 18.8671C56.8019 18.8671 57.8186 18.7173 58.6831 18.3784C59.6237 19.1684 60.0748 19.5818 60.3384 19.8454ZM55.7115 17.0998C52.1005 17.0998 49.8435 14.6922 49.8435 11.6839C49.8435 8.71151 52.1381 6.34246 55.7115 6.34246C59.3225 6.34246 61.5795 8.71151 61.5795 11.683C61.5795 13.4136 60.8271 14.9182 59.4723 15.8964C58.7757 16.4038 57.9821 16.7621 57.1408 16.9491C56.7274 17.0244 56.2755 17.0998 55.7115 17.0998ZM95.5077 10.5173H93.4391V12.586H95.5077V10.5173Z" fill="black"/>
</g>
</g>
<defs>
<clipPath id="clip0_1_3277">
<rect width="113.77" height="22.75" fill="white" transform="translate(0.380005 0.810059)"/>
</clipPath>
<clipPath id="clip1_1_3277">
<rect width="113.77" height="16.8246" fill="white" transform="translate(0.380005 3.77295)"/>
</clipPath>
</defs>
</svg>
