<svg width="114" height="24" viewBox="0 0 114 24" fill="none" xmlns="http://www.w3.org/2000/svg">
<g clip-path="url(#clip0_1_3282)">
<g clip-path="url(#clip1_1_3282)">
<path d="M53.7067 7.83116C53.8432 7.88966 53.9797 7.94816 54.1151 7.96766C54.2126 7.98716 54.3296 7.96766 54.4456 7.94816C54.4089 7.9911 54.3625 8.02456 54.3101 8.04566C54.1346 8.10308 53.9201 8.02616 53.7067 7.83116ZM54.5236 8.49199C54.893 8.33708 55.1465 7.90916 55.3209 7.36533C55.3794 7.38374 55.4574 7.40324 55.5159 7.42274C55.5744 7.69466 55.6134 7.96766 55.6134 8.20058C55.6134 8.29808 55.6134 8.39558 55.5939 8.49308C55.5159 8.93941 55.2819 9.15391 54.8161 9.13441C53.6677 9.11491 52.9873 8.76499 52.8118 8.14208C52.7706 8.00994 52.7509 7.87205 52.7533 7.73366C52.7533 7.67624 52.7533 7.59824 52.7728 7.53866C52.7923 7.53866 52.8118 7.55924 52.8313 7.55924C53.5518 8.61008 54.1346 8.66641 54.5236 8.49199ZM56.3913 6.74241H56.4303C56.3671 6.8259 56.2843 6.89259 56.1893 6.9366C56.0943 6.98062 55.9899 7.00061 55.8854 6.99483L55.8269 6.82041C56.0414 6.80091 56.2169 6.78141 56.3902 6.74241H56.3913ZM53.1434 6.37299C53.3958 6.43149 53.6482 6.44991 53.8822 6.44991C53.9602 6.48891 54.0566 6.52791 54.1541 6.56691C54.2906 6.72291 54.4466 6.87783 54.6406 6.99483C54.6787 7.03198 54.7257 7.05882 54.7771 7.07283C54.4354 7.19936 54.0692 7.24606 53.7067 7.20933C53.458 7.01367 53.2529 6.76831 53.1044 6.48891C53.111 6.44856 53.1249 6.40947 53.1434 6.37299ZM57.2472 3.04716C57.2472 2.96916 57.2277 2.91066 57.2277 2.83266C57.83 3.35808 58.1994 4.03841 58.1994 4.64183C58.1994 4.73933 58.1799 4.83683 58.1799 4.93433C58.0824 5.38066 57.7715 5.73058 57.2667 5.96349C57.2894 5.78958 57.3024 5.61453 57.3057 5.43916C57.3057 4.97224 57.2277 4.46633 57.0912 3.99941C57.1887 3.66899 57.2472 3.35808 57.2472 3.04608V3.04716ZM56.7217 4.75883C56.7607 4.99174 56.7802 5.22466 56.7802 5.45866C56.7802 5.71108 56.7607 5.94508 56.7022 6.15849C56.5657 6.19749 56.4498 6.21699 56.2938 6.25599C56.2158 6.27549 56.1378 6.27549 56.0609 6.29499C56.1022 6.11015 56.1215 5.92105 56.1183 5.73166C56.1183 5.65258 56.1183 5.57566 56.0988 5.49766C56.3523 5.28316 56.5657 5.03074 56.7217 4.75883ZM55.0295 6.21591V6.27441C54.9905 6.27441 54.971 6.25491 54.932 6.25491C54.9682 6.25423 55.0028 6.24036 55.0295 6.21591ZM55.6134 5.92341C55.6134 6.00249 55.5939 6.05991 55.5939 6.13791C55.5744 6.11841 55.5744 6.07941 55.5549 6.05991V5.98299C55.5744 5.94399 55.5939 5.92449 55.6134 5.92449V5.92341ZM55.5159 4.97116C55.5354 5.08816 55.5744 5.18566 55.5939 5.30158C55.5744 5.32108 55.5549 5.32108 55.5549 5.34058C55.5354 5.22358 55.5354 5.10766 55.5159 4.97116ZM55.9818 2.19024C55.9634 2.17074 55.9439 2.17074 55.9244 2.15124C56.1573 2.20974 56.4108 2.30616 56.6437 2.42316C56.7022 2.61816 56.7412 2.81316 56.7412 3.02658V3.10349C56.5267 2.71458 56.2732 2.40366 55.9818 2.19024ZM54.6016 2.19024C54.9515 2.20974 55.3209 2.34516 55.6904 2.59866C56.0598 2.85108 56.3512 3.37649 56.5462 3.97883C56.4213 4.29771 56.2441 4.59354 56.0219 4.85416C55.9829 4.67974 55.9244 4.52374 55.8659 4.32983C55.5685 3.50543 55.0169 2.7968 54.2906 2.30616C54.3881 2.26824 54.4857 2.22924 54.6016 2.19024ZM54.8735 4.23233C54.932 4.48474 54.9905 4.75774 55.01 5.02966C54.893 4.83466 54.7771 4.66024 54.6601 4.48474C54.7381 4.40674 54.815 4.31033 54.8735 4.23233ZM54.2711 5.57458V5.51608C54.2711 5.34058 54.3101 5.16616 54.3881 4.97116C54.5431 5.22358 54.6991 5.47708 54.8345 5.72949C54.67 5.79302 54.5013 5.84514 54.3296 5.88549C54.3085 5.78218 54.289 5.67852 54.2711 5.57458ZM53.7836 5.30158C53.7836 5.37958 53.7652 5.45758 53.7652 5.51608V5.59408C53.7652 5.67099 53.7847 5.74899 53.7847 5.82699C53.7067 5.76849 53.6092 5.70999 53.5323 5.65149C53.6227 5.53953 53.707 5.42272 53.7847 5.30158H53.7836ZM52.7544 5.63199V5.59408C52.8118 5.65149 52.8519 5.70999 52.9093 5.76849C52.8738 5.74684 52.8338 5.73351 52.7923 5.72949C52.7728 5.69049 52.7533 5.67099 52.7533 5.63199H52.7544ZM53.8042 2.63766C54.1736 2.85108 54.5236 3.12299 54.815 3.51299C54.6601 3.62891 54.4651 3.76541 54.2711 3.95933C53.9999 3.62223 53.686 3.3218 53.3373 3.06558C53.4543 2.90958 53.6298 2.77308 53.8031 2.63766H53.8042ZM53.0458 3.47399C53.3373 3.68741 53.6482 3.97883 53.9212 4.32983C53.6545 4.63798 53.4074 4.96254 53.1813 5.30158C52.9744 5.09848 52.8033 4.86187 52.6753 4.60174C52.6959 4.27133 52.8118 3.86291 53.0458 3.47399ZM52.3059 3.23999V3.16199C52.3644 3.16199 52.4229 3.18149 52.4619 3.18149C52.4034 3.27899 52.3644 3.37649 52.3254 3.49349C52.307 3.41549 52.307 3.31799 52.307 3.23999H52.3059ZM51.3146 3.97883C51.4695 3.61049 51.6451 3.41549 51.8011 3.29849C51.8011 3.70691 51.8986 4.11533 52.0535 4.52374C52.0147 4.73569 51.9951 4.9507 51.995 5.16616V5.34058C51.8 5.20408 51.606 5.06866 51.4121 4.89316C51.2951 4.79566 51.1976 4.69816 51.1196 4.62124C51.1603 4.40046 51.2257 4.18497 51.3146 3.97883ZM51.9365 6.54633C51.6451 6.31341 51.2561 5.90499 51.1391 5.32216C51.4695 5.59299 51.7816 5.82699 52.0925 5.98299C52.151 6.25383 52.229 6.52683 52.3644 6.76083C52.3839 6.79983 52.4034 6.81933 52.4229 6.85833C52.251 6.77034 52.0881 6.66584 51.9365 6.54633ZM52.4619 2.40366C52.5009 2.32566 52.5399 2.26824 52.5789 2.19024C52.7533 2.20974 52.9093 2.24874 53.0849 2.30616C52.9522 2.4349 52.8348 2.57849 52.7349 2.73408C52.7047 2.71595 52.6718 2.70278 52.6374 2.69508C52.5612 2.67298 52.4827 2.66025 52.4034 2.65716C52.4034 2.57916 52.4229 2.48166 52.4619 2.40366ZM50.3818 3.25949C50.3818 3.16199 50.4003 3.06449 50.4393 2.96699C50.6148 2.50116 51.2366 2.19024 52.034 2.17074C52.034 2.19024 52.0145 2.20974 52.0145 2.20974C51.9426 2.37113 51.8906 2.54065 51.8596 2.71458C51.5085 2.83158 51.1391 3.12299 50.8477 3.78491C50.8087 3.90191 50.7502 4.01783 50.7307 4.11533C50.4978 3.80441 50.3818 3.51299 50.3818 3.25949ZM54.1736 1.33441C54.932 1.27591 55.5549 1.39291 55.9829 1.64533C55.5015 1.53501 55.0006 1.54207 54.5225 1.66591C54.1741 1.66933 53.8326 1.76302 53.5312 1.93783C53.3396 1.86411 53.1447 1.79904 52.9473 1.74283C53.3152 1.50682 53.7365 1.36677 54.1726 1.33549L54.1736 1.33441ZM54.1346 0.828493C53.3568 0.886993 52.7338 1.17841 52.3254 1.66483H52.073C51.0427 1.66483 50.2063 2.11224 49.9528 2.79258C49.9015 2.9429 49.8751 3.10063 49.8748 3.25949C49.8748 3.64949 50.0308 4.17383 50.5953 4.79566V4.95166C50.5953 5.70999 50.9452 6.41091 51.6256 6.95583C51.8401 7.12916 52.073 7.26566 52.307 7.38266C52.2843 7.51771 52.2713 7.65419 52.268 7.79108C52.268 7.96658 52.2864 8.14099 52.3449 8.31649C52.5984 9.17233 53.4348 9.63816 54.8345 9.67824C55.5549 9.69774 56.0024 9.30883 56.1183 8.60791C56.1378 8.51041 56.1378 8.39449 56.1378 8.27749C56.1378 8.04458 56.0988 7.79108 56.0598 7.51916C56.5072 7.48016 56.7802 7.22666 56.9352 6.99374C57.0232 6.86983 57.0891 6.73166 57.1302 6.58533C58.2785 6.17691 58.6079 5.47708 58.6859 5.04916C58.7054 4.93216 58.7249 4.79566 58.7249 4.67974C58.7249 3.80441 58.1615 2.85108 57.2277 2.20974C57.1692 2.17074 57.1107 2.15124 57.0522 2.11224C56.7596 1.48933 56.0414 0.672493 54.1346 0.828493ZM36.5125 13.0832C36.493 12.2078 36.1041 11.8189 35.2883 11.8189C34.7824 11.8189 31.009 11.6824 29.5497 11.391C29.2675 11.3268 29.0156 11.1684 28.8355 10.942C28.6553 10.7155 28.5576 10.4345 28.5584 10.1452C28.5584 9.46483 29.0633 8.93941 29.7447 8.88199C29.9397 8.86249 30.4251 8.84299 30.9895 8.82349C32.6427 8.76499 34.0424 8.68699 34.2569 8.60899C34.5094 8.53099 34.6654 8.29808 34.6654 8.00666C34.6688 7.85228 34.6413 7.69877 34.5846 7.55515C34.5278 7.41153 34.443 7.28069 34.3349 7.17033C33.7705 6.60699 32.6037 6.60699 31.8259 6.60699H31.6893C30.2701 6.60699 28.7913 6.83991 27.3905 7.28624C27.0406 7.42274 26.7882 7.69466 26.7492 8.02616C26.7109 8.34215 26.6914 8.66012 26.6907 8.97841C26.6907 9.32833 26.7102 10.0867 26.7297 10.7475C26.7492 11.2144 26.7492 11.6228 26.7492 11.7788C26.7492 13.0236 28.033 13.7819 29.2193 13.7819H33.6936C34.4519 13.7819 34.7824 14.1513 34.7824 15.0061C34.7824 15.3181 34.7044 15.8619 34.4314 16.0179C34.2569 16.1154 32.2148 16.0179 30.853 15.941C30.0166 15.902 29.2973 15.863 28.9463 15.863C28.3634 15.863 26.8467 15.863 26.8467 16.9907C26.8467 17.2832 26.9821 17.5357 27.215 17.6917C27.9355 18.1575 30.892 18.255 31.8649 18.255C32.9916 18.255 35.6762 18.1965 36.3381 17.5942C36.5515 17.3992 36.6685 17.0882 36.6685 16.7578C36.6685 15.7655 36.61 14.7537 36.5515 13.7819L36.5125 13.0821V13.0832ZM51.6451 15.9031C51.6451 13.6855 51.3525 10.8656 51.1196 8.90149C51.0221 8.10308 50.3223 7.20933 49.4469 7.15083L48.4935 7.09233C47.6917 7.02437 46.8877 6.98499 46.083 6.97424C45.4222 6.97424 45.1297 7.69358 44.9563 8.12258L44.9162 8.23849C44.7418 8.66641 44.6638 9.17233 44.6053 9.56124C44.5273 10.0867 44.5273 10.6305 44.5468 11.2534V14.1524C44.5468 14.2889 44.5468 14.7363 44.4298 14.8522C44.4103 14.8717 44.3908 14.8717 44.3724 14.8717C44.2359 14.8717 44.0799 14.5608 44.0604 14.3669C44.0029 14.0549 44.0214 13.744 44.0214 13.4331V13.1991C44.0214 11.5849 43.9054 9.30991 43.575 8.20058C43.5235 7.99977 43.4212 7.81558 43.278 7.6657C43.1347 7.51583 42.9554 7.4053 42.7571 7.34474C42.3887 7.20933 40.4235 6.89733 39.8211 6.89733C38.2448 6.89733 38.0119 9.09649 37.8754 10.3987C37.8559 10.5742 37.8364 10.7291 37.8169 10.8645C37.7779 11.2545 37.8364 15.3582 37.9339 17.0113C37.9924 17.8087 38.3998 18.2756 39.0422 18.2756C39.3542 18.2756 39.7431 18.1391 39.8396 17.7892C40.0213 17.2171 40.1134 16.6203 40.1126 16.0201C40.1126 15.3972 40.0541 14.7558 40.0151 14.1134C39.9465 13.4543 39.9074 12.7924 39.8981 12.1298V11.8189C39.8786 11.079 39.8591 9.67933 40.3455 9.17341C40.4007 9.10944 40.4695 9.05869 40.547 9.02494C40.6244 8.99119 40.7085 8.97528 40.7929 8.97841C41.4744 8.97841 41.8817 9.79524 41.8817 10.3792V13.2576C41.8817 14.0939 41.9012 14.8132 41.9792 15.4752C42.1352 17.2258 43.6324 17.2258 44.9368 17.2258C45.3637 17.2258 46.667 17.2258 46.667 15.9226C46.667 15.0667 46.6475 14.1914 46.628 13.3551C46.6085 12.5187 46.589 11.6434 46.589 10.7876C46.589 9.97074 47.1144 9.09541 48.0873 9.09541C48.6701 9.09541 49.3711 9.46483 49.448 10.0487C49.4675 10.2437 49.487 10.4171 49.487 10.5742C49.487 10.6717 49.5065 10.7486 49.5065 10.845L49.5845 12.6737C49.643 13.8805 49.7015 15.1437 49.7015 16.3505C49.7015 17.2637 50.0698 17.8087 50.7123 17.8087C50.9267 17.8127 51.1349 17.7366 51.2962 17.5952C51.6656 17.2258 51.6461 16.5054 51.6461 15.9811L51.6451 15.9031ZM60.4951 13.2576C59.0553 13.2576 58.531 13.0821 58.531 11.5459C58.531 11.3509 58.5494 11.1375 58.5494 10.9241C58.5884 10.4182 59.5807 10.2817 59.9502 10.2817C61.4095 10.2817 62.0519 10.3792 62.0519 11.9933C62.0703 13.2771 61.6424 13.2576 60.4951 13.2576ZM62.8287 19.6763C62.8287 20.6297 61.7399 20.7272 61.0195 20.7272C59.7758 20.7272 58.531 20.8626 58.531 19.2679C58.531 18.3341 60.1452 18.1391 60.8645 18.1391C61.8569 18.1391 62.8287 18.5475 62.8287 19.6763ZM64.288 5.73058C64.1905 5.73058 64.0735 5.75008 63.976 5.76958C62.2068 6.41199 62.2263 8.51258 61.1755 8.51258C60.7865 8.51258 60.4561 8.25908 60.0477 8.25908C58.7834 8.25908 56.8962 8.47358 56.8962 10.1267C56.8962 10.9436 56.9352 11.7214 56.9352 12.5187C56.9352 13.0442 57.0132 14.5608 57.5386 14.8132C58.025 15.0277 59.3283 14.9107 59.3283 15.6691C59.3307 15.7252 59.3196 15.7811 59.2958 15.832C59.2721 15.8829 59.2364 15.9274 59.1918 15.9616C58.2579 16.6809 56.7022 15.5716 56.7022 17.5172C56.7022 18.1391 56.8767 20.3762 56.8767 20.8626C56.8767 21.5624 56.8582 22.5157 57.752 22.5157C58.0445 22.5157 58.3165 22.4767 58.6079 22.4377C60.1842 22.3597 61.7594 22.3012 63.3541 22.2243C64.5025 22.1853 65.0074 21.1345 65.0074 20.1042C65.0074 19.3654 64.5209 17.7892 64.249 17.0698C64.209 16.9578 64.1446 16.856 64.0605 16.7719C63.9764 16.6878 63.8746 16.6234 63.7626 16.5834C63.1017 16.3505 62.0508 16.6224 62.0508 15.6106C62.0508 14.5413 64.015 15.2997 64.132 14.2694C64.1515 14.0354 64.171 13.7819 64.171 13.5306C64.171 12.3822 63.8211 11.2935 63.8211 10.0487C63.8211 9.73783 63.7821 9.44533 63.7821 9.13441C63.7821 8.39558 65.0464 7.67624 65.0464 6.62541C65.0464 6.17799 64.7928 5.73058 64.288 5.73058ZM69.4622 13.2576C68.0213 13.2576 67.4969 13.0821 67.4969 11.5459C67.4969 11.3509 67.5164 11.1375 67.5164 10.9241C67.5554 10.4182 68.5478 10.2817 68.9172 10.2817C70.3755 10.2817 71.0179 10.3792 71.0179 11.9933C71.0374 13.2771 70.6105 13.2576 69.4622 13.2576ZM71.7958 19.6763C71.7958 20.6297 70.7059 20.7272 69.9865 20.7272C68.7417 20.7272 67.4969 20.8626 67.4969 19.2679C67.4969 18.3341 69.1112 18.1391 69.8316 18.1391C70.8229 18.1391 71.7958 18.5475 71.7958 19.6763ZM73.254 5.73058C73.1565 5.73058 73.0406 5.75008 72.943 5.76958C71.1728 6.41199 71.1923 8.51258 70.1425 8.51258C69.7525 8.51258 69.4221 8.25908 69.0137 8.25908C67.7505 8.25908 65.8632 8.47358 65.8632 10.1267C65.8632 10.9436 65.9022 11.7214 65.9022 12.5187C65.9022 13.0442 65.9802 14.5608 66.5046 14.8132C66.9921 15.0277 68.2943 14.9107 68.2943 15.6691C68.2967 15.7252 68.2856 15.7811 68.2618 15.832C68.238 15.8829 68.2024 15.9274 68.1578 15.9616C67.225 16.6809 65.6682 15.5716 65.6682 17.5172C65.6682 18.1391 65.8437 20.3762 65.8437 20.8626C65.8437 21.5624 65.8242 22.5157 66.7191 22.5157C67.0116 22.5157 67.2824 22.4767 67.5749 22.4377C69.1502 22.3597 70.7254 22.3012 72.3201 22.2243C73.4685 22.1853 73.9733 21.1345 73.9733 20.1042C73.9733 19.3654 73.488 17.7892 73.215 17.0698C73.178 16.9561 73.1146 16.8528 73.0301 16.7683C72.9455 16.6838 72.8422 16.6204 72.7285 16.5834C72.0677 16.3505 71.0168 16.6224 71.0168 15.6106C71.0168 14.5413 72.9821 15.2997 73.0991 14.2694C73.1186 14.0354 73.137 13.7819 73.137 13.5306C73.137 12.3822 72.787 11.2935 72.787 10.0487C72.787 9.73783 72.7491 9.44533 72.7491 9.13441C72.7491 8.39558 74.0123 7.67624 74.0123 6.62541C74.0123 6.17799 73.7599 5.73058 73.254 5.73058ZM77.2029 15.9995C77.0664 15.4362 77.0469 14.7753 77.0469 14.2499C77.0079 11.8568 76.9494 9.38683 76.8334 6.97533C76.7944 6.41199 76.3275 5.59516 75.6081 5.59516C75.0632 5.59516 74.7133 6.29499 74.7133 6.80091C74.7133 7.11183 74.7718 7.44224 74.8487 7.77266L74.9072 8.12258C75.3351 11.04 75.3351 13.861 75.3351 16.8369C75.3351 17.4782 75.5886 18.5085 76.269 18.5085C76.8529 18.5085 77.7088 18.0037 77.7088 17.3027C77.7088 17.0503 77.5723 16.7784 77.4358 16.5054C77.3303 16.3514 77.2516 16.1807 77.2029 16.0006V15.9995ZM81.3457 9.50383C81.5981 9.21133 82.182 9.27091 82.5515 9.27091C83.2318 9.27091 83.5243 9.54283 83.5243 10.2242C83.5243 11.1776 82.5905 11.118 81.8711 11.118C81.5006 11.118 80.9762 11.0985 80.9762 10.5937C80.9762 10.2622 81.1128 9.75733 81.3457 9.50383ZM86.0908 15.4167C84.7875 14.7937 82.7649 14.9508 81.3457 14.8132C80.9177 14.7937 80.7032 14.3669 80.7032 13.9574C80.7032 13.3356 81.0727 13.0041 81.6761 13.0041C82.493 13.0041 83.2513 13.2966 84.0487 13.2966C85.3325 13.2966 85.7409 12.8687 85.7409 11.6044C85.7409 11.157 85.7214 9.73783 85.7214 9.44533C85.7214 8.99791 85.6239 8.55049 85.6239 8.06516C85.6239 7.42274 85.0411 7.03383 84.4571 7.03383C83.1733 7.03383 81.3652 7.28624 80.0803 7.48124C79.751 7.53974 79.1486 8.37608 79.128 8.70649C79.0305 9.69883 78.972 10.7291 78.8756 11.7214C78.7781 12.7127 78.2917 13.588 78.2917 14.6193C78.2917 16.9138 79.6925 16.6993 81.3652 16.6993C82.493 16.6993 83.5428 16.8943 84.6131 17.2063C84.7301 17.2258 84.8656 17.2637 84.9826 17.2637C85.625 17.2637 86.4809 16.8954 86.4809 16.175C86.4993 15.8825 86.3639 15.5532 86.0908 15.4167ZM54.8735 14.0354C54.8735 13.2576 55.088 12.4212 55.088 11.7019C55.088 11.0595 54.5821 10.3792 53.9017 10.3792C53.6746 10.3887 53.4564 10.4703 53.2788 10.6121C53.1413 10.796 53.0483 11.0092 53.0068 11.235C52.9873 11.5459 52.9873 11.8763 52.9873 12.1883C52.9678 13.8415 52.8508 15.4752 52.8508 17.1088C52.8508 17.7697 53.3958 18.1976 54.0371 18.1976C54.6601 18.1976 55.283 17.7697 55.283 17.1088C55.283 16.7784 55.1465 16.409 55.0685 16.097C54.9449 15.4166 54.8796 14.7269 54.8735 14.0354Z" fill="black"/>
</g>
</g>
<defs>
<clipPath id="clip0_1_3282">
<rect width="113.77" height="22.75" fill="white" transform="translate(0.140015 0.810059)"/>
</clipPath>
<clipPath id="clip1_1_3282">
<rect width="60.6688" height="22.75" fill="white" transform="translate(26.6907 0.810059)"/>
</clipPath>
</defs>
</svg>
