<svg width="94" height="14" viewBox="0 0 94 14" fill="none" xmlns="http://www.w3.org/2000/svg">
<g clip-path="url(#clip0_1_3437)">
<g clip-path="url(#clip1_1_3437)">
<path d="M3.64586 2.94654C2.75996 2.92922 1.90325 3.26341 1.26309 3.87604V3.11233H0V13.6529H1.26309V10.4847C1.91214 11.0784 2.7666 11.3964 3.64586 11.3716C4.16044 11.3817 4.66982 11.2672 5.13049 11.0377C5.59116 10.8082 5.98943 10.4706 6.29127 10.0537C6.88555 9.20218 7.19232 8.18315 7.16697 7.1451C7.16697 4.63374 5.75195 2.94654 3.64586 2.94654ZM3.64586 10.1087C2.17614 10.1087 1.26309 8.97305 1.26309 7.1451C1.26309 5.73124 2.00874 4.20943 3.64586 4.20943C5.20571 4.20943 5.90399 5.68387 5.90399 7.1451C5.90399 8.62018 5.20571 10.1087 3.64586 10.1087Z" fill="#231F20"/>
<path d="M17.7704 0.872467H16.5076V3.11233H15.1941V4.37532H16.5076V9.38513C16.5076 11.0283 17.6648 11.2056 18.1622 11.2056C18.3714 11.2091 18.5806 11.1979 18.7882 11.1722C18.8183 11.1686 18.8475 11.165 18.882 11.1623L19.3329 11.1234V9.71125L18.701 9.92155C18.5452 9.93905 18.3883 9.9461 18.2315 9.94278C17.8867 9.94278 17.7704 9.94278 17.7704 9.32984V4.3753H19.3744V3.11232H17.7704V0.872467Z" fill="#231F20"/>
<path d="M32.0386 2.96229L31.5623 2.94684C31.508 2.94494 31.455 2.94403 31.4022 2.94403C30.6102 2.91924 29.8355 3.17856 29.2179 3.67513V3.11233H27.955V11.2056H29.2179V6.68884C29.2179 5.45245 29.8838 4.20492 31.371 4.20492C31.42 4.20492 31.47 4.20622 31.522 4.20893L32.0386 4.23322L32.0386 2.96229Z" fill="#231F20"/>
<path d="M41.3409 0.347198H40.078V11.2056H41.3409V0.347198Z" fill="#231F20"/>
<path d="M56.9911 3.11231H55.4227L53.2242 6.00577L51.2254 3.31393L51.0776 3.11231H49.4788L52.4331 7.03054L49.1998 11.2057H50.7939L53.2208 8.04976L55.6595 11.2057H57.2534L54.0208 7.03114L56.9911 3.11231Z" fill="#231F20"/>
<path d="M68.6159 2.94644C67.8528 2.92903 67.109 3.18866 66.5229 3.67724V3.11233H65.2601V11.2056H66.5229V6.68894C66.5229 5.45476 67.1702 4.20933 68.6159 4.20933C69.7508 4.20933 70.3755 4.85914 70.3755 6.03903V11.2056H71.6389V5.99759C71.6389 4.11559 70.4807 2.94644 68.6159 2.94644Z" fill="#231F20"/>
<path d="M78.444 3.83319C77.7947 3.2396 76.9405 2.92161 76.0616 2.94644C75.5467 2.93623 75.0378 3.05077 74.5767 3.28028C74.1163 3.50978 73.7178 3.84741 73.4158 4.26433C72.8217 5.11586 72.515 6.13485 72.5403 7.17284C72.5403 9.68418 73.9553 11.3715 76.0616 11.3715C76.9471 11.3889 77.804 11.0549 78.444 10.4425V11.2056H79.7068V0.347099H78.444V3.83319ZM76.0616 10.1086C74.5015 10.1086 73.803 8.63415 73.803 7.17284C73.803 5.69782 74.5015 4.20933 76.0616 4.20933C77.5313 4.20933 78.444 5.34486 78.444 7.17284C78.444 8.58678 77.6983 10.1086 76.0616 10.1086Z" fill="#231F20"/>
<path d="M92.1312 2.94664C92.078 2.94503 92.0254 2.94403 91.9729 2.94403C91.1812 2.91921 90.4061 3.17849 89.7887 3.67503V3.11223H88.526V11.2056H89.7887V6.68904C89.7887 5.45264 90.4547 4.20511 91.9416 4.20511C91.9908 4.20511 92.0407 4.20632 92.0933 4.20902L92.6096 4.2333V2.96219L92.1312 2.94664Z" fill="#231F20"/>
<path d="M11.5596 2.94634C9.76861 2.94634 7.95557 4.39338 7.95557 7.159C7.95557 9.83633 9.24929 11.3719 11.505 11.3719H11.5061L11.5596 11.3716C13.4759 11.3716 14.8568 10.17 15.0774 8.31042L15.0933 8.17922H13.8222L13.8165 8.21328C13.6195 9.4001 12.7655 10.1086 11.5321 10.1086C10.1396 10.1086 9.39086 9.32312 9.24417 7.70747H15.1444L15.1634 7.23531C15.2191 5.92664 14.8261 4.73279 14.0853 3.95995C13.7584 3.62395 13.3648 3.36015 12.9298 3.18556C12.4948 3.01098 12.028 2.92949 11.5596 2.94634ZM13.8747 6.44477H9.2757C9.5178 5.08504 10.4211 4.20932 11.5874 4.20932C11.8762 4.20034 12.1639 4.24969 12.4332 4.35442C12.7025 4.45916 12.9479 4.61713 13.1547 4.8189C13.5674 5.26664 13.8205 5.83826 13.8747 6.44477Z" fill="#231F20"/>
<path d="M23.2275 2.94634C21.4366 2.94634 19.6235 4.39338 19.6235 7.159C19.6235 9.83633 20.9172 11.3719 23.1729 11.3719H23.1741L23.2275 11.3716C25.1438 11.3716 26.5247 10.17 26.7453 8.31042L26.7612 8.17922H25.4902L25.4845 8.21328C25.2874 9.4001 24.4334 10.1086 23.2 10.1086C21.8075 10.1086 21.0588 9.32312 20.9121 7.70746H26.8124L26.8314 7.23531C26.887 5.92664 26.4941 4.73279 25.7532 3.95995C25.4264 3.62394 25.0327 3.36015 24.5978 3.18556C24.1627 3.01098 23.696 2.92949 23.2275 2.94634ZM25.5426 6.44477H20.9436C21.1858 5.08504 22.089 4.20932 23.2553 4.20932C23.5442 4.20034 23.8318 4.24969 24.1011 4.35442C24.3704 4.45916 24.6158 4.61713 24.8227 4.8189C25.2354 5.26664 25.4885 5.83826 25.5426 6.44477Z" fill="#231F20"/>
<path d="M49.616 8.17922H48.3449L48.3392 8.21329C48.1422 9.4001 47.2882 10.1086 46.0548 10.1086C44.6624 10.1086 43.9136 9.32312 43.7669 7.70747H49.6671L49.6861 7.23531C49.7418 5.92663 49.3488 4.73279 48.608 3.95995C48.2811 3.62394 47.8875 3.36014 47.4525 3.18556C47.0175 3.01098 46.5508 2.92949 46.0823 2.94634C44.2913 2.94634 42.4783 4.39338 42.4783 7.159C42.4783 9.83633 43.772 11.3719 46.0277 11.3719H46.0288L46.0823 11.3716C47.9986 11.3716 49.3795 10.17 49.6001 8.31042L49.616 8.17922ZM48.3974 6.44477H43.7984C44.0406 5.08503 44.9438 4.20932 46.1101 4.20932C46.3989 4.20033 46.6866 4.24968 46.9559 4.35442C47.2252 4.45915 47.4706 4.61713 47.6774 4.81889C48.0901 5.26664 48.3433 5.83825 48.3974 6.44477Z" fill="#231F20"/>
<path d="M84.1467 2.94634C82.3558 2.94634 80.5428 4.39338 80.5428 7.159C80.5428 9.83633 81.8368 11.3719 84.0922 11.3719H84.0935L84.1467 11.3716C86.0634 11.3716 87.4446 10.17 87.6648 8.31042L87.6807 8.17922H86.4094L86.404 8.21328C86.2071 9.4001 85.3529 10.1086 84.1194 10.1086C82.727 10.1086 81.9785 9.32312 81.8315 7.70746H87.732L87.7506 7.23531C87.8065 5.92664 87.4133 4.73279 86.6728 3.95995C86.3462 3.62394 85.9523 3.36014 85.5172 3.18556C85.0821 3.01098 84.6158 2.92949 84.1467 2.94634ZM86.4619 6.44477H81.8628C82.1049 5.08504 83.0084 4.20932 84.1747 4.20932C84.4634 4.20034 84.7515 4.24969 85.0209 4.35442C85.2897 4.45916 85.5352 4.61713 85.7421 4.8189C86.1546 5.26664 86.408 5.83826 86.4619 6.44477Z" fill="#231F20"/>
<path d="M39.2082 10.4224L39.1921 9.88935L38.657 9.94624C38.5687 9.95568 38.4589 9.96753 38.369 9.96753C38.3457 9.96753 38.326 9.96659 38.3097 9.9654L38.3094 5.45897C38.2667 3.8623 37.2303 2.94654 35.466 2.94654C33.5521 2.94654 32.3549 4.0053 32.2633 5.77871L32.245 6.13402H33.5037L33.5241 5.83993C33.6032 4.75798 34.2565 4.20943 35.466 4.20943C36.8022 4.20943 37.0467 4.70459 37.0467 5.67966C37.0467 6.12665 36.9885 6.21395 35.1472 6.3123L34.7265 6.33529C33.4789 6.42249 31.8203 6.7891 31.8203 8.95662C31.8203 10.4462 32.9205 11.3715 34.6916 11.3715C35.5819 11.3882 36.448 11.0811 37.1289 10.5072C37.2567 10.8454 37.5828 11.2199 38.3996 11.2199C38.5024 11.2199 38.6174 11.2148 38.7513 11.2043L39.2086 11.1709L39.2082 10.4224ZM37.0467 7.85024C37.0467 8.97245 36.2283 10.1085 34.664 10.1085C33.2886 10.1085 33.0832 9.38686 33.0832 8.95662C33.0832 7.81352 33.8257 7.66762 34.7962 7.59543C34.9891 7.58153 35.1865 7.57155 35.418 7.56004C35.966 7.55505 36.5119 7.49205 37.0467 7.3721V7.85024Z" fill="#231F20"/>
<path d="M64.6234 10.4224L64.6073 9.88935L64.0722 9.94624C63.984 9.95568 63.8741 9.96753 63.7842 9.96753C63.7609 9.96753 63.7412 9.96659 63.7248 9.9654L63.7246 5.45897C63.6819 3.8623 62.6455 2.94654 60.8813 2.94654C58.9674 2.94654 57.7701 4.0053 57.6785 5.77871L57.6602 6.13402H58.9189L58.9393 5.83993C59.0184 4.75798 59.6718 4.20943 60.8813 4.20943C62.2174 4.20943 62.4619 4.70459 62.4619 5.67966C62.4619 6.12665 62.4036 6.21395 60.5624 6.3123L60.1417 6.33529C58.8941 6.42249 57.2355 6.7891 57.2355 8.95662C57.2355 10.4462 58.3357 11.3715 60.1068 11.3715C60.9971 11.3882 61.8632 11.0811 62.5441 10.5072C62.6719 10.8454 62.9979 11.2199 63.8148 11.2199C63.9175 11.2199 64.0327 11.2148 64.1665 11.2043L64.6239 11.1709L64.6234 10.4224ZM62.4619 7.85024C62.4619 8.97245 61.6435 10.1085 60.0792 10.1085C58.7038 10.1085 58.4984 9.38686 58.4984 8.95662C58.4984 7.81352 59.2409 7.66762 60.2114 7.59543C60.4042 7.58153 60.6016 7.57155 60.8332 7.56004C61.3812 7.55505 61.9272 7.49205 62.4619 7.3721V7.85024Z" fill="#231F20"/>
</g>
</g>
<defs>
<clipPath id="clip0_1_3437">
<rect width="93.13" height="13.5" fill="white" transform="translate(0 0.25)"/>
</clipPath>
<clipPath id="clip1_1_3437">
<rect width="93.13" height="13.4986" fill="white" transform="translate(0 0.250679)"/>
</clipPath>
</defs>
</svg>
