<svg width="29" height="14" viewBox="0 0 29 14" fill="none" xmlns="http://www.w3.org/2000/svg">
<g clip-path="url(#clip0_1_3460)">
<g clip-path="url(#clip1_1_3460)">
<path d="M28.1267 6.26711H26.7198V13.5002H28.1273L28.1267 6.26711ZM25.794 4.96195H24.041V0.25148H22.6382V4.96195H19.8284V0.25148H18.4209V4.96195H16.8285V6.36429H18.4209V13.4955H19.8284V6.36429H22.6382V13.4955H24.0417V6.36429H25.794V4.96195ZM28.1415 4.93698C28.1415 5.33649 27.8203 5.6584 27.4209 5.6584C27.3261 5.65858 27.2323 5.64003 27.1447 5.60383C27.0572 5.56763 26.9776 5.51449 26.9107 5.44746C26.8437 5.38042 26.7906 5.30082 26.7545 5.21321C26.7184 5.12561 26.7 5.03174 26.7002 4.93698C26.7002 4.53814 27.0214 4.21624 27.4209 4.21624C27.6119 4.21659 27.795 4.29264 27.93 4.42773C28.0651 4.56282 28.1412 4.74594 28.1415 4.93698ZM13.1321 6.16994C10.9594 6.16994 9.20162 7.86449 9.20162 9.95923C9.20162 12.0533 10.9601 13.7485 13.1321 13.7485C15.3042 13.7485 17.0619 12.0533 17.0619 9.95923C17.0619 7.86449 15.3042 6.16926 13.1321 6.16926V6.16994ZM13.1321 12.4481C12.4721 12.4479 11.8392 12.1857 11.3724 11.719C10.9057 11.2523 10.6433 10.6193 10.6429 9.95923C10.6433 9.29914 10.9057 8.66619 11.3724 8.1995C11.8392 7.73281 12.4721 7.47055 13.1321 7.47038C13.792 7.47073 14.4248 7.73307 14.8914 8.19974C15.358 8.66641 15.6203 9.29926 15.6206 9.95923C15.6203 10.6192 15.358 11.252 14.8914 11.7187C14.4248 12.1854 13.792 12.4477 13.1321 12.4481ZM6.927 0.25148V7.43596C6.55186 7.03429 6.09781 6.71445 5.59331 6.49648C5.0888 6.27851 4.54472 6.16711 3.99516 6.16926C1.8285 6.16994 0.0700684 7.86449 0.0700684 9.95923C0.0700684 12.0533 1.8285 13.7485 4.00056 13.7485C4.5502 13.7512 5.09446 13.6401 5.59905 13.4221C6.10363 13.2041 6.55761 12.8839 6.9324 12.4818V13.4955H8.33928V0.25148H6.927ZM4.00056 12.4481C3.34055 12.4479 2.70762 12.1857 2.24086 11.719C1.77411 11.2523 1.51172 10.6193 1.51136 9.95923C1.51172 9.29914 1.77411 8.66619 2.24086 8.1995C2.70762 7.73281 3.34055 7.47055 4.00056 7.47038C4.66044 7.47073 5.2932 7.73307 5.75981 8.19974C6.22642 8.66641 6.48872 9.29926 6.48908 9.95923C6.48872 10.6192 6.22642 11.252 5.75981 11.7187C5.2932 12.1854 4.66044 12.4477 4.00056 12.4481Z" fill="black"/>
</g>
</g>
<defs>
<clipPath id="clip0_1_3460">
<rect width="28.34" height="13.5" fill="white" transform="translate(0.0700684 0.25)"/>
</clipPath>
<clipPath id="clip1_1_3460">
<rect width="28.34" height="13.497" fill="white" transform="translate(0.0700684 0.25148)"/>
</clipPath>
</defs>
</svg>
