<svg width="81" height="24" viewBox="0 0 81 24" fill="none" xmlns="http://www.w3.org/2000/svg">
<g clip-path="url(#clip0_1_3366)">
<path fill-rule="evenodd" clip-rule="evenodd" d="M62.6547 0.741618C63.04 0.741618 63.3536 1.05253 63.3536 1.43615C63.3536 1.81843 63.04 2.13024 62.6547 2.13024C62.47 2.13048 62.2929 2.05758 62.1619 1.9275C62.0308 1.79743 61.9567 1.62076 61.9557 1.43615C61.9557 1.05253 62.2702 0.741618 62.6547 0.741618ZM62.6547 2.31357C62.888 2.31392 63.1119 2.22178 63.2774 2.0573C63.4428 1.89282 63.5363 1.66946 63.5375 1.43615C63.537 1.32062 63.5138 1.2063 63.4692 1.09972C63.4246 0.993152 63.3594 0.896418 63.2774 0.815055C63.1954 0.733691 63.0982 0.669292 62.9912 0.62554C62.8843 0.581788 62.7698 0.55954 62.6542 0.560068C62.1685 0.560068 61.7727 0.951718 61.7727 1.43615C61.7727 1.91925 62.1685 2.31357 62.6547 2.31357ZM62.4789 0.987404C62.526 0.977408 62.574 0.973213 62.6221 0.974914C62.7733 0.975806 62.8782 1.03067 62.8782 1.15557C62.8782 1.2662 62.7805 1.34069 62.6261 1.34069H62.4789V0.987404ZM62.4789 1.43347H62.6159C62.7447 1.43704 62.8059 1.48789 62.8389 1.62127C62.8701 1.7426 62.8965 1.82423 62.9125 1.85234H63.0619C63.04 1.81487 63.0129 1.72208 62.9771 1.58737C62.9478 1.487 62.8982 1.41697 62.8125 1.3902V1.38753C62.9295 1.35274 63.0235 1.26754 63.0235 1.14219C63.0242 1.10672 63.0166 1.07159 63.0013 1.0396C62.9859 1.00762 62.9633 0.979658 62.9353 0.957963C62.867 0.903989 62.7658 0.878562 62.6114 0.878562C62.5137 0.878562 62.4071 0.887038 62.3348 0.898635V1.85234H62.4789V1.43347ZM80.2335 3.75662C78.7333 3.66293 77.6297 4.2852 77.127 4.64607V3.72628H73.8863V15.7867H77.1894V8.1348C77.6609 6.87509 80.1915 6.94334 80.2165 6.94513L80.4065 6.95138V3.76865L80.2335 3.75662ZM64.7739 9.7741C64.5278 8.12855 65.7901 7.16682 65.8467 7.12623C66.581 6.58827 67.259 6.37148 67.8657 6.48121C68.3599 6.56953 68.6865 6.85903 68.8448 7.03345L64.7739 9.7741ZM67.4803 3.60138C67.3835 3.59781 64.835 3.56301 63.0499 5.63992C62.9295 5.74296 61.1505 7.37068 61.8085 10.9847C61.8277 11.0766 62.2751 13.2017 63.6173 14.3784C63.6708 14.4343 65.2231 16.0053 67.9861 16.0365C68.0976 16.041 70.8998 16.1413 72.6574 14.1108L72.734 14.0211L72.6815 13.9145L71.5243 11.5254L71.4031 11.2684L71.2211 11.487C71.209 11.5026 69.9332 13.0126 68.2564 13.129H68.2475L68.2359 13.1308C68.1802 13.141 66.8843 13.3467 65.9435 12.2301L73.215 7.22258L73.3327 7.14051L73.2809 7.00712C73.2675 6.96966 71.8098 3.41314 67.4803 3.60138ZM57.5998 0.836186L57.6296 15.6377L57.6305 15.8197H61.0903V0.653297H57.6003L57.5998 0.836186ZM52.1613 10.2532C51.6336 10.7318 50.9364 10.7082 50.9284 10.7082C49.0411 10.6257 49.0116 8.88375 49.0116 8.8106C49.0383 6.92371 50.8182 6.85502 50.9698 6.85145C52.5832 7.04817 52.755 8.57105 52.7689 8.71825C52.7385 9.39405 52.5347 9.9106 52.1613 10.2532ZM49.1606 3.86501C46.8665 4.68711 46.0336 6.91702 46.0002 7.01204C44.9966 9.36193 46.386 11.4272 46.7786 11.9411L45.6567 13.2557L45.5385 13.3962L45.6821 13.5131L48.0565 15.4365L48.2105 15.5637L48.3228 15.3977C49.4309 13.7785 51.0782 13.948 51.1496 13.9561C52.1087 14.014 52.7292 14.5573 52.7359 14.5636C54.5803 15.9598 53.8135 18.0305 53.7796 18.1196C52.8518 20.2492 50.9284 20.0587 50.8485 20.0493H50.8272C49.2324 20.0493 48.3625 18.8061 48.3541 18.7936L48.2265 18.6108C48.2265 18.6095 48.073 18.7704 48.073 18.7704L46.0417 20.8496L45.9212 20.97L46.0341 21.0949C48.3207 23.7102 51.204 23.3003 51.4061 23.2682C54.3635 23.1357 56.0029 20.8362 56.0698 20.7376C57.8817 18.4323 56.9775 15.2853 56.9396 15.1515C56.5894 13.4832 55.1348 12.1753 55.0732 12.1205L55.0572 12.104L55.0362 12.0964C55.0103 12.082 54.9917 12.0696 54.972 12.0562C55.7794 11.2774 56.0011 9.52787 56.0087 9.45249C56.2005 8.31278 55.7678 7.0669 55.7473 7.01337L55.7455 7.00088L55.7379 6.98839C55.6746 6.8757 55.6229 6.75689 55.5835 6.63376H56.4962L56.5332 6.4995L57.221 3.98589L57.2839 3.75706H52.2201C50.3855 3.3538 49.211 3.8427 49.1606 3.86501ZM41.217 3.8204C39.9532 3.7972 38.9402 4.31554 38.4638 4.61663V3.72628H35.1267L35.1276 3.90917L35.1914 15.5767L35.1923 15.7577H38.4308V9.43241C38.4879 7.81764 39.1432 7.55803 39.1498 7.55714L39.1646 7.55L39.182 7.54241C40.2749 6.93308 40.973 7.31046 41.0702 7.37023L41.0819 7.38183L41.1099 7.39343C42.0377 7.79935 41.878 9.45873 41.8772 9.4739V15.7577H45.2115V9.49309C45.2115 7.25069 45.0772 6.66633 45.0108 6.51422C44.2266 3.85073 41.246 3.8204 41.217 3.8204ZM31.4204 11.6387C31.4283 11.9692 31.3303 12.2431 31.13 12.4478C30.6781 12.9024 29.8636 12.9117 29.8529 12.9117C29.1944 12.8805 28.7198 12.7053 28.4531 12.3898C28.2878 12.197 28.2054 11.9469 28.2233 11.6935C28.3068 11.2194 28.5155 10.8817 28.8434 10.6868C29.537 10.2795 30.5643 10.6243 30.5754 10.6265C31.4543 10.8911 31.423 11.5932 31.4204 11.6387ZM27.6787 3.8262L26.9284 6.40136L26.8624 6.63332H31.5462V7.94789C28.6592 6.75689 26.8165 8.23338 26.7384 8.29761C25.0004 9.51138 25.0442 11.5227 25.0473 11.6092L25.0482 11.5874C24.8845 13.4948 26.4248 14.7366 26.4899 14.7867C27.4516 15.615 28.5632 15.7796 28.6101 15.7867C29.9639 16.0276 31.1425 15.4579 31.6723 15.1386V15.7274H34.5688V3.69505H27.7184L27.6787 3.8262ZM26.3311 6.851V3.59781L26.1442 3.60182C24.6584 3.63662 23.6257 4.18082 23.1439 4.49485V3.74144H19.8256L19.8247 3.923L19.7792 15.5605V15.7412H23.1899V8.4524C23.3638 6.87331 26.1219 6.851 26.1474 6.851H26.3311ZM20.5675 0.809867H16.944L16.8971 0.921385L14.0963 7.68738L10.5277 1.04539L10.3582 0.728683L10.1994 1.05164L6.90743 7.90105L3.92723 0.873209L3.88128 0.761692H0.11377L0.215028 1.01194L6.4957 16.4206L6.65539 16.8145L6.83248 16.4259L10.4189 8.49924L14.232 16.4749L14.4161 16.8612L14.5687 16.4625L20.4733 1.0561L20.5675 0.809867Z" fill="black"/>
</g>
<defs>
<clipPath id="clip0_1_3366">
<rect width="80.7625" height="22.75" fill="white" transform="translate(0.11377 0.560059)"/>
</clipPath>
</defs>
</svg>
